<svg width="31" height="31" viewBox="0 0 31 31" fill="none" xmlns="http://www.w3.org/2000/svg">
<path d="M27.0705 6.77993C24.9998 6.8102 23.2984 8.49955 23.2561 10.5704C23.2258 12.0417 24.0129 13.3315 25.1936 14.0096V20.8276C25.1936 24.2971 22.1541 27.1248 18.4123 27.1248C14.7795 27.1248 11.8006 24.4545 11.6371 21.1182C16.0449 20.21 19.375 16.2984 19.375 11.6239V2.21444C19.375 1.52417 18.8846 0.924726 18.2064 0.791515L14.398 0.0285832C13.6109 -0.128847 12.848 0.379774 12.6906 1.16693L12.4969 2.11756C12.3395 2.90472 12.848 3.66765 13.6352 3.82508L15.4939 4.19444V11.5452C15.4939 14.7483 12.9389 17.4004 9.73594 17.4307C6.50273 17.461 3.86895 14.8452 3.86895 11.6179V4.20049L5.72773 3.83113C6.51484 3.6737 7.02344 2.91077 6.86602 2.12362L6.67832 1.17298C6.5209 0.385829 5.75801 -0.122792 4.9709 0.0346383L1.16855 0.78546C0.49043 0.924726 0 1.51812 0 2.21444V11.6239C0 16.3045 3.33613 20.2221 7.75605 21.1182C7.91348 26.5919 12.6301 31 18.4062 31C24.2793 31 29.0625 26.4345 29.0625 20.8276V14.0096C30.2189 13.3375 31 12.0902 31 10.6551C31 8.4935 29.232 6.74965 27.0705 6.77993ZM27.125 11.6239C26.5922 11.6239 26.1562 11.188 26.1562 10.6551C26.1562 10.1223 26.5922 9.68634 27.125 9.68634C27.6578 9.68634 28.0938 10.1223 28.0938 10.6551C28.0938 11.188 27.6578 11.6239 27.125 11.6239Z" fill="#9C6AFF"/>
</svg>
