<svg width="23" height="12" viewBox="0 0 23 12" fill="none" xmlns="http://www.w3.org/2000/svg">
<path d="M2.99012 12C1.33885 12 0 10.603 0 8.88V3.12C0 1.397 1.33885 0 2.99012 0H18.3346C19.9859 0 21.3248 1.397 21.3248 3.12V8.88C21.3248 10.603 19.9859 12 18.3346 12H2.99012ZM1.06188 3.12V8.88C1.06284 9.99 1.92537 10.89 2.98917 10.89H18.3346C19.3975 10.889 20.2591 9.99 20.26 8.88V3.12C20.2591 2.011 19.3975 1.112 18.3346 1.11H2.99012C1.92633 1.11 1.06284 2.01 1.06188 3.12ZM3.62936 9.52C2.93837 9.518 2.37868 8.933 2.37677 8.212V3.785C2.37677 3.063 2.93646 2.478 3.62744 2.475H17.6944C18.3883 2.475 18.9509 3.062 18.9509 3.785V8.212C18.9461 8.934 18.3864 9.517 17.6944 9.52H3.62936ZM21.7139 4.11C22.4691 4.39 23 5.13 23 5.999C23 6.868 22.4691 7.608 21.7273 7.883L21.7139 7.887V4.11Z" fill="#636363"/>
</svg>
