<svg width="14" height="14" viewBox="0 0 14 14" fill="none" xmlns="http://www.w3.org/2000/svg">
<g clip-path="url(#clip0_89_1392)">
<path d="M11.6667 1.75H2.33333C2.17862 1.75 2.03025 1.81146 1.92085 1.92085C1.81146 2.03025 1.75 2.17862 1.75 2.33333V3.63242L1.75467 3.7625C1.78372 4.152 1.94224 4.52059 2.205 4.80958L4.66667 7.51683V12.25C4.66664 12.3424 4.68859 12.4335 4.73069 12.5158C4.77278 12.5981 4.83383 12.6692 4.9088 12.7233C4.98378 12.7773 5.07052 12.8128 5.16189 12.8268C5.25326 12.8407 5.34664 12.8328 5.43433 12.8036L8.93433 11.6369L8.99733 11.6118C9.09779 11.5648 9.18276 11.4901 9.24227 11.3965C9.30178 11.3029 9.33337 11.1943 9.33333 11.0833V7.2415L11.7372 4.83817C11.8999 4.67556 12.0289 4.48249 12.1169 4.26999C12.2049 4.0575 12.2501 3.82974 12.25 3.59975V2.33333C12.25 2.17862 12.1885 2.03025 12.0791 1.92085C11.9697 1.81146 11.8214 1.75 11.6667 1.75Z" fill="white"/>
</g>
<defs>
<clipPath id="clip0_89_1392">
<rect width="14" height="14" fill="white"/>
</clipPath>
</defs>
</svg>
