<svg width="18" height="18" viewBox="0 0 18 18" fill="none" xmlns="http://www.w3.org/2000/svg">
<path d="M12 5.06066V12.9957C12 14.5632 10.8525 15.9582 9.2925 16.1082C7.5 16.2807 6 14.8782 6 13.1232V3.85316C6 2.87066 6.705 1.97816 7.68 1.88066C8.805 1.76816 9.75 2.64566 9.75 3.74816V11.6232C9.75 12.0357 9.4125 12.3732 9 12.3732C8.5875 12.3732 8.25 12.0357 8.25 11.6232V5.06066C8.25 4.75316 7.995 4.49816 7.6875 4.49816C7.38 4.49816 7.125 4.75316 7.125 5.06066V11.5182C7.125 12.5007 7.83 13.3932 8.805 13.4907C9.93 13.6032 10.875 12.7257 10.875 11.6232V3.87566C10.875 2.30816 9.7275 0.913156 8.1675 0.763156C6.3825 0.590656 4.875 1.99316 4.875 3.74816V12.9507C4.875 15.1032 6.45 17.0307 8.595 17.2332C11.0625 17.4582 13.125 15.5382 13.125 13.1232V5.06066C13.125 4.75316 12.87 4.49816 12.5625 4.49816C12.255 4.49816 12 4.75316 12 5.06066Z" fill="#636363"/>
</svg>
