<svg width="332" height="85" viewBox="0 0 332 85" fill="none" xmlns="http://www.w3.org/2000/svg">
<path d="M166 1.5V83.5" stroke="#9C6AFF" stroke-width="3" stroke-linecap="round"/>
<path d="M183 25.5L183 59.5" stroke="#B7B7B7" stroke-width="2" stroke-linecap="round"/>
<path d="M149 25.5L149 59.5" stroke="#B7B7B7" stroke-width="2" stroke-linecap="round"/>
<path d="M265 25.5L265 59.5" stroke="#B7B7B7" stroke-width="2" stroke-linecap="round"/>
<path d="M67 25.5L67 59.5" stroke="#B7B7B7" stroke-width="2" stroke-linecap="round"/>
<path d="M199 25.5L199 59.5" stroke="#B7B7B7" stroke-width="2" stroke-linecap="round"/>
<path d="M133 25.5L133 59.5" stroke="#B7B7B7" stroke-width="2" stroke-linecap="round"/>
<path d="M282 25.5L282 59.5" stroke="#B7B7B7" stroke-width="2" stroke-linecap="round"/>
<path d="M50 25.5L50 59.5" stroke="#B7B7B7" stroke-width="2" stroke-linecap="round"/>
<path d="M216 25.5L216 59.5" stroke="#B7B7B7" stroke-width="2" stroke-linecap="round"/>
<path d="M116 25.5L116 59.5" stroke="#B7B7B7" stroke-width="2" stroke-linecap="round"/>
<path d="M298 25.5L298 59.5" stroke="#B7B7B7" stroke-width="2" stroke-linecap="round"/>
<path d="M34 25.5L34 59.5" stroke="#B7B7B7" stroke-width="2" stroke-linecap="round"/>
<path d="M232 25.5L232 59.5" stroke="#B7B7B7" stroke-width="2" stroke-linecap="round"/>
<path d="M100 25.5L100 59.5" stroke="#B7B7B7" stroke-width="2" stroke-linecap="round"/>
<path d="M315 25.5L315 59.5" stroke="#B7B7B7" stroke-width="2" stroke-linecap="round"/>
<path d="M17 25.5L17 59.5" stroke="#B7B7B7" stroke-width="2" stroke-linecap="round"/>
<path d="M249 16.5L249 67.5" stroke="#B7B7B7" stroke-width="2" stroke-linecap="round"/>
<path d="M83 16.5L83 67.5" stroke="#B7B7B7" stroke-width="2" stroke-linecap="round"/>
<path d="M331 16.5L331 67.5" stroke="#B7B7B7" stroke-width="2" stroke-linecap="round"/>
<path d="M1 16.5L0.999998 67.5" stroke="#B7B7B7" stroke-width="2" stroke-linecap="round"/>
</svg>
