<svg width="20" height="20" viewBox="0 0 20 20" fill="none" xmlns="http://www.w3.org/2000/svg">
<path d="M19.2908 3.70061C17.6408 3.55184 15.9909 3.44027 14.3307 3.35658V3.34729L14.1052 2.13854C13.9515 1.28313 13.726 0 11.3279 0H8.64292C6.25506 0 6.0296 1.22734 5.86563 2.12925L5.65042 3.31939C4.69733 3.37518 3.74425 3.43097 2.79117 3.51465L0.700541 3.70061C0.270117 3.7378 -0.0373285 4.08183 0.00366426 4.46305C0.044657 4.84427 0.413592 5.12321 0.844016 5.08601L2.93465 4.90005C8.30473 4.41656 13.7158 4.60252 19.1473 5.09531H19.2293C19.6187 5.09531 19.9569 4.82567 19.9979 4.46305C20.0287 4.08183 19.7212 3.7378 19.2908 3.70061Z" fill="#9C6AFF"/>
<path d="M17.4051 6.40642C17.1591 6.17397 16.8209 6.0438 16.4725 6.0438H3.51881C3.17037 6.0438 2.82193 6.17397 2.58622 6.40642C2.35051 6.63887 2.21729 6.95501 2.23778 7.28044L2.87317 16.8202C2.9859 18.2335 3.12938 20.0001 6.706 20.0001H13.2853C16.8619 20.0001 17.0055 18.2428 17.1181 16.8202L17.7535 7.28973C17.774 6.95501 17.6408 6.63887 17.4051 6.40642ZM11.6968 15.3418H8.28417C7.86404 15.3418 7.5156 15.0257 7.5156 14.6445C7.5156 14.2632 7.86404 13.9471 8.28417 13.9471H11.6968C12.117 13.9471 12.4654 14.2632 12.4654 14.6445C12.4654 15.0257 12.117 15.3418 11.6968 15.3418ZM12.5577 11.6226H7.43362C7.01344 11.6226 6.665 11.3065 6.665 10.9253C6.665 10.544 7.01344 10.2279 7.43362 10.2279H12.5577C12.9778 10.2279 13.3263 10.544 13.3263 10.9253C13.3263 11.3065 12.9778 11.6226 12.5577 11.6226Z" fill="#9C6AFF"/>
</svg>
