<svg width="15" height="14" viewBox="0 0 15 14" fill="none" xmlns="http://www.w3.org/2000/svg">
<path d="M12.5 9.89558C11.8667 9.89558 11.3 10.1064 10.8667 10.4367L4.925 7.52008C4.96667 7.35843 5 7.19679 5 7.02811C5 6.85944 4.96667 6.69779 4.925 6.53614L10.8 3.64759C11.25 3.999 11.8417 4.21687 12.5 4.21687C13.8833 4.21687 15 3.2751 15 2.10843C15 0.941767 13.8833 0 12.5 0C11.1167 0 10 0.941767 10 2.10843C10 2.27711 10.0333 2.43876 10.075 2.6004L4.2 5.48896C3.75 5.13755 3.15833 4.91968 2.5 4.91968C1.11667 4.91968 0 5.86145 0 7.02811C0 8.19478 1.11667 9.13655 2.5 9.13655C3.15833 9.13655 3.75 8.91868 4.2 8.56727L10.1333 11.491C10.0917 11.6386 10.0667 11.7932 10.0667 11.9478C10.0667 13.0793 11.1583 14 12.5 14C13.8417 14 14.9333 13.0793 14.9333 11.9478C14.9333 10.8163 13.8417 9.89558 12.5 9.89558Z" fill="#9C6AFF"/>
</svg>
