<svg width="31" height="25" viewBox="0 0 31 25" fill="none" xmlns="http://www.w3.org/2000/svg">
<path d="M20.15 16.6667H22.475C22.8625 16.6667 23.25 16.25 23.25 15.8333V7.08333C23.25 6.66667 22.8625 6.25 22.475 6.25H20.15C19.7625 6.25 19.375 6.66667 19.375 7.08333V15.8333C19.375 16.25 19.7625 16.6667 20.15 16.6667ZM25.9625 16.6667H28.2875C28.675 16.6667 29.0625 16.25 29.0625 15.8333V0.833333C29.0625 0.416667 28.675 0 28.2875 0H25.9625C25.575 0 25.1875 0.416667 25.1875 0.833333V15.8333C25.1875 16.25 25.575 16.6667 25.9625 16.6667ZM8.525 16.6667H10.85C11.2375 16.6667 11.625 16.25 11.625 15.8333V11.25C11.625 10.8333 11.2375 10.4167 10.85 10.4167H8.525C8.1375 10.4167 7.75 10.8333 7.75 11.25V15.8333C7.75 16.25 8.1375 16.6667 8.525 16.6667ZM14.3375 16.6667H16.6625C17.05 16.6667 17.4375 16.25 17.4375 15.8333V2.91667C17.4375 2.5 17.05 2.08333 16.6625 2.08333H14.3375C13.95 2.08333 13.5625 2.5 13.5625 2.91667V15.8333C13.5625 16.25 13.95 16.6667 14.3375 16.6667ZM30.0312 20.8333H3.875V1.04167C3.875 0.466146 3.44148 0 2.90625 0H0.96875C0.433516 0 0 0.466146 0 1.04167V22.9167C0 24.0671 0.867637 25 1.9375 25H30.0312C30.5665 25 31 24.5339 31 23.9583V21.875C31 21.2995 30.5665 20.8333 30.0312 20.8333Z" fill="#B7B7B7"/>
</svg>
