<svg width="20" height="15" viewBox="0 0 20 15" fill="none" xmlns="http://www.w3.org/2000/svg">
<path fill-rule="evenodd" clip-rule="evenodd" d="M18.3333 0C17.8667 0 17.45 0.183333 17.15 0.483333L6.66667 10.9833L2.85 7.15C2.55 6.85 2.13333 6.66667 1.66667 6.66667C0.75 6.66667 0 7.41667 0 8.33333C0 8.8 0.183333 9.21667 0.483333 9.51667L5.48333 14.5167C5.78333 14.8167 6.2 15 6.66667 15C7.13333 15 7.55 14.8167 7.85 14.5167L19.5167 2.85C19.8167 2.55 20 2.13333 20 1.66667C20 0.75 19.25 0 18.3333 0Z" fill="white"/>
</svg>
