<svg width="282" height="285" viewBox="0 0 282 285" fill="none" xmlns="http://www.w3.org/2000/svg">
<path d="M280.118 110.354C276.993 72.329 275.426 53.3174 268.147 41.0175C247.306 5.79948 186.713 -2.58058 148.443 0.63179C97.2086 4.92819 38.5931 33.9719 12.7974 90.049C-10.6356 140.982 0.170047 198.635 35.4784 236.345C100.204 305.483 233.719 293.142 266.336 247.775C279.353 229.67 280.29 200.75 281.67 158.274C282.329 137.826 281.037 121.53 280.118 110.354Z" fill="#E7DBFF" fill-opacity="0.4"/>
<g style="mix-blend-mode:soft-light" opacity="0.3">
<path d="M133.641 244.777C125.218 234.445 114.469 218.053 111.474 196.499C107.545 168.231 120.405 155.92 125.262 109.592C128.333 80.2989 130.183 59.8246 116.95 46.9832C106.581 36.9196 88.1901 32.7474 75.8469 39.1569C65.5843 44.4854 58.3003 57.7522 55.3226 67.5186C52.895 75.4773 53.1995 81.5315 47.9545 85.1958C42.5948 88.9426 37.7618 85.775 32.8629 88.4265C22.9281 93.8018 25.2948 116.3 25.6774 119.936C29.9339 160.383 62.4472 191.603 76.7928 205.05C88.656 216.168 107.271 231.358 133.641 244.777Z" fill="url(#paint0_linear_56_1433)"/>
<mask id="mask0_56_1433" style="mask-type:luminance" maskUnits="userSpaceOnUse" x="25" y="36" width="109" height="209">
<path d="M133.641 244.777C125.218 234.445 114.469 218.053 111.474 196.499C107.545 168.231 120.405 155.92 125.262 109.592C128.333 80.2989 130.183 59.8246 116.95 46.9832C106.581 36.9196 88.1901 32.7474 75.8469 39.1569C65.5843 44.4854 58.3003 57.7522 55.3226 67.5186C52.895 75.4773 53.1995 81.5315 47.9545 85.1958C42.5948 88.9426 37.7618 85.775 32.8629 88.4265C22.9281 93.8018 25.2948 116.3 25.6774 119.936C29.9339 160.383 62.4472 191.603 76.7928 205.05C88.656 216.168 107.271 231.358 133.641 244.777Z" fill="white"/>
</mask>
<g mask="url(#mask0_56_1433)">
<path d="M143.703 253.432C127.779 244.813 114.355 235.271 103.802 225.072C88.1841 209.977 79.3433 193.847 77.5338 177.13C76.1129 164.056 79.0774 150.482 82.8265 133.296C85.9351 119.046 89.4162 109.243 92.4873 100.59C96.4687 89.3721 99.6139 80.5116 100.011 67.146C100.417 53.5678 97.7688 39.6638 92.1483 25.8106L92.7958 25.547C98.4529 39.4917 101.118 53.4904 100.712 67.1664C100.306 80.6429 97.1507 89.5492 93.148 100.825C90.084 109.458 86.61 119.248 83.5064 133.447C79.6245 151.239 76.8203 164.094 78.229 177.055C82.0501 212.297 116.124 237.706 144.036 252.815L143.703 253.432Z" fill="white"/>
<path d="M85.4347 123.32L85.3728 122.929C81.0747 95.8254 69.3232 77.6616 60.2216 67.198C50.3659 55.8692 41.4348 50.8908 41.3434 50.8399L41.6794 50.2292C41.7697 50.2791 50.8135 55.3185 60.7483 66.741C69.8652 77.225 81.6228 95.3755 85.999 122.423C87.9192 121.801 96.8645 118.647 106.398 111.098C116.271 103.28 128.814 89.0108 132.499 65.4259L133.189 65.5348C129.466 89.3528 116.789 103.77 106.808 111.666C95.9958 120.223 85.9168 123.187 85.8163 123.215L85.4347 123.32Z" fill="white"/>
<path d="M78.0848 161.924L77.8524 161.823C62.7304 155.098 49.4352 131.449 40.9547 112.792C31.779 92.6181 26.0854 73.7805 26.0296 73.5922L26.6984 73.3886C26.7553 73.5759 32.4367 92.3748 41.5941 112.507C53.6105 138.925 66.1608 155.709 77.9062 161.075C79.3778 159.459 90.0606 147.879 102.908 138.202C116.748 127.779 145.811 127.413 146.103 127.406L146.109 128.106C145.819 128.106 116.982 128.478 103.328 138.763C89.607 149.097 78.367 161.609 78.2543 161.734L78.0848 161.924Z" fill="white"/>
<path d="M99.9793 220.711L99.3084 220.543C99.1673 220.507 85.0673 216.915 67.2437 207.998C50.7901 199.765 27.7002 185.179 11.136 162.442L-20.8495 118.537L-20.2842 118.124L11.6983 162.029C28.1752 184.647 51.1585 199.166 67.538 207.362C83.1015 215.15 95.809 218.864 98.806 219.684C95.7613 211.92 95.2894 204.185 97.3994 196.68C99.1308 190.521 102.6 184.511 107.708 178.817C116.386 169.147 126.952 163.651 127.058 163.596L127.376 164.22C127.275 164.274 116.805 169.716 108.214 179.299C100.319 188.107 92.4345 202.329 99.7144 220.066L99.9793 220.711Z" fill="white"/>
</g>
</g>
<g style="mix-blend-mode:soft-light" opacity="0.5">
<path d="M122.302 234.564C103.841 237.852 79.9299 239.037 55.9154 231.239C49.7874 229.249 11.9276 216.956 13.8295 197.768C14.4974 191.008 19.5343 189.101 20.5654 180.08C21.7833 169.392 15.4991 165.226 9.98714 153.107C6.69785 145.872 -2.92745 124.699 7.26518 110.335C13.3546 101.751 26.2438 95.9831 36.7287 96.9603C52.1024 98.3853 59.2777 114.035 71.0171 140.752C81.4228 164.434 80.3115 170.872 88.0674 187.777C93.8168 200.313 103.819 217.23 122.302 234.564Z" fill="url(#paint1_linear_56_1433)"/>
<mask id="mask1_56_1433" style="mask-type:luminance" maskUnits="userSpaceOnUse" x="2" y="96" width="121" height="142">
<path d="M122.302 234.564C103.841 237.852 79.9299 239.037 55.9154 231.239C49.7874 229.249 11.9276 216.956 13.8295 197.768C14.4974 191.008 19.5343 189.101 20.5654 180.08C21.7833 169.392 15.4991 165.226 9.98714 153.107C6.69785 145.872 -2.92745 124.699 7.26518 110.335C13.3546 101.751 26.2438 95.9831 36.7287 96.9603C52.1024 98.3853 59.2777 114.035 71.0171 140.752C81.4228 164.434 80.3115 170.872 88.0674 187.777C93.8168 200.313 103.819 217.23 122.302 234.564Z" fill="white"/>
</mask>
<g mask="url(#mask1_56_1433)">
<path d="M153.363 239.449C150.096 239.449 146.831 239.284 143.58 238.954C117.779 236.337 94.0279 222.993 72.9849 199.291C51.1179 174.659 37.6492 145.001 30.2019 124.459C25.0157 110.156 23.605 93.5963 26.0032 75.2401L26.6964 75.3307C24.3114 93.5749 25.712 110.024 30.8575 124.22C39.9175 149.206 74.825 231.276 143.65 238.257C162.881 240.209 182.502 236.336 201.966 226.75L202.271 227.379C185.979 235.405 169.569 239.449 153.363 239.449Z" fill="white"/>
<path d="M48.7065 164.369L48.4021 164.208C4.91161 141.612 1.10777 107.784 0.972787 97.9537C0.972787 97.7502 0.972785 97.6229 0.964666 97.571L1.65683 97.4794C1.66698 97.5476 1.66799 97.6525 1.67205 97.9436C1.80196 107.652 5.56216 141.009 48.4102 163.423C49.2038 161.82 52.823 154.18 55.2821 143.614C57.8264 132.679 59.6136 116.279 53.6745 100.253L54.3301 100.009C60.3322 116.207 58.5277 132.76 55.9539 143.794C53.1711 155.741 48.9115 163.979 48.8679 164.062L48.7065 164.369Z" fill="white"/>
<path d="M45.7815 203.918C35.9472 203.918 28.3019 201.742 22.8103 199.289C12.1701 194.539 7.07939 187.737 7.02763 187.669L7.58887 187.253C7.6386 187.32 12.6451 193.994 23.1331 198.666C32.7898 202.969 49.2018 206.402 72.5921 198.376C73.2102 195.951 79.6203 169.353 73.2386 136.253L66.4824 101.207L67.1685 101.073L73.9257 136.121C80.624 170.845 73.2955 198.464 73.2153 198.738L73.1666 198.918L72.992 198.978C62.5659 202.578 53.4999 203.918 45.7815 203.918Z" fill="white"/>
</g>
</g>
<g style="mix-blend-mode:multiply">
<path d="M218.653 58.7151L126.117 59.4622C123.072 59.4866 120.231 62.6675 119.762 66.5638L109.8 149.648C109.337 153.516 111.396 156.755 114.409 156.901L205.928 161.365C209.284 161.528 212.443 158.311 212.952 154.209L223.878 66.1252C224.39 61.9926 222.047 58.6876 218.653 58.7151Z" fill="url(#paint2_linear_56_1433)"/>
<path d="M203.321 183.065L111.98 177.504C108.972 177.321 106.17 180.189 105.707 184.05L103.814 199.771C103.351 203.625 105.39 207.194 108.388 207.43L199.424 214.58C202.762 214.842 205.903 211.405 206.41 207.318L208.492 190.619C209 186.525 206.672 183.269 203.321 183.065Z" fill="url(#paint3_linear_56_1433)"/>
<path d="M197.804 227.172L106.904 219.388C103.91 219.132 101.119 222.085 100.654 225.933L98.7603 241.756C98.2996 245.598 100.337 248.961 103.327 249.269L193.926 258.633C197.248 258.977 200.36 255.957 200.864 251.885L202.937 235.13C203.437 231.052 201.138 227.457 197.804 227.172Z" fill="url(#paint4_linear_56_1433)"/>
</g>
<path d="M119.916 46.0936L94.8266 255.238C94.4501 258.374 96.6058 261.184 99.6241 261.485L204.123 272.988C210.525 273.388 214.03 270.108 214.424 266.773L240.761 44.4213C241.154 41.1051 238.014 38.1024 231.584 38.1024L126.136 40.3294C123.087 40.3803 120.292 42.9749 119.916 46.0936Z" fill="url(#paint5_linear_56_1433)"/>
<path d="M115.212 45.7343L89.9856 255.923C89.6071 259.078 91.7698 261.9 94.7993 262.202L203.136 273.02C206.533 273.359 209.645 270.895 210.042 267.543L236.531 44.0395C236.926 40.706 234.431 38.027 230.998 38.0851L121.461 39.9396C118.397 39.9915 115.588 42.5993 115.212 45.7343Z" fill="url(#paint6_linear_56_1433)"/>
<path d="M117.268 57.3278L93.8858 252.216C93.5326 255.16 95.5574 257.795 98.394 258.072L200.281 268.001C203.438 268.306 206.332 266.008 206.701 262.888L231.18 56.4229C231.549 53.3184 229.233 50.8073 226.043 50.8419L123.111 51.9412C120.246 51.9758 117.619 54.3973 117.268 57.3278Z" fill="url(#paint7_linear_56_1433)"/>
<path d="M171.905 45.5898C171.771 46.7094 172.572 47.6041 173.694 47.5899C174.817 47.5756 175.838 46.6555 175.972 45.5338C176.106 44.4121 175.302 43.5174 174.179 43.5337C173.055 43.55 172.038 44.4701 171.905 45.5898Z" fill="url(#paint8_linear_56_1433)"/>
<g style="mix-blend-mode:soft-light" opacity="0.2">
<path d="M134.884 188.149C155.742 149.47 186.901 137.895 196.285 98.0341C201.36 76.488 197.901 55.8651 192.082 38.7446L231.001 38.0861C234.434 38.028 236.929 40.7071 236.534 44.0406L210.045 267.544C209.648 270.896 206.536 273.36 203.139 273.021L117.975 264.518C117.343 229.862 125.585 205.389 134.884 188.149Z" fill="white"/>
</g>
<path d="M212.945 152.521C212.437 156.621 209.278 159.837 205.922 159.674L114.423 155.222C111.41 155.075 109.349 151.838 109.816 147.971L119.775 64.922C120.242 61.0277 123.082 57.8479 126.128 57.8225L218.645 57.0652C222.039 57.0377 224.381 60.3417 223.869 64.4722L212.945 152.521Z" fill="white"/>
<path d="M206.405 205.606C205.897 209.691 202.757 213.127 199.42 212.865L108.406 205.728C105.409 205.493 103.37 201.925 103.832 198.073L105.726 182.358C106.188 178.499 108.99 175.632 111.997 175.815L203.316 181.363C206.666 181.567 208.994 184.824 208.487 188.913L206.405 205.606Z" fill="white"/>
<path d="M200.855 250.157C200.348 254.228 197.24 257.245 193.918 256.903L103.344 247.552C100.361 247.247 98.3229 243.888 98.7837 240.042L100.676 224.226C101.137 220.38 103.931 217.427 106.924 217.684L197.801 225.454C201.134 225.739 203.432 229.334 202.927 233.41L200.855 250.157Z" fill="white"/>
<path d="M128.624 75.3948L127.954 69.7966H127.919C127.831 70.9338 127.763 71.6928 127.716 72.0735L127.318 75.3877H126.263L127.119 68.2626H128.727L129.392 73.7163H129.415L131.476 68.2565H133.092L132.232 75.405H131.124L131.53 72.0236C131.55 71.8649 131.574 71.681 131.603 71.472C131.631 71.263 131.715 70.7092 131.854 69.8108H131.82L129.705 75.4019L128.624 75.3948Z" fill="url(#paint9_linear_56_1433)"/>
<path d="M139.385 71.818C139.242 73.0062 138.9 73.9186 138.359 74.5551C137.817 75.1916 137.116 75.5091 136.255 75.5078C135.393 75.5078 134.771 75.1882 134.386 74.549C134.002 73.9097 133.882 72.9964 134.025 71.8089C134.169 70.618 134.509 69.708 135.047 69.079C135.585 68.4499 136.287 68.1344 137.152 68.1324C138.018 68.1324 138.643 68.4482 139.025 69.08C139.408 69.7117 139.528 70.6244 139.385 71.818ZM135.272 71.818C135.176 72.6181 135.223 73.2206 135.412 73.6258C135.602 74.0309 135.934 74.2344 136.409 74.2365C137.361 74.2365 137.936 73.431 138.134 71.8201C138.333 70.2091 137.956 69.4023 137.004 69.3996C136.777 69.3963 136.552 69.4506 136.352 69.5573C136.151 69.6641 135.981 69.8199 135.856 70.0103C135.562 70.4161 135.367 71.0187 135.272 71.818Z" fill="url(#paint10_linear_56_1433)"/>
<path d="M145.35 75.4284H143.819L142.011 69.9849H141.976C141.908 70.945 141.85 71.6297 141.801 72.0389L141.395 75.4202H140.324L141.19 68.2382H142.706L144.519 73.6247H144.547C144.621 72.689 144.682 72.0277 144.728 71.6409L145.134 68.2331H146.22L145.35 75.4284Z" fill="url(#paint11_linear_56_1433)"/>
<path d="M152.168 71.757C152.024 72.9472 151.646 73.8582 151.033 74.49C150.42 75.1217 149.608 75.4362 148.597 75.4335H146.982L147.854 68.225H149.646C150.58 68.225 151.268 68.5348 151.71 69.1543C152.151 69.7739 152.304 70.6414 152.168 71.757ZM150.903 71.7967C151.091 70.2455 150.642 69.4705 149.557 69.4719H148.913L148.344 74.1693H148.863C150.031 74.1727 150.711 73.3822 150.903 71.7977V71.7967Z" fill="url(#paint12_linear_56_1433)"/>
<path d="M156.631 75.4508L156.428 73.7205H154.331L153.706 75.4417H152.395L155.302 68.1772H156.794L157.953 75.4559L156.631 75.4508ZM156.288 72.4369C156.092 70.8762 155.982 69.9941 155.958 69.7905C155.934 69.5869 155.919 69.4251 155.912 69.305C155.777 69.7284 155.403 70.7737 154.789 72.441L156.288 72.4369Z" fill="url(#paint13_linear_56_1433)"/>
<path d="M161.193 71.1859L162.766 68.1904H164.092L161.627 72.6344L161.283 75.462H160.065L160.402 72.6853L159.03 68.2067H160.358L161.193 71.1859Z" fill="url(#paint14_linear_56_1433)"/>
<path d="M206.004 151.022L115.506 147.054L115.917 143.659L206.461 147.448L206.004 151.022Z" fill="url(#paint15_linear_56_1433)"/>
<path d="M128.759 139.738L119.646 139.38L122.983 111.449L132.123 111.659L128.759 139.738Z" fill="url(#paint16_linear_56_1433)"/>
<path d="M140.697 140.206L131.457 139.844L136.729 96.316L146.012 96.4473L140.697 140.206Z" fill="url(#paint17_linear_56_1433)"/>
<path d="M153.079 140.693L143.707 140.325L146.09 120.489L155.478 120.751L153.079 140.693Z" fill="url(#paint18_linear_56_1433)"/>
<path d="M165.357 141.175L155.855 140.802L160.174 105.476L169.712 105.658L165.357 141.175Z" fill="url(#paint19_linear_56_1433)"/>
<path d="M177.809 141.664L168.171 141.286L171.651 112.566L181.316 112.789L177.809 141.664Z" fill="url(#paint20_linear_56_1433)"/>
<path d="M190.726 142.172L180.949 141.788L183.398 121.527L193.193 121.8L190.726 142.172Z" fill="url(#paint21_linear_56_1433)"/>
<path d="M203.54 142.675L193.622 142.285L199.187 97.1944L209.151 97.3338L203.54 142.675Z" fill="url(#paint22_linear_56_1433)"/>
<path d="M215.588 73.8548L186.12 73.8232L186.567 70.105L216.05 70.0755L215.588 73.8548Z" fill="url(#paint23_linear_56_1433)"/>
<path d="M174.804 201.138L178.513 193.803L174.86 193.551L175.063 191.923L180.389 192.283L180.239 193.505L176.452 201.261L174.804 201.138Z" fill="url(#paint24_linear_56_1433)"/>
<path d="M188.348 202.125L188.074 199.886L185.339 199.689L184.527 201.845L182.819 201.72L186.6 192.65L188.545 192.781L190.068 202.247L188.348 202.125ZM187.896 198.217C187.638 196.191 187.494 195.045 187.463 194.78C187.431 194.514 187.412 194.305 187.403 194.151C187.224 194.682 186.737 195.992 185.941 198.08L187.896 198.217Z" fill="url(#paint25_linear_56_1433)"/>
<path d="M194.475 202.572L193.552 195.173H193.505C193.388 196.656 193.299 197.645 193.238 198.139L192.707 202.446L191.278 202.345L192.419 193.089L194.6 193.237L195.514 200.452H195.545L198.326 193.487L200.521 193.636L199.371 202.933L197.868 202.823L198.412 198.427C198.438 198.223 198.47 197.98 198.509 197.714C198.547 197.449 198.66 196.725 198.846 195.558H198.799L195.944 202.69L194.475 202.572Z" fill="url(#paint26_linear_56_1433)"/>
<path d="M164.617 244.603L163.07 244.453L163.716 239.183L163.837 238.319L163.978 237.374C163.681 237.67 163.477 237.863 163.369 237.953L162.426 238.714L161.823 237.486L164.462 235.371L165.736 235.489L164.617 244.603Z" fill="url(#paint27_linear_56_1433)"/>
<path d="M172.576 240.753C172.381 242.352 172.024 243.515 171.506 244.241C170.989 244.967 170.291 245.287 169.414 245.201C168.565 245.118 167.974 244.66 167.64 243.827C167.305 242.993 167.233 241.806 167.423 240.264C167.62 238.654 167.976 237.486 168.489 236.761C169.003 236.035 169.696 235.713 170.569 235.795C171.419 235.873 172.013 236.333 172.352 237.175C172.69 238.016 172.765 239.209 172.576 240.753ZM168.969 240.409C168.834 241.529 168.813 242.339 168.908 242.839C169.003 243.339 169.236 243.608 169.607 243.644C169.97 243.679 170.262 243.459 170.484 242.983C170.706 242.507 170.885 241.715 171.021 240.605C171.157 239.483 171.174 238.668 171.073 238.162C170.972 237.653 170.738 237.388 170.379 237.353C170.02 237.318 169.72 237.539 169.503 238.015C169.286 238.49 169.109 239.289 168.969 240.409Z" fill="url(#paint28_linear_56_1433)"/>
<path d="M181.085 246.219L180.814 243.979L178.098 243.717L177.286 245.848L175.59 245.682L179.345 236.717L181.274 236.896L182.782 246.388L181.085 246.219ZM180.637 242.305C180.382 240.275 180.239 239.128 180.208 238.862C180.177 238.596 180.157 238.386 180.148 238.232C179.971 238.758 179.487 240.054 178.696 242.12L180.637 242.305Z" fill="url(#paint29_linear_56_1433)"/>
<path d="M187.174 246.813L186.261 239.403H186.215C186.098 240.881 186.01 241.865 185.949 242.355L185.421 246.643L184 246.505L185.135 237.29L187.301 237.494L188.215 244.72H188.245L191.009 237.833L193.189 238.037L192.045 247.292L190.553 247.146L191.094 242.769C191.12 242.566 191.151 242.328 191.189 242.057C191.227 241.785 191.339 241.07 191.525 239.912H191.479L188.637 246.964L187.174 246.813Z" fill="url(#paint30_linear_56_1433)"/>
<path d="M146.035 191.417L110.713 188.996L111.397 183.445L146.733 185.749L146.035 191.417Z" fill="url(#paint31_linear_56_1433)"/>
<path d="M128.975 198.771L109.756 197.359L110.464 191.083L129.69 192.424L128.975 198.771Z" fill="url(#paint32_linear_56_1433)"/>
<path d="M140.769 235.186L105.604 231.884L106.292 226.205L141.473 229.39L140.769 235.186Z" fill="url(#paint33_linear_56_1433)"/>
<path d="M123.801 241.608L104.667 239.722L105.356 234.019L124.499 235.841L123.801 241.608Z" fill="url(#paint34_linear_56_1433)"/>
<g style="mix-blend-mode:soft-light" opacity="0.3">
<path d="M135.222 188.142C156.08 149.464 187.239 137.89 196.623 98.028C201.697 76.4819 198.24 55.859 192.42 38.7395L231.339 38.08C234.772 38.022 237.267 40.702 236.872 44.0345L210.383 267.539C209.986 270.891 206.873 273.355 203.477 273.015L118.314 264.512C117.681 229.855 125.923 205.383 135.222 188.142Z" fill="white"/>
</g>
<path d="M84.9537 29.5523C84.9537 27.2214 83.0548 25.2508 80.7154 25.148L19.9981 22.5016C17.3665 22.3866 15.1743 24.3093 15.1743 26.7959V75.4009C15.1743 77.8876 17.3594 79.8856 19.991 79.8643L21.4119 79.848L21.4788 79.7462L80.6698 78.5726C83.0101 78.5532 84.9527 77.4427 84.9527 75.1118L84.9537 29.5523ZM31.846 33.5047C29.5848 33.4273 27.7448 31.6145 27.7448 29.4556C27.7448 27.2967 29.5848 25.6223 31.846 25.715C34.1072 25.8076 35.9168 27.6204 35.9168 29.763C35.9168 31.9056 34.0971 33.581 31.846 33.5047ZM51.1991 34.1642C49.0171 34.0899 47.241 32.3097 47.241 30.1946C47.241 28.0795 49.0161 26.4285 51.1991 26.517C53.3822 26.6056 55.1268 28.3858 55.1268 30.4867C55.1268 32.5876 53.372 34.2386 51.1991 34.1642ZM69.8794 34.8004C67.7724 34.7292 66.0593 32.9815 66.0593 30.8979C66.0593 28.8144 67.7724 27.1949 69.8794 27.2825C71.9863 27.37 73.6731 29.1146 73.6731 31.184C73.6731 33.2533 71.9772 34.8727 69.8794 34.8004Z" fill="url(#paint35_linear_56_1433)"/>
<path d="M86.2223 37.9873V29.5513C86.2178 28.4266 85.7809 27.3469 85.0026 26.5371C84.2243 25.7274 83.1645 25.2499 82.044 25.204L21.5428 22.5637C20.4973 22.504 19.4612 22.7901 18.5935 23.378C17.4852 24.1526 16.7667 25.376 16.7667 26.8082V37.9873H86.2223ZM71.2211 27.3374C73.3138 27.4229 75.0057 29.1696 75.0057 31.2348C75.0057 33.3001 73.3138 34.9175 71.2211 34.8462C69.1284 34.775 67.4092 33.0304 67.4092 30.9498C67.4092 28.8693 69.1203 27.2509 71.2211 27.3374ZM52.5886 26.57C54.7554 26.6585 56.5071 28.4347 56.5071 30.5396C56.5071 32.6446 54.7554 34.2864 52.5886 34.2121C50.4218 34.1378 48.6406 32.3657 48.6406 30.2434C48.6406 28.1212 50.4126 26.4804 52.5886 26.57ZM33.2852 25.775C35.5312 25.8666 37.3448 27.6764 37.3448 29.818C37.3448 31.9596 35.5302 33.6299 33.2852 33.5535C31.0402 33.4772 29.1941 31.6664 29.1941 29.5157C29.1941 27.3649 31.0311 25.6814 33.2852 25.775Z" fill="url(#paint36_linear_56_1433)"/>
<path d="M16.7596 35.4468V75.3857C16.7596 77.8682 18.8199 79.8643 21.4444 79.8459L82.0105 79.3533C83.129 79.3455 84.1992 78.8949 84.988 78.0996C85.7769 77.3042 86.2205 76.2286 86.2224 75.1068V37.6586L16.7596 35.4468Z" fill="white"/>
<path d="M61.7988 43.4309C61.8025 43.2995 61.7805 43.1687 61.7338 43.0459C61.6871 42.9231 61.6167 42.8108 61.5267 42.7153C61.4367 42.6198 61.3288 42.543 61.2091 42.4894C61.0895 42.4358 60.9605 42.4064 60.8295 42.4028L54.8416 42.2471C54.2702 42.2318 53.5568 42.6685 53.5568 43.2263V48.8551C53.5568 49.4128 54.2976 49.8729 54.87 49.8892L60.6956 50.0012C61.2619 50.0124 61.8028 49.5726 61.8028 49.0189L61.7988 43.4309Z" fill="#BFC8D6"/>
<path d="M72.2664 43.6986C72.2595 43.4308 72.1503 43.1759 71.9615 42.9865C71.7726 42.7971 71.5185 42.6877 71.2515 42.6807L65.6472 42.5341C65.5174 42.5294 65.3881 42.5513 65.267 42.5985C65.1459 42.6456 65.0357 42.7171 64.9432 42.8085C64.8506 42.8999 64.7777 43.0093 64.7288 43.1299C64.6798 43.2506 64.656 43.38 64.6587 43.5103V49.0831C64.6564 49.2145 64.68 49.3452 64.7281 49.4675C64.7762 49.5899 64.8479 49.7015 64.939 49.796C65.0302 49.8906 65.139 49.9661 65.2593 50.0185C65.3796 50.0708 65.509 50.0988 65.6401 50.1009L71.2688 50.2088C71.3989 50.2128 71.5286 50.1905 71.65 50.1432C71.7715 50.096 71.8822 50.0248 71.9757 49.9339C72.0692 49.843 72.1436 49.7342 72.1944 49.6139C72.2452 49.4936 72.2714 49.3643 72.2715 49.2337L72.2664 43.6986Z" fill="#BFC8D6"/>
<path d="M82.7331 43.9693C82.7331 43.4258 82.251 42.9738 81.707 42.9596L76.1514 42.81C75.6014 42.7947 75.1203 43.2232 75.1203 43.7698V49.2887C75.1258 49.5563 75.2347 49.8114 75.424 50.0001C75.6133 50.1889 75.8683 50.2965 76.1352 50.3004L81.704 50.4104C82.2479 50.4205 82.7371 49.991 82.7371 49.4485L82.7331 43.9693Z" fill="#BFC8D6"/>
<path d="M61.7988 53.6522C61.803 53.5213 61.7811 53.3908 61.7344 53.2684C61.6878 53.146 61.6173 53.0341 61.527 52.9394C61.4368 52.8446 61.3287 52.7688 61.2089 52.7165C61.0891 52.6641 60.9602 52.6362 60.8295 52.6344L54.8416 52.5326C54.2702 52.5234 53.5568 52.9641 53.5568 53.5219V59.1507C53.5568 59.7075 54.2976 60.1686 54.87 60.1747L60.6956 60.2317C61.2619 60.2378 61.8028 59.794 61.8028 59.2403L61.7988 53.6522Z" fill="#BFC8D6"/>
<path d="M72.2664 53.8212C72.2599 53.5542 72.1506 53.3 71.9614 53.112C71.7722 52.924 71.5179 52.8167 71.2515 52.8125L65.6473 52.7189C65.5171 52.7157 65.3876 52.739 65.2667 52.7873C65.1457 52.8356 65.0357 52.908 64.9434 53C64.851 53.0921 64.7782 53.2019 64.7293 53.3229C64.6804 53.4439 64.6564 53.5736 64.6587 53.7042V59.277C64.6563 59.408 64.6799 59.5382 64.7281 59.66C64.7762 59.7819 64.8481 59.8929 64.9394 59.9866C65.0307 60.0804 65.1396 60.155 65.2599 60.2062C65.3802 60.2573 65.5095 60.284 65.6402 60.2847L71.2688 60.3396C71.3993 60.342 71.5291 60.3184 71.6504 60.2701C71.7718 60.2217 71.8823 60.1497 71.9757 60.0581C72.069 59.9665 72.1432 59.8572 72.194 59.7365C72.2448 59.6159 72.2711 59.4863 72.2715 59.3553L72.2664 53.8212Z" fill="#BFC8D6"/>
<path d="M82.7331 53.9912C82.7331 53.4487 82.251 53.0008 81.707 52.9917L76.1514 52.8899C75.6014 52.8807 75.1203 53.3123 75.1203 53.8589V59.3777C75.1243 59.645 75.233 59.9 75.4229 60.0876C75.6128 60.2752 75.8687 60.3803 76.1352 60.3803L81.704 60.4373C82.2479 60.4424 82.7371 60.0098 82.7371 59.4663L82.7331 53.9912Z" fill="#BFC8D6"/>
<path d="M29.1302 53.1301C29.1302 52.5601 28.6014 52.0858 28.0006 52.0756L21.9406 51.9677C21.8036 51.961 21.6667 51.9825 21.5382 52.0307C21.4097 52.079 21.2924 52.153 21.1934 52.2483C21.0944 52.3436 21.0158 52.4581 20.9625 52.5848C20.9091 52.7116 20.8821 52.848 20.8831 52.9855V58.7874C20.8794 58.9258 20.9036 59.0637 20.9541 59.1926C21.0046 59.3215 21.0804 59.439 21.1771 59.5379C21.2738 59.6369 21.3893 59.7153 21.5168 59.7686C21.6443 59.8218 21.7812 59.8488 21.9193 59.848L28.0331 59.9121C28.6339 59.9182 29.1302 59.4642 29.1302 58.8942V53.1301Z" fill="#BFC8D6"/>
<path d="M40.2312 53.3042C40.2331 53.169 40.2082 53.0347 40.1582 52.9092C40.1081 52.7836 40.0337 52.6693 39.9394 52.5727C39.8451 52.4761 39.7326 52.3991 39.6085 52.3463C39.4844 52.2935 39.3511 52.2658 39.2163 52.2649L33.1523 52.1631C32.5565 52.153 31.9882 52.6039 31.9882 53.1728V58.9177C31.9882 59.4866 32.5798 59.9549 33.1756 59.961L39.1635 60.019C39.3003 60.0237 39.4367 60.0013 39.5648 59.9529C39.6929 59.9046 39.8102 59.8312 39.91 59.7372C40.0097 59.6431 40.0899 59.5302 40.1459 59.4049C40.2019 59.2796 40.2326 59.1445 40.2362 59.0072L40.2312 53.3042Z" fill="#BFC8D6"/>
<path d="M51.0155 53.4894C51.0166 53.2176 50.9105 52.9564 50.7204 52.7627C50.5303 52.569 50.2716 52.4585 50.0006 52.4553L43.9843 52.3535C43.3997 52.3433 42.7664 52.7861 42.7664 53.35V59.0337C42.7664 59.5966 43.4119 60.0617 43.9955 60.0668L49.9123 60.131C50.4898 60.1371 51.0135 59.6943 51.0135 59.1345L51.0155 53.4894Z" fill="#BFC8D6"/>
<path d="M61.7988 63.8736C61.8031 63.7431 61.7813 63.613 61.7346 63.491C61.6879 63.3691 61.6172 63.2578 61.5268 63.1637C61.4365 63.0696 61.3282 62.9947 61.2084 62.9434C61.0886 62.8921 60.9598 62.8654 60.8295 62.8649L54.8416 62.8191C54.2702 62.8191 53.5568 63.2599 53.5568 63.8166V69.4454C53.5568 70.0032 54.2976 70.4633 54.87 70.4633H60.6956C61.2619 70.4633 61.8028 70.0154 61.8028 69.4617L61.7988 63.8736Z" fill="#BFC8D6"/>
<path d="M72.2665 63.9439C72.2604 63.6775 72.1509 63.4241 71.9614 63.2374C71.7719 63.0507 71.5172 62.9456 71.2516 62.9443L65.6473 62.9036C65.5168 62.902 65.3872 62.9266 65.2664 62.976C65.1455 63.0255 65.0357 63.0987 64.9436 63.1914C64.8514 63.2841 64.7787 63.3944 64.7298 63.5158C64.6809 63.6372 64.6567 63.7672 64.6588 63.8981V69.4719C64.6562 69.6025 64.6797 69.7323 64.728 69.8536C64.7762 69.9749 64.8482 70.0853 64.9397 70.1783C65.0311 70.2713 65.1402 70.3449 65.2606 70.3949C65.3809 70.4449 65.5099 70.4702 65.6402 70.4694H71.2688C71.3997 70.4703 71.5295 70.4454 71.6508 70.3959C71.7721 70.3465 71.8825 70.2735 71.9756 70.1813C72.0688 70.089 72.1428 69.9792 72.1936 69.8582C72.2444 69.7371 72.2709 69.6073 72.2715 69.476L72.2665 63.9439Z" fill="#BFC8D6"/>
<path d="M29.1302 63.668C29.1302 63.098 28.6014 62.6288 28.0006 62.6237L21.9407 62.5748C21.8031 62.5699 21.666 62.5929 21.5375 62.6425C21.4091 62.692 21.2919 62.7671 21.1931 62.8632C21.0944 62.9594 21.016 63.0745 20.9627 63.2018C20.9094 63.3291 20.8824 63.4659 20.8831 63.6039V69.4057C20.8797 69.5433 20.9041 69.6802 20.9549 69.8081C21.0057 69.936 21.0818 70.0522 21.1787 70.1497C21.2755 70.2472 21.3911 70.3241 21.5184 70.3755C21.6457 70.4269 21.7821 70.452 21.9193 70.449L28.0331 70.4551C28.6339 70.4551 29.1302 69.9961 29.1302 69.4261V63.668Z" fill="#BFC8D6"/>
<path d="M40.2312 63.7332C40.2327 63.5986 40.2075 63.465 40.1571 63.3402C40.1068 63.2154 40.0323 63.1019 39.9379 63.0062C39.8435 62.9105 39.7311 62.8345 39.6073 62.7826C39.4834 62.7308 39.3505 62.7041 39.2163 62.7041L33.1523 62.6573C32.5565 62.6573 31.9882 63.1092 31.9882 63.6751V69.419C31.9882 69.9879 32.5798 70.4521 33.1756 70.4521H39.1635C39.44 70.4584 39.7077 70.355 39.9086 70.1644C40.1095 69.9738 40.2272 69.7114 40.2362 69.4342L40.2312 63.7332Z" fill="#BFC8D6"/>
<path d="M51.0155 63.8177C51.0165 63.6834 50.9909 63.5503 50.9403 63.4259C50.8897 63.3016 50.8151 63.1886 50.7208 63.0933C50.6265 62.998 50.5143 62.9224 50.3907 62.8708C50.2671 62.8192 50.1345 62.7927 50.0006 62.7927L43.9843 62.7438C43.3997 62.7438 42.7664 63.1876 42.7664 63.7515V69.4383C42.7664 70.0012 43.4119 70.4561 43.9955 70.4561L49.9123 70.4643C50.4898 70.4643 51.0135 70.0164 51.0135 69.4576L51.0155 63.8177Z" fill="#BFC8D6"/>
<path d="M32.9096 15.3267C29.1169 15.1343 25.9779 18.2306 25.6744 22.7459L28.8784 22.8853C29.1393 20.188 30.8818 18.1919 32.9096 18.2886C35.1018 18.3904 36.9469 20.9483 36.9469 23.8818C36.9469 26.8153 35.0977 29.2164 32.9096 29.133C31.7689 29.0892 30.7174 28.3736 29.9664 27.2855C29.533 27.884 28.7861 29.2622 29.4935 30.9712C30.5065 31.6528 31.6877 32.0403 32.9066 32.0909C36.8647 32.2313 40.0738 28.6159 40.0738 24.0182C40.0738 19.4205 36.8677 15.5272 32.9096 15.3267Z" fill="#BFC8D6"/>
<path d="M52.1928 16.2947C48.531 16.1094 45.5016 19.1538 45.2083 23.5897L48.3007 23.7251C48.5534 21.0786 50.2351 19.1111 52.1928 19.2058C54.3089 19.3075 56.09 21.8156 56.09 24.7022C56.09 27.5889 54.3089 29.9452 52.1928 29.8638C51.0906 29.8221 50.0767 29.1197 49.3511 28.051C48.9329 28.6393 48.2114 29.9941 48.8944 31.6736C49.8706 32.3393 51.0132 32.7176 52.1928 32.7657C56.019 32.9011 59.1124 29.3467 59.1124 24.8264C59.1124 20.3061 56.0149 16.487 52.1928 16.2947Z" fill="#BFC8D6"/>
<path d="M70.8669 17.2525C67.333 17.0733 64.4101 20.0669 64.127 24.4254L67.1108 24.5556C67.3543 21.9509 68.9782 20.0211 70.8659 20.1117C72.9089 20.2134 74.6281 22.6736 74.6281 25.5063C74.6281 28.339 72.9089 30.6587 70.8659 30.5804C69.8033 30.5397 68.8239 29.8506 68.1257 28.8011C67.7197 29.3793 67.0255 30.7107 67.6852 32.3637C68.6228 33.0164 69.7265 33.3875 70.8669 33.4334C74.5611 33.5647 77.546 30.0745 77.546 25.6305C77.546 21.1865 74.5611 17.4398 70.8669 17.2525Z" fill="#BFC8D6"/>
<g style="mix-blend-mode:multiply" opacity="0.3">
<path d="M86.2224 73.5749V75.1078C86.228 76.2262 85.7915 77.3013 85.0083 78.0974C84.2251 78.8936 83.1591 79.3459 82.044 79.3553L21.4799 79.846C18.8574 79.8673 16.7596 77.8683 16.7596 75.3867V26.8051C16.7587 26.1247 16.9234 25.4544 17.2395 24.8524C17.5556 24.2503 18.0134 23.7348 18.5732 23.3505C20.9826 24.2198 24.0841 26.6443 25.6775 33.2156C28.4787 44.7979 30.889 49.7437 41.6916 49.5014C48.5929 49.3437 53.8897 49.6623 57.1902 52.7138C58.9622 54.3495 60.1669 56.7853 60.7423 60.3559C61.0762 62.4476 62.5691 63.781 64.7126 64.7602C66.8063 65.7211 69.5273 66.3389 72.3578 67.0066C77.549 68.225 83.3675 69.6103 86.2224 73.5749Z" fill="#BFC8D6"/>
</g>
<path d="M137.805 64.746C137.664 64.7393 137.528 64.6957 137.41 64.6196C137.292 64.5435 137.196 64.4375 137.132 64.3123L123.168 38.7294H91.4247C91.0015 38.7294 90.6584 38.4536 90.6584 38.0291C90.6584 37.6047 91.0015 37.3278 91.4247 37.3278H123.621C123.756 37.3214 123.89 37.3522 124.009 37.4168C124.127 37.4814 124.226 37.5773 124.294 37.6942L138.475 63.6243C138.54 63.74 138.573 63.8707 138.571 64.0033C138.569 64.136 138.532 64.2657 138.464 64.3793C138.396 64.493 138.299 64.5866 138.183 64.6506C138.067 64.7147 137.937 64.7468 137.805 64.7439V64.746Z" fill="#BFC8D6"/>
<path d="M48.8436 257.07C48.8436 257.07 48.6274 258.792 48.7725 259.368C48.9176 259.945 53.9079 260.362 55.6018 260.161C57.2956 259.961 54.593 258.227 53.5131 257.901C52.4333 257.574 48.8436 257.07 48.8436 257.07Z" fill="url(#paint37_linear_56_1433)"/>
<path d="M51.3504 254.199L50.8247 257.652C50.8247 257.652 49.483 258.257 48.8385 257.659L48.7675 254.045L51.3504 254.199Z" fill="url(#paint38_linear_56_1433)"/>
<path d="M23.2184 254.045C23.2184 254.045 24.2769 254.833 23.9948 255.775C23.7127 256.718 21.2424 260.5 19.4805 261.577C17.7187 262.654 18.2718 260.414 18.7843 259.021C19.2968 257.629 20.6061 254.561 21.1186 254.047C21.6311 253.533 23.2184 254.045 23.2184 254.045Z" fill="url(#paint39_linear_56_1433)"/>
<path d="M25.1233 250.25C24.6159 251.682 24.1186 252.858 23.734 253.725C22.8814 255.645 22.4146 256.366 21.8889 256.99C21.4291 257.534 20.3401 258.695 20.0478 258.501C19.7555 258.308 20.5472 256.894 22.0776 252.761C22.3009 252.162 23.0052 250.25 23.0052 250.25H25.1193H25.1233Z" fill="url(#paint40_linear_56_1433)"/>
<path d="M61.8008 190.459C62.3392 195.761 62.4034 201.1 61.9926 206.413C61.3096 215.24 59.5497 220.826 57.3434 230.238C55.9946 235.99 54.1769 244.456 52.5317 255.042C51.6399 255.558 50.6025 255.762 49.5824 255.623C48.9505 255.527 48.3462 255.297 47.8104 254.948C43.4951 241.723 44.7657 233.528 46.8523 228.421C47.7394 226.245 48.8162 224.528 49.3896 221.182C50.1508 216.757 49.2089 214.282 47.8672 204.029C46.9102 196.721 47.0756 195.591 47.712 194.496C50.2583 190.114 58.0416 190.2 61.8008 190.459Z" fill="url(#paint41_linear_56_1433)"/>
<path d="M88.6378 153.453C88.6378 153.453 89.2467 151.071 90.2515 150.442C91.2562 149.813 92.6872 149.14 93.01 148.864C93.3327 148.588 93.7204 149.414 92.7776 150.046L91.8367 150.677C91.8199 150.814 91.833 150.953 91.8753 151.084C92.0245 151.531 92.533 151.837 93.1612 151.898C95.5746 152.407 96.5175 152.431 96.8859 152.322C96.9397 152.307 97.1497 152.238 97.2391 152.331C97.3801 152.482 97.1254 152.957 97.0168 153.124C96.3632 154.123 94.0969 154.559 92.4 153.776C91.7799 153.491 91.5424 153.184 91.0898 153.261C90.3722 153.383 89.9308 154.334 89.6689 155.121L88.6378 153.453Z" fill="url(#paint42_linear_56_1433)"/>
<path d="M46.9477 191.997C44.3039 205.689 41.7098 212.881 39.7419 216.948C38.3271 219.819 37.1153 222.786 36.1157 225.827C34.7628 229.934 34.1996 232.952 33.9113 234.284C32.9979 238.482 30.7469 244.609 24.6859 252.647C24.6108 252.691 23.5776 253.278 22.5891 252.755C22.2225 252.555 21.9262 252.247 21.7407 251.872C22.5333 244.188 23.4426 237.731 24.2322 232.746C24.3987 231.701 25.1274 227.128 26.2722 221.087C26.7198 218.722 27.3754 215.257 28.1619 211.699C29.1403 207.267 30.6403 201.239 32.9533 194.016L46.9477 191.997Z" fill="url(#paint43_linear_56_1433)"/>
<path d="M90.5843 154.204L88.5261 152.372C88.2744 152.626 84.6056 156.216 79.4773 155.128C75.9464 154.379 73.9095 151.471 72.6044 149.614C68.6859 144.038 71.0293 139.945 66.8103 136.158C65.6391 135.107 63.3404 133.832 61.8373 134.224C58.2568 135.149 56.1955 145.948 59.6604 154.442C60.3596 156.156 64.2112 165.596 72.9474 166.619C80.001 167.436 87.4787 162.456 90.5843 154.204Z" fill="white"/>
<path d="M49.1998 137.84C50.6988 136.45 53.5638 134.848 55.006 131.122C55.4394 130.002 56.9729 126.032 54.7097 122.99C53.367 121.186 50.8723 119.962 48.673 120.396C46.7935 120.766 46.5001 122.078 43.3063 124.72C42.063 125.748 40.0657 127.401 37.842 128.32C34.0321 129.894 31.7435 128.413 27.9194 128.582C23.2204 128.786 17.7623 131.42 15.1316 135.244C10.4631 142.031 17.2254 148.917 12.1133 156.869C10.4377 159.473 9.61262 158.889 5.64437 163.933C1.67611 168.976 -0.313088 171.508 0.040097 174.602C0.530293 178.895 5.14199 182.997 9.48475 183.276C13.727 183.548 16.4226 180.201 18.5823 181.665C20.1199 182.707 19.241 184.734 20.8729 187.169C22.9778 190.309 27.1146 190.935 27.7824 191.037C33.9824 191.976 42.3431 184.684 45.8943 176.045C52.2942 160.465 41.0491 145.396 49.1998 137.84Z" fill="url(#paint44_linear_56_1433)"/>
<path style="mix-blend-mode:multiply" opacity="0.3" d="M46.8524 228.421C47.7394 226.245 48.8162 224.528 49.3896 221.182C50.1508 216.757 49.209 214.282 47.8673 204.029C46.9102 196.721 47.0756 195.591 47.712 194.496C49.0953 192.114 52.0253 191.058 55.0193 190.628C54.9787 190.782 54.9391 190.933 54.9066 191.085C53.3376 198.271 59.3255 202.656 56.6238 210.556C55.2923 214.451 53.1732 215.34 52.6728 219.861C52.209 224.093 53.8907 224.975 53.5314 228.818C52.9945 234.568 48.9218 235.96 47.8622 240.363C47.1731 243.224 47.7536 247.409 52.7834 253.464C52.6992 253.986 52.616 254.509 52.5328 255.041C51.641 255.557 50.6035 255.761 49.5835 255.622C48.9515 255.526 48.3473 255.296 47.8115 254.947C43.4951 241.723 44.7698 233.528 46.8524 228.421Z" fill="url(#paint45_linear_56_1433)"/>
<path style="mix-blend-mode:multiply" opacity="0.15" d="M62.637 144.559C69.0928 149.673 68.3743 159.484 72.3435 159.98C73.5614 160.133 73.4894 159.201 76.3818 158.258C80.6109 156.879 82.5981 158.271 85.5727 157.224C86.8059 156.789 88.4084 155.863 89.9865 153.676L90.5843 154.208C87.4787 162.453 79.9989 167.44 72.9454 166.615C64.2091 165.597 60.3606 156.152 59.6583 154.438C58.0345 150.452 57.6285 145.96 58.0172 142.217C59.6934 142.691 61.2623 143.486 62.637 144.559Z" fill="url(#paint46_linear_56_1433)"/>
<path d="M67.3208 136.804C66.925 136.194 65.6665 134.481 60.3282 133.222C57.6529 132.591 52.7063 131.511 46.3408 132.863C37.5985 134.721 32.1536 139.982 30.1024 142.193C31.7801 143.289 36.4111 146.633 38.7047 152.982C39.4152 154.956 41.5261 161.703 38.5119 168.023C36.7744 171.665 33.7013 174.399 31.367 176.472C27.8666 179.586 26.054 180.066 24.8808 182.856C23.602 185.894 24.8899 187.376 23.3026 189.456C21.5986 191.69 19.6013 190.651 16.7119 192.911C13.7524 195.225 14.8059 197.129 12.1123 199.687C8.19889 203.402 3.01073 202.195 2.76918 203.867C2.56113 205.306 6.24825 207.257 9.38125 208.048C15.5853 209.615 20.9968 206.985 22.6054 206.174C27.0608 203.929 26.2915 202.476 29.6874 200.765C35.3708 197.9 39.2619 201.089 52.2181 201.416C59.2331 201.595 62.7812 201.634 64.7237 199.254C66.4988 197.079 65.5661 194.694 64.5004 184.416C64.1584 180.984 63.4419 173.797 63.4378 169.701C63.4378 167.28 64.2721 163.326 65.9456 155.416C66.0471 154.95 66.9504 150.677 67.6821 144.969C68.3418 139.826 68.2464 138.248 67.3208 136.804Z" fill="white"/>
<g style="mix-blend-mode:multiply" opacity="0.15">
<path d="M12.1144 199.686C14.808 197.128 13.7545 195.224 16.7139 192.91C19.6034 190.65 21.6007 191.689 23.3047 189.455C24.892 187.375 23.6041 185.893 24.8829 182.855C26.0561 180.065 27.8687 179.585 31.3691 176.471C33.7033 174.394 36.7765 171.66 38.514 168.022C41.5282 161.702 39.4203 154.955 38.7068 152.981C36.4131 146.637 31.7821 143.293 30.1045 142.192C30.2659 142.018 30.4567 141.82 30.6597 141.61C41.717 143.137 48.1626 149.541 48.9603 151.438C50.8034 155.823 47.8855 157.435 47.8104 170.084C47.7749 176.129 48.4194 178.516 46.4687 181.04C44.236 183.925 41.6541 183.033 38.4196 186.806C35.9341 189.705 36.3319 191.543 34.0109 192.765C31.5152 194.078 29.9259 192.548 27.1095 193.149C22.4075 194.155 21.4018 199.592 18.2931 202.568C15.9426 204.817 11.5948 206.391 3.02498 204.705C2.822 204.416 2.73066 204.133 2.76922 203.868C3.0128 202.194 8.20096 203.401 12.1144 199.686Z" fill="url(#paint47_linear_56_1433)"/>
</g>
<path d="M60.0075 152.141C60.0075 152.141 47.8906 136.279 41.0055 134.543C42.7274 133.816 44.5138 133.254 46.3409 132.863C51.8112 131.7 56.229 132.335 59.0626 132.937C59.7111 135.026 62.2585 143.869 60.0075 152.141Z" fill="url(#paint48_linear_56_1433)"/>
<path d="M45.606 154.851C46.7813 157.354 41.381 163.184 35.3779 165.953C34.1549 166.517 25.372 170.567 21.4575 166.673C18.2231 163.454 20.3107 156.799 21.0516 154.424C24.7113 142.758 35.9503 136.823 40.6594 134.683C44.175 143.498 42.1046 147.426 41.2897 148.652C40.4392 149.933 38.0633 152.622 35.5403 154.995C33.7652 156.663 32.66 157.474 32.8092 157.735C32.9939 158.058 35.0744 157.447 43.1541 153.503C44.0949 153.654 45.2052 154 45.606 154.851Z" fill="white"/>
<path d="M49.9295 126.009C49.9295 126.009 49.3723 130.481 47.7272 131.506C46.082 132.531 43.422 133.867 43.1287 134.23C42.8353 134.594 53.3213 135.724 58.5176 133.094C56.8044 132.736 56.3396 132.604 56.3396 132.604C55.5727 132.405 54.8333 132.112 54.1383 131.73C53.1761 131.173 52.3496 130.408 51.7188 129.491L51.738 127.016L49.9295 126.009Z" fill="url(#paint49_linear_56_1433)"/>
<path d="M49.6798 127.592C49.6798 127.592 50.7526 129.069 52.4343 128.453C53.9404 127.902 53.0432 124.001 51.8466 123.555C51.4488 123.406 50.7171 123.473 50.2228 123.779C49.8777 123.994 48.9593 125.139 49.486 126.425C49.1054 126.314 48.7756 126.415 48.6873 126.605C48.5858 126.844 48.9024 127.17 48.9755 127.245C49.168 127.432 49.4145 127.553 49.6798 127.592Z" fill="url(#paint50_linear_56_1433)"/>
<path d="M65.5895 140.22L51.2875 141.564C51.1409 141.578 51.0017 141.635 50.8884 141.73C50.775 141.824 50.6927 141.95 50.6522 142.092L45.3148 160.783C45.2823 160.898 45.278 161.018 45.3022 161.135C45.3265 161.251 45.3786 161.36 45.4541 161.452C45.5296 161.543 45.6263 161.615 45.7356 161.661C45.845 161.707 45.9639 161.726 46.0821 161.716L60.5018 160.439C60.6499 160.426 60.7905 160.368 60.905 160.273C61.0194 160.178 61.1021 160.05 61.1422 159.906L66.3618 141.148C66.3935 141.033 66.397 140.913 66.3721 140.796C66.3471 140.68 66.2943 140.572 66.2184 140.481C66.1424 140.39 66.0454 140.318 65.9359 140.273C65.8264 140.228 65.7075 140.21 65.5895 140.22Z" fill="url(#paint51_linear_56_1433)"/>
<path d="M43.5662 154.266C43.5662 154.266 48.4915 149.211 50.4959 148.464C52.5003 147.717 50.7252 153.045 49.551 153.801C48.3768 154.557 47.918 154.84 47.0016 154.955L46.0882 155.07L44.8855 155.713C44.8855 155.713 43.3368 155.527 43.5662 154.266Z" fill="url(#paint52_linear_56_1433)"/>
<path style="mix-blend-mode:multiply" opacity="0.3" d="M56.0697 156.387C56.6096 153.435 54.9472 151.141 56.5396 148.373C58.1787 145.523 61.0549 146.004 63.1212 143.657C63.7789 142.911 64.3695 141.852 64.6598 140.308L65.5895 140.22C65.7075 140.21 65.8263 140.228 65.9359 140.273C66.0454 140.318 66.1424 140.39 66.2183 140.481C66.2943 140.572 66.3471 140.68 66.3721 140.796C66.397 140.913 66.3935 141.033 66.3618 141.148L61.1422 159.904C61.1021 160.048 61.0194 160.176 60.9049 160.271C60.7905 160.366 60.6499 160.424 60.5018 160.437L53.1793 161.086C55.0426 159.41 55.8129 157.797 56.0697 156.387Z" fill="url(#paint53_linear_56_1433)"/>
<path d="M278.953 79.3095C279.544 94.2721 267.876 106.755 252.753 107.199C237.478 107.644 224.492 95.6554 223.889 80.418C223.286 65.1806 235.304 52.6863 250.59 52.5194C265.727 52.3514 278.361 64.3469 278.953 79.3095Z" fill="url(#paint54_linear_56_1433)"/>
<path d="M278.384 79.3207C278.964 93.9708 267.537 106.192 252.731 106.621C237.778 107.053 225.069 95.3225 224.479 80.4027C223.889 65.4829 235.65 53.2604 250.614 53.0934C265.43 52.9265 277.805 64.6706 278.384 79.3207Z" fill="url(#paint55_linear_56_1433)"/>
<path opacity="0.5" d="M275.634 79.3757C276.154 92.5173 265.897 103.471 252.621 103.843C239.224 104.219 227.853 93.699 227.324 80.3457C226.795 66.9924 237.32 56.033 250.723 55.8712C264.008 55.7093 275.113 66.234 275.634 79.3757Z" fill="white"/>
<g style="mix-blend-mode:soft-light" opacity="0.5">
<path d="M255.124 98.6163C253.548 95.6747 253.862 94.206 252.282 83.0868C249.938 66.5404 248.389 63.7739 247.135 62.0415C245.854 60.2714 243.582 57.7889 239.421 55.6595C230.215 60.0363 224.043 69.5075 224.474 80.4027C225.064 95.3174 237.769 107.053 252.726 106.621C255.525 106.544 258.296 106.029 260.937 105.094C258.601 103.413 256.556 101.291 255.124 98.6163Z" fill="white"/>
</g>
<path d="M250.373 63.5225L244.11 65.7862C246.031 67.9716 247.256 70.6068 247.865 73.4436L253.244 71.5025C254.297 71.1188 255.156 70.3327 255.633 69.316C256.11 68.2992 256.166 67.1345 255.79 66.0763C255.407 65.0186 254.623 64.156 253.607 63.6773C252.592 63.1987 251.429 63.143 250.373 63.5225Z" fill="white"/>
<g style="mix-blend-mode:multiply" opacity="0.49">
<path d="M250.926 68.7981C250.255 69.7895 249.008 69.9584 248.116 69.8159C246.075 69.3345 243.447 68.7848 242.064 70.1284C240.413 71.7509 238.556 72.7962 236.233 72.8044C236.261 72.9061 236.291 73.0079 236.327 73.1097C236.71 74.1658 237.493 75.027 238.507 75.5053C239.521 75.9837 240.682 76.0402 241.737 75.6625L253.238 71.5096C254.291 71.1259 255.15 70.3398 255.627 69.3231C256.104 68.3063 256.16 67.1417 255.784 66.0834C255.641 65.6863 255.44 65.313 255.187 64.976C253.479 65.885 252.017 67.1967 250.926 68.7981Z" fill="#D8DEE8"/>
</g>
<path d="M244.11 65.7862L238.877 67.6764C237.825 68.0604 236.966 68.8465 236.489 69.8631C236.012 70.8798 235.956 72.0443 236.332 73.1026C236.715 74.1587 237.498 75.0199 238.512 75.4982C239.526 75.9765 240.687 76.0331 241.742 75.6554L247.868 73.4436C247.256 70.6068 246.026 67.9716 244.11 65.7862Z" fill="url(#paint56_linear_56_1433)"/>
<path style="mix-blend-mode:multiply" opacity="0.3" d="M246.523 69.4729C244.853 69.1757 243.106 69.1136 242.064 70.1254C240.413 71.7478 238.556 72.7932 236.233 72.8013C236.246 72.8481 236.259 72.8939 236.273 72.9408C236.287 72.9876 236.308 73.0487 236.327 73.1026C236.71 74.1586 237.493 75.0199 238.507 75.4982C239.521 75.9765 240.682 76.0331 241.737 75.6554L247.863 73.4436C247.572 72.0722 247.122 70.7397 246.523 69.4729Z" fill="url(#paint57_linear_56_1433)"/>
<path d="M266.113 76.6264L259.537 75.5841C260.171 78.427 259.98 81.329 259.155 84.1098L264.798 85.0035C265.905 85.1756 267.035 84.9013 267.941 84.2404C268.847 83.5796 269.456 82.5859 269.634 81.4766C269.805 80.3656 269.531 79.2318 268.871 78.323C268.212 77.4142 267.22 76.8042 266.113 76.6264Z" fill="white"/>
<g style="mix-blend-mode:multiply" opacity="0.49">
<path d="M264.067 81.5172C263.002 82.0628 261.828 81.6088 261.116 81.05C259.558 79.6434 257.521 77.8947 255.662 78.4036C253.436 79.0286 251.306 79.0489 249.268 77.9343C249.245 78.0361 249.222 78.1379 249.206 78.2397C249.035 79.3501 249.308 80.4833 249.967 81.392C250.626 82.3007 251.617 82.9111 252.723 83.0898L264.8 85.0014C265.907 85.1735 267.037 84.8992 267.943 84.2384C268.849 83.5775 269.458 82.5839 269.636 81.4745C269.701 81.0579 269.704 80.6338 269.644 80.2164C267.707 80.1894 265.793 80.6358 264.067 81.5172Z" fill="#D8DEE8"/>
</g>
<path d="M259.537 75.5842L254.043 74.7139C252.936 74.5421 251.806 74.8166 250.9 75.4776C249.993 76.1386 249.385 77.1324 249.207 78.2418C249.036 79.3522 249.309 80.4854 249.968 81.3941C250.627 82.3028 251.618 82.9132 252.724 83.0919L259.155 84.1098C259.977 81.3249 260.168 78.4271 259.537 75.5842Z" fill="url(#paint58_linear_56_1433)"/>
<path style="mix-blend-mode:multiply" opacity="0.3" d="M259.883 79.9833C258.563 78.9156 257.061 78.0189 255.662 78.4016C253.436 79.0266 251.306 79.0469 249.268 77.9324C249.257 77.9792 249.247 78.026 249.237 78.0738C249.228 78.1217 249.215 78.1848 249.206 78.2418C249.035 79.3521 249.308 80.4854 249.967 81.3941C250.626 82.3028 251.617 82.9131 252.723 83.0919L259.154 84.1098C259.556 82.7673 259.8 81.3825 259.883 79.9833Z" fill="url(#paint59_linear_56_1433)"/>
<path d="M253.401 90.4164C254.001 93.9128 251.003 96.8727 247.458 97.2076C243.851 97.5486 240.376 94.9032 239.755 91.2928C239.134 87.6825 241.763 83.9225 245.39 83.6955C248.954 83.4736 252.8 86.9231 253.401 90.4164Z" fill="url(#paint60_linear_56_1433)"/>
<path d="M253.596 89.5441C254.197 93.0405 251.857 96.1429 248.313 96.4778C244.705 96.8188 241.23 94.1724 240.609 90.562C239.988 86.9516 242.473 83.838 246.1 83.612C249.664 83.3901 252.995 86.0468 253.596 89.5441Z" fill="white"/>
<g style="mix-blend-mode:multiply" opacity="0.3">
<path d="M247.685 95.9363C246.139 95.9231 244.647 95.3694 243.465 94.3708C242.26 93.3848 241.445 91.9999 241.167 90.4653C240.896 88.8896 241.261 87.3689 242.196 86.1842C243.131 84.9994 244.53 84.2818 246.133 84.182C246.259 84.1739 246.388 84.1698 246.514 84.1698C249.641 84.1698 252.502 86.573 253.032 89.6408C253.297 91.1808 252.947 92.6781 252.047 93.8588C251.146 95.0396 249.804 95.7633 248.256 95.9098C248.068 95.9271 247.875 95.9363 247.685 95.9363Z" fill="#D8DEE8"/>
</g>
<path d="M246.284 84.6838C246.209 84.6868 246.135 84.7061 246.068 84.7403C246.001 84.7745 245.942 84.8229 245.896 84.882C245.849 84.9412 245.816 85.0098 245.798 85.0831C245.78 85.1564 245.778 85.2327 245.793 85.3067L247.408 94.6955C247.437 94.8538 247.524 94.9956 247.651 95.0936C247.779 95.1917 247.938 95.2391 248.098 95.2268C248.173 95.2213 248.246 95.1998 248.313 95.1638C248.379 95.1278 248.438 95.078 248.484 95.0178C248.529 94.9576 248.562 94.8883 248.579 94.8145C248.597 94.7407 248.598 94.6641 248.584 94.5896L246.974 85.2253C246.943 85.0671 246.856 84.9253 246.729 84.8259C246.603 84.7265 246.445 84.6761 246.284 84.6838Z" fill="#D8DEE8"/>
<g style="mix-blend-mode:multiply" opacity="0.3">
<path d="M248.584 94.5887L246.974 85.2243C246.944 85.0655 246.857 84.9231 246.73 84.8231C246.604 84.723 246.445 84.6722 246.284 84.6798C246.179 84.6846 246.078 84.7199 245.993 84.7815C246.012 84.7782 246.031 84.7758 246.051 84.7744C246.212 84.7669 246.37 84.8179 246.497 84.9181C246.624 85.0183 246.71 85.161 246.741 85.32L248.35 94.6843C248.37 94.7832 248.361 94.8856 248.325 94.9797C248.289 95.0738 248.228 95.156 248.147 95.2167C248.218 95.2049 248.285 95.1792 248.345 95.1411C248.405 95.103 248.457 95.0532 248.497 94.9947C248.538 94.9362 248.567 94.8702 248.581 94.8004C248.596 94.7307 248.597 94.6587 248.584 94.5887Z" fill="#D8DEE8"/>
</g>
<defs>
<linearGradient id="paint0_linear_56_1433" x1="45.4274" y1="61.7789" x2="94.6396" y2="125.407" gradientUnits="userSpaceOnUse">
<stop stop-color="#AA80F9"/>
<stop offset="1" stop-color="#6165D7"/>
</linearGradient>
<linearGradient id="paint1_linear_56_1433" x1="2.70423" y1="166.972" x2="122.302" y2="166.972" gradientUnits="userSpaceOnUse">
<stop stop-color="#FF9085"/>
<stop offset="1" stop-color="#FB6FBB"/>
</linearGradient>
<linearGradient id="paint2_linear_56_1433" x1="109.736" y1="110.043" x2="223.948" y2="110.043" gradientUnits="userSpaceOnUse">
<stop stop-color="#E38DDD"/>
<stop offset="1" stop-color="#9571F6"/>
</linearGradient>
<linearGradient id="paint3_linear_56_1433" x1="103.75" y1="196.045" x2="208.562" y2="196.045" gradientUnits="userSpaceOnUse">
<stop stop-color="#E38DDD"/>
<stop offset="1" stop-color="#9571F6"/>
</linearGradient>
<linearGradient id="paint4_linear_56_1433" x1="98.6954" y1="239.017" x2="203.002" y2="239.017" gradientUnits="userSpaceOnUse">
<stop stop-color="#E38DDD"/>
<stop offset="1" stop-color="#9571F6"/>
</linearGradient>
<linearGradient id="paint5_linear_56_1433" x1="169.089" y1="150.154" x2="210.274" y2="154.634" gradientUnits="userSpaceOnUse">
<stop stop-color="#444B8C"/>
<stop offset="1" stop-color="#26264F"/>
</linearGradient>
<linearGradient id="paint6_linear_56_1433" x1="132.803" y1="46.0427" x2="235.184" y2="393.573" gradientUnits="userSpaceOnUse">
<stop stop-color="#444B8C"/>
<stop offset="1" stop-color="#26264F"/>
</linearGradient>
<linearGradient id="paint7_linear_56_1433" x1="93.8462" y1="159.439" x2="231.219" y2="159.439" gradientUnits="userSpaceOnUse">
<stop stop-color="#E38DDD"/>
<stop offset="1" stop-color="#9571F6"/>
</linearGradient>
<linearGradient id="paint8_linear_56_1433" x1="170.962" y1="37.4784" x2="291.258" y2="362.332" gradientUnits="userSpaceOnUse">
<stop stop-color="#FFC444"/>
<stop offset="1" stop-color="#F36F56"/>
</linearGradient>
<linearGradient id="paint9_linear_56_1433" x1="122.912" y1="63.1428" x2="255.412" y2="232.077" gradientUnits="userSpaceOnUse">
<stop stop-color="#E38DDD"/>
<stop offset="1" stop-color="#9571F6"/>
</linearGradient>
<linearGradient id="paint10_linear_56_1433" x1="127.275" y1="59.7207" x2="259.775" y2="228.655" gradientUnits="userSpaceOnUse">
<stop stop-color="#E38DDD"/>
<stop offset="1" stop-color="#9571F6"/>
</linearGradient>
<linearGradient id="paint11_linear_56_1433" x1="131.345" y1="56.5277" x2="263.845" y2="225.462" gradientUnits="userSpaceOnUse">
<stop stop-color="#E38DDD"/>
<stop offset="1" stop-color="#9571F6"/>
</linearGradient>
<linearGradient id="paint12_linear_56_1433" x1="134.889" y1="53.748" x2="267.39" y2="222.682" gradientUnits="userSpaceOnUse">
<stop stop-color="#E38DDD"/>
<stop offset="1" stop-color="#9571F6"/>
</linearGradient>
<linearGradient id="paint13_linear_56_1433" x1="138.375" y1="51.014" x2="270.876" y2="219.948" gradientUnits="userSpaceOnUse">
<stop stop-color="#E38DDD"/>
<stop offset="1" stop-color="#9571F6"/>
</linearGradient>
<linearGradient id="paint14_linear_56_1433" x1="143.016" y1="47.373" x2="275.517" y2="216.309" gradientUnits="userSpaceOnUse">
<stop stop-color="#E38DDD"/>
<stop offset="1" stop-color="#9571F6"/>
</linearGradient>
<linearGradient id="paint15_linear_56_1433" x1="105.839" y1="76.5328" x2="238.34" y2="245.467" gradientUnits="userSpaceOnUse">
<stop stop-color="#E38DDD"/>
<stop offset="1" stop-color="#9571F6"/>
</linearGradient>
<linearGradient id="paint16_linear_56_1433" x1="94.575" y1="85.3678" x2="227.076" y2="254.302" gradientUnits="userSpaceOnUse">
<stop stop-color="#E38DDD"/>
<stop offset="1" stop-color="#9571F6"/>
</linearGradient>
<linearGradient id="paint17_linear_56_1433" x1="106.116" y1="76.315" x2="238.618" y2="245.249" gradientUnits="userSpaceOnUse">
<stop stop-color="#E38DDD"/>
<stop offset="1" stop-color="#9571F6"/>
</linearGradient>
<linearGradient id="paint18_linear_56_1433" x1="106.858" y1="75.7338" x2="239.359" y2="244.669" gradientUnits="userSpaceOnUse">
<stop stop-color="#E38DDD"/>
<stop offset="1" stop-color="#9571F6"/>
</linearGradient>
<linearGradient id="paint19_linear_56_1433" x1="118.578" y1="66.5405" x2="251.079" y2="235.476" gradientUnits="userSpaceOnUse">
<stop stop-color="#E38DDD"/>
<stop offset="1" stop-color="#9571F6"/>
</linearGradient>
<linearGradient id="paint20_linear_56_1433" x1="124.158" y1="62.1646" x2="256.659" y2="231.099" gradientUnits="userSpaceOnUse">
<stop stop-color="#E38DDD"/>
<stop offset="1" stop-color="#9571F6"/>
</linearGradient>
<linearGradient id="paint21_linear_56_1433" x1="129.505" y1="57.97" x2="262.007" y2="226.905" gradientUnits="userSpaceOnUse">
<stop stop-color="#E38DDD"/>
<stop offset="1" stop-color="#9571F6"/>
</linearGradient>
<linearGradient id="paint22_linear_56_1433" x1="144.187" y1="46.4549" x2="276.688" y2="215.39" gradientUnits="userSpaceOnUse">
<stop stop-color="#E38DDD"/>
<stop offset="1" stop-color="#9571F6"/>
</linearGradient>
<linearGradient id="paint23_linear_56_1433" x1="167.156" y1="28.4388" x2="299.659" y2="197.374" gradientUnits="userSpaceOnUse">
<stop stop-color="#E38DDD"/>
<stop offset="1" stop-color="#9571F6"/>
</linearGradient>
<linearGradient id="paint24_linear_56_1433" x1="133.992" y1="137.301" x2="230.94" y2="268.626" gradientUnits="userSpaceOnUse">
<stop stop-color="#E38DDD"/>
<stop offset="1" stop-color="#9571F6"/>
</linearGradient>
<linearGradient id="paint25_linear_56_1433" x1="138.979" y1="133.62" x2="235.927" y2="264.944" gradientUnits="userSpaceOnUse">
<stop stop-color="#E38DDD"/>
<stop offset="1" stop-color="#9571F6"/>
</linearGradient>
<linearGradient id="paint26_linear_56_1433" x1="145.258" y1="128.984" x2="242.205" y2="260.309" gradientUnits="userSpaceOnUse">
<stop stop-color="#E38DDD"/>
<stop offset="1" stop-color="#9571F6"/>
</linearGradient>
<linearGradient id="paint27_linear_56_1433" x1="123.062" y1="181.586" x2="176.293" y2="256.327" gradientUnits="userSpaceOnUse">
<stop stop-color="#E38DDD"/>
<stop offset="1" stop-color="#9571F6"/>
</linearGradient>
<linearGradient id="paint28_linear_56_1433" x1="126.533" y1="179.114" x2="179.764" y2="253.855" gradientUnits="userSpaceOnUse">
<stop stop-color="#E38DDD"/>
<stop offset="1" stop-color="#9571F6"/>
</linearGradient>
<linearGradient id="paint29_linear_56_1433" x1="131.774" y1="175.381" x2="185.005" y2="250.121" gradientUnits="userSpaceOnUse">
<stop stop-color="#E38DDD"/>
<stop offset="1" stop-color="#9571F6"/>
</linearGradient>
<linearGradient id="paint30_linear_56_1433" x1="138.058" y1="170.906" x2="191.289" y2="245.646" gradientUnits="userSpaceOnUse">
<stop stop-color="#E38DDD"/>
<stop offset="1" stop-color="#9571F6"/>
</linearGradient>
<linearGradient id="paint31_linear_56_1433" x1="106.74" y1="157.419" x2="203.687" y2="288.745" gradientUnits="userSpaceOnUse">
<stop stop-color="#E38DDD"/>
<stop offset="1" stop-color="#9571F6"/>
</linearGradient>
<linearGradient id="paint32_linear_56_1433" x1="97.3223" y1="164.371" x2="194.271" y2="295.696" gradientUnits="userSpaceOnUse">
<stop stop-color="#E38DDD"/>
<stop offset="1" stop-color="#9571F6"/>
</linearGradient>
<linearGradient id="paint33_linear_56_1433" x1="100.291" y1="197.804" x2="153.522" y2="272.545" gradientUnits="userSpaceOnUse">
<stop stop-color="#E38DDD"/>
<stop offset="1" stop-color="#9571F6"/>
</linearGradient>
<linearGradient id="paint34_linear_56_1433" x1="90.9741" y1="204.439" x2="144.206" y2="279.18" gradientUnits="userSpaceOnUse">
<stop stop-color="#E38DDD"/>
<stop offset="1" stop-color="#9571F6"/>
</linearGradient>
<linearGradient id="paint35_linear_56_1433" x1="15.1743" y1="51.1788" x2="84.9537" y2="51.1788" gradientUnits="userSpaceOnUse">
<stop stop-color="#311944"/>
<stop offset="1" stop-color="#893976"/>
</linearGradient>
<linearGradient id="paint36_linear_56_1433" x1="16.7596" y1="30.273" x2="86.2223" y2="30.273" gradientUnits="userSpaceOnUse">
<stop stop-color="#FF9085"/>
<stop offset="1" stop-color="#FB6FBB"/>
</linearGradient>
<linearGradient id="paint37_linear_56_1433" x1="53.1599" y1="245.998" x2="51.4246" y2="277.137" gradientUnits="userSpaceOnUse">
<stop stop-color="#444B8C"/>
<stop offset="1" stop-color="#26264F"/>
</linearGradient>
<linearGradient id="paint38_linear_56_1433" x1="49.9022" y1="261.344" x2="50.824" y2="219.299" gradientUnits="userSpaceOnUse">
<stop stop-color="#FFC444"/>
<stop offset="1" stop-color="#F36F56"/>
</linearGradient>
<linearGradient id="paint39_linear_56_1433" x1="21.9386" y1="244.258" x2="20.2042" y2="275.397" gradientUnits="userSpaceOnUse">
<stop stop-color="#444B8C"/>
<stop offset="1" stop-color="#26264F"/>
</linearGradient>
<linearGradient id="paint40_linear_56_1433" x1="22.4146" y1="260.741" x2="23.3364" y2="218.698" gradientUnits="userSpaceOnUse">
<stop stop-color="#FFC444"/>
<stop offset="1" stop-color="#F36F56"/>
</linearGradient>
<linearGradient id="paint41_linear_56_1433" x1="63.2115" y1="234.018" x2="45.7366" y2="210.632" gradientUnits="userSpaceOnUse">
<stop stop-color="#444B8C"/>
<stop offset="1" stop-color="#26264F"/>
</linearGradient>
<linearGradient id="paint42_linear_56_1433" x1="94.2538" y1="150.944" x2="80.6449" y2="187.709" gradientUnits="userSpaceOnUse">
<stop stop-color="#FFC444"/>
<stop offset="1" stop-color="#F36F56"/>
</linearGradient>
<linearGradient id="paint43_linear_56_1433" x1="50.2786" y1="236.926" x2="9.39142" y2="198.906" gradientUnits="userSpaceOnUse">
<stop stop-color="#444B8C"/>
<stop offset="1" stop-color="#26264F"/>
</linearGradient>
<linearGradient id="paint44_linear_56_1433" x1="21.7904" y1="168.646" x2="33.9117" y2="151.525" gradientUnits="userSpaceOnUse">
<stop stop-color="#444B8C"/>
<stop offset="1" stop-color="#26264F"/>
</linearGradient>
<linearGradient id="paint45_linear_56_1433" x1="60.9909" y1="235.677" x2="43.515" y2="212.291" gradientUnits="userSpaceOnUse">
<stop stop-color="#444B8C"/>
<stop offset="1" stop-color="#26264F"/>
</linearGradient>
<linearGradient id="paint46_linear_56_1433" x1="90.5843" y1="154.46" x2="57.8782" y2="154.46" gradientUnits="userSpaceOnUse">
<stop stop-color="#AA80F9"/>
<stop offset="1" stop-color="#6165D7"/>
</linearGradient>
<linearGradient id="paint47_linear_56_1433" x1="34.8207" y1="132.307" x2="24.7987" y2="193.422" gradientUnits="userSpaceOnUse">
<stop stop-color="#AA80F9"/>
<stop offset="1" stop-color="#6165D7"/>
</linearGradient>
<linearGradient id="paint48_linear_56_1433" x1="51.5534" y1="137.315" x2="34.7724" y2="239.643" gradientUnits="userSpaceOnUse">
<stop stop-color="#AA80F9"/>
<stop offset="1" stop-color="#6165D7"/>
</linearGradient>
<linearGradient id="paint49_linear_56_1433" x1="51.3869" y1="134.496" x2="40.6923" y2="119.017" gradientUnits="userSpaceOnUse">
<stop stop-color="#FFC444"/>
<stop offset="1" stop-color="#F36F56"/>
</linearGradient>
<linearGradient id="paint50_linear_56_1433" x1="52.3521" y1="126.63" x2="35.4888" y2="116.507" gradientUnits="userSpaceOnUse">
<stop stop-color="#FFC444"/>
<stop offset="1" stop-color="#F36F56"/>
</linearGradient>
<linearGradient id="paint51_linear_56_1433" x1="60.2572" y1="189.872" x2="58.1922" y2="171.802" gradientUnits="userSpaceOnUse">
<stop stop-color="#FF9085"/>
<stop offset="1" stop-color="#FB6FBB"/>
</linearGradient>
<linearGradient id="paint52_linear_56_1433" x1="47.7445" y1="150.336" x2="40.4446" y2="194.854" gradientUnits="userSpaceOnUse">
<stop stop-color="#FFC444"/>
<stop offset="1" stop-color="#F36F56"/>
</linearGradient>
<linearGradient id="paint53_linear_56_1433" x1="64.1503" y1="189.427" x2="62.0853" y2="171.357" gradientUnits="userSpaceOnUse">
<stop stop-color="#FF9085"/>
<stop offset="1" stop-color="#FB6FBB"/>
</linearGradient>
<linearGradient id="paint54_linear_56_1433" x1="255.983" y1="75.1419" x2="259.37" y2="71.6611" gradientUnits="userSpaceOnUse">
<stop stop-color="#FF9085"/>
<stop offset="1" stop-color="#FB6FBB"/>
</linearGradient>
<linearGradient id="paint55_linear_56_1433" x1="244.358" y1="53.8852" x2="258.589" y2="105.814" gradientUnits="userSpaceOnUse">
<stop stop-color="#FF9085"/>
<stop offset="1" stop-color="#FB6FBB"/>
</linearGradient>
<linearGradient id="paint56_linear_56_1433" x1="232.744" y1="66.7717" x2="255.705" y2="77.1468" gradientUnits="userSpaceOnUse">
<stop stop-color="#AA80F9"/>
<stop offset="1" stop-color="#6165D7"/>
</linearGradient>
<linearGradient id="paint57_linear_56_1433" x1="236.847" y1="74.6024" x2="247.113" y2="70.9171" gradientUnits="userSpaceOnUse">
<stop stop-color="#FF9085"/>
<stop offset="1" stop-color="#FB6FBB"/>
</linearGradient>
<linearGradient id="paint58_linear_56_1433" x1="249.121" y1="70.928" x2="264.281" y2="91.0965" gradientUnits="userSpaceOnUse">
<stop stop-color="#FF9085"/>
<stop offset="1" stop-color="#FB6FBB"/>
</linearGradient>
<linearGradient id="paint59_linear_56_1433" x1="248.96" y1="79.7717" x2="259.732" y2="81.4671" gradientUnits="userSpaceOnUse">
<stop stop-color="#FF9085"/>
<stop offset="1" stop-color="#FB6FBB"/>
</linearGradient>
<linearGradient id="paint60_linear_56_1433" x1="239.665" y1="90.4612" x2="253.478" y2="90.4612" gradientUnits="userSpaceOnUse">
<stop stop-color="#D8DEE8"/>
<stop offset="1" stop-color="#97A6B7"/>
</linearGradient>
</defs>
</svg>
