<svg width="44" height="46" viewBox="0 0 44 46" fill="none" xmlns="http://www.w3.org/2000/svg">
<path d="M37.6386 37.6386C41.1519 37.6386 44 34.7905 44 31.2772C44 27.7638 41.1519 24.9157 37.6386 24.9157C34.1252 24.9157 31.2771 27.7638 31.2771 31.2772C31.2771 34.7905 34.1252 37.6386 37.6386 37.6386Z" fill="white"/>
<path d="M22.7952 0C23.217 0 23.6215 0.167556 23.9197 0.465806C24.218 0.764057 24.3855 1.16857 24.3855 1.59036V2.1226C26.3597 2.14118 28.2563 2.89347 29.7065 4.2331C31.1567 5.57274 32.0566 7.40392 32.2313 9.37041C32.261 9.72241 32.261 10.1211 32.261 10.7042V13.2954C32.2613 15.3741 31.8521 17.4324 31.0568 19.3529C30.2616 21.2734 29.0958 23.0184 27.6261 24.4884C26.1563 25.9583 24.4115 27.1243 22.4911 27.9198C20.5707 28.7154 18.5124 29.1248 16.4337 29.1248C12.0752 29.1248 7.89525 27.3934 4.81333 24.3115C1.73141 21.2296 0 17.0496 0 12.6911V10.7042C0 10.1211 -2.96228e-08 9.72241 0.0318072 9.37253C0.196299 7.51292 1.00983 5.77047 2.32991 4.45039C3.64999 3.13032 5.39244 2.31678 7.25205 2.15229C7.66138 2.1244 8.0717 2.11379 8.48193 2.12048V1.59036C8.48193 1.16857 8.64948 0.764057 8.94774 0.465806C9.24599 0.167556 9.6505 0 10.0723 0C10.4941 0 10.8986 0.167556 11.1968 0.465806C11.4951 0.764057 11.6627 1.16857 11.6627 1.59036V5.83133C11.6627 6.25312 11.4951 6.65763 11.1968 6.95588C10.8986 7.25413 10.4941 7.42169 10.0723 7.42169C9.6505 7.42169 9.24599 7.25413 8.94774 6.95588C8.64948 6.65763 8.48193 6.25312 8.48193 5.83133V5.30121C7.92424 5.30121 7.70583 5.30333 7.53195 5.32029C6.41619 5.41899 5.37072 5.90711 4.57867 6.69915C3.78662 7.4912 3.2985 8.53667 3.19981 9.65244C3.18284 9.84328 3.18072 10.0893 3.18072 10.7869V12.6911C3.18072 16.206 4.57702 19.577 7.06244 22.0624C9.54786 24.5478 12.9188 25.9441 16.4337 25.9441C18.0945 25.9441 19.739 25.617 21.2734 24.9814C22.8077 24.3459 24.2019 23.4144 25.3762 22.24C26.5505 21.0657 27.4821 19.6715 28.1176 18.1372C28.7532 16.6028 29.0803 14.9583 29.0803 13.2975V10.7869C29.0803 10.0893 29.0803 9.84328 29.0633 9.65244C28.9587 8.47788 28.4227 7.3837 27.5589 6.58097C26.6951 5.77825 25.5646 5.32385 24.3855 5.30545V5.83133C24.3855 6.25312 24.218 6.65763 23.9197 6.95588C23.6215 7.25413 23.217 7.42169 22.7952 7.42169C22.3734 7.42169 21.9689 7.25413 21.6706 6.95588C21.3724 6.65763 21.2048 6.25312 21.2048 5.83133V1.59036C21.2048 1.16857 21.3724 0.764057 21.6706 0.465806C21.9689 0.167556 22.3734 0 22.7952 0Z" fill="white"/>
<path d="M14.8434 29.0505V33.3975C14.8434 36.6312 16.128 39.7325 18.4146 42.0191C20.7012 44.3057 23.8025 45.5903 27.0362 45.5903H28.9065C30.7286 45.5909 32.5185 45.1089 34.0939 44.1934C35.6694 43.2779 36.9744 41.9616 37.8761 40.3782C38.3999 39.4621 38.6607 38.4782 38.7879 37.5367C37.7254 37.7303 36.6311 37.6515 35.6072 37.3077C35.5346 37.8316 35.3679 38.338 35.1152 38.8026C34.4913 39.8988 33.5881 40.8101 32.4975 41.4437C31.4068 42.0773 30.1678 42.4106 28.9065 42.4096H27.0362C24.6461 42.4096 22.3538 41.4601 20.6637 39.77C18.9736 38.0799 18.0242 35.7877 18.0242 33.3975V29.0463C16.9667 29.1536 15.9012 29.155 14.8434 29.0505Z" fill="white"/>
</svg>
