<svg width="36" height="36" viewBox="0 0 36 36" fill="none" xmlns="http://www.w3.org/2000/svg">
<path d="M27.45 8.56503C26.865 7.98003 25.92 7.98003 25.335 8.56503L18 15.885L10.665 8.55003C10.08 7.96503 9.13503 7.96503 8.55003 8.55003C7.96503 9.13503 7.96503 10.08 8.55003 10.665L15.885 18L8.55003 25.335C7.96503 25.92 7.96503 26.865 8.55003 27.45C9.13503 28.035 10.08 28.035 10.665 27.45L18 20.115L25.335 27.45C25.92 28.035 26.865 28.035 27.45 27.45C28.035 26.865 28.035 25.92 27.45 25.335L20.115 18L27.45 10.665C28.02 10.095 28.02 9.13503 27.45 8.56503Z" fill="white"/>
</svg>
