<svg width="308" height="291" viewBox="0 0 308 291" fill="none" xmlns="http://www.w3.org/2000/svg">
<path d="M280.559 177.272C280.415 174.696 280.053 172.037 278.693 169.844C276.793 166.783 273.315 165.143 270.582 162.799C263.523 156.744 261.924 146.317 263.168 137.098C264.411 127.88 267.951 119.099 269.318 109.895C270.684 100.69 269.393 90.2828 262.58 83.9277C257.113 78.83 249.091 77.3813 241.629 77.8597C234.167 78.338 226.923 80.5042 219.543 81.6864C205.551 83.8421 191.241 82.468 177.914 77.6888C165.382 73.2335 156.649 63.5779 144.936 58.4597C127.894 51.0044 105.856 57.9335 96.139 73.7938C84.6384 92.5515 89.3056 120.083 72.5433 134.358C66.3044 139.675 57.9882 142.121 51.8723 147.574C40.7612 157.489 39.8045 175.222 45.6061 188.943C51.4076 202.665 62.5255 213.297 73.3565 223.527L174.491 246.275C198.408 249.48 223.794 247.642 244.916 235.95C266.038 224.258 281.905 201.373 280.559 177.272Z" fill="#9C6AFF" fill-opacity="0.24"/>
<path d="M189.961 70.8418C195.326 72.7346 201.114 73.1719 206.792 72.8918C209.279 72.7619 211.842 72.4749 214.015 71.2586C216.188 70.0423 217.883 67.6642 217.616 65.1905C217.35 62.7169 215.279 60.8172 213.14 59.553C208.432 56.765 202.89 55.8493 197.478 55.0771C192.175 54.3118 181.447 52.7264 179.103 59.5325C177.06 65.4707 185.629 69.3179 189.961 70.8418Z" fill="#E7DBFF"/>
<path d="M273.09 139.531C274.32 137.665 276.055 135.902 278.269 135.615C279.237 135.505 280.216 135.681 281.085 136.122C281.953 136.563 282.673 137.25 283.155 138.096C283.74 139.324 283.999 140.682 283.907 142.039C283.839 146.289 281.064 154.448 275.379 153.512C268.853 152.432 270.609 143.31 273.09 139.531Z" fill="#E7EAE2"/>
<path d="M60.2637 129.288C57.3868 131.379 53.3346 132.923 50.4031 130.907C47.4716 128.891 47.4716 124.662 48.3531 121.252C49.9999 114.623 60.8445 95.4215 69.6459 103.485C77.518 110.749 66.2976 124.914 60.2637 129.288Z" fill="#E7DBFF"/>
<path d="M69.6664 181.017C69.6664 191.267 76.698 215.327 79.3835 224.142C79.6943 224.072 80.0191 224.101 80.3128 224.224C81.8367 224.832 83.5587 231.324 83.5587 231.324V210.325C80.3128 196.433 69.6664 181.017 69.6664 181.017Z" fill="#5E9DA6"/>
<path d="M73.6517 192.47L72.9832 192.69L80.9953 217.03L81.6639 216.81L73.6517 192.47Z" fill="white"/>
<path d="M44.6631 221.375C54.1273 251.633 83.5587 248.783 83.5587 248.783V240.898C79.0965 234.638 44.6631 221.375 44.6631 221.375Z" fill="#5E9DA6"/>
<path d="M75.6388 242.633C63.4822 238.998 49.9248 226.718 49.7949 226.595L50.2664 226.076C50.4031 226.192 63.8375 238.376 75.8438 241.957L75.6388 242.633Z" fill="white"/>
<path d="M62.997 240.119V239.435C64.5406 239.414 66.0662 239.101 67.4934 238.513L67.7599 239.162C66.2473 239.78 64.631 240.104 62.997 240.119Z" fill="white"/>
<path d="M63.8512 237.009C63.6545 235.962 63.529 234.903 63.4754 233.839L64.1587 233.804C64.2145 234.836 64.3355 235.863 64.5209 236.88L63.8512 237.009Z" fill="white"/>
<path d="M58.3131 234.938L58.2849 235.641L61.7876 235.782L61.8158 235.078L58.3131 234.938Z" fill="white"/>
<path d="M58.3845 233.21C58.3517 232.415 58.2672 231.623 58.1317 230.839L58.815 230.723C58.9529 231.536 59.0396 232.358 59.0747 233.183L58.3845 233.21Z" fill="white"/>
<path d="M53.8266 232.445L53.69 231.761C54.6876 231.563 55.74 231.413 56.724 231.31L56.7923 231.994C55.7946 232.103 54.797 232.253 53.8266 232.445Z" fill="white"/>
<path d="M53.3141 229.718C53.1301 228.974 52.9932 228.218 52.9041 227.456L53.5875 227.374C53.6696 228.109 53.7997 228.837 53.977 229.554L53.3141 229.718Z" fill="white"/>
<path d="M50.8678 228.857L50.4236 228.317C50.802 228.001 51.2258 227.743 51.681 227.552L51.9543 228.201C51.5617 228.365 51.1956 228.586 50.8678 228.857Z" fill="white"/>
<path d="M81.454 246.515C76.8633 245.714 72.6727 243.4 69.5503 239.941C69.1738 239.565 68.8825 239.113 68.6961 238.615C68.6066 238.366 68.5893 238.096 68.6461 237.838C68.703 237.579 68.8316 237.342 69.0173 237.153C69.2759 236.959 69.5789 236.832 69.8988 236.784C70.887 236.56 71.8994 236.461 72.9123 236.49C69.6564 234.703 66.6967 232.424 64.1382 229.732C63.4455 229.053 62.8888 228.248 62.4982 227.361C62.3861 227.115 62.3236 226.85 62.3142 226.58C62.3048 226.31 62.3488 226.042 62.4435 225.789C62.5805 225.535 62.7758 225.317 63.0134 225.153C63.251 224.989 63.5241 224.884 63.8102 224.846C64.3693 224.757 64.939 224.757 65.4981 224.846C62.0168 221.485 59.0572 217.622 56.7172 213.386C56.2047 212.443 55.74 211.241 56.3687 210.373C56.9973 209.505 58.3435 209.594 59.4164 209.785C59.4164 209.785 47.1162 192.449 49.3166 189.1C51.517 185.752 62.9014 206.751 62.9014 206.751C62.9014 206.751 62.8057 202.084 64.7327 202.391C66.6597 202.699 72.4408 217.616 72.4408 217.616C72.4408 217.616 72.3383 214.152 74.1628 214.883C75.9873 215.614 77.6752 225.55 77.6752 225.55C77.6752 225.55 78.7958 223.623 80.3129 224.231C81.8299 224.839 83.5587 231.331 83.5587 231.331V246.521L81.454 246.515Z" fill="#77DBD3"/>
<path d="M82.1579 241.362C74.033 229.65 62.6895 211.883 62.5734 211.733L63.1679 211.357C63.2772 211.534 74.6138 229.233 82.7319 240.959L82.1579 241.362Z" fill="white"/>
<path d="M78.3583 231.58L77.6545 231.581L77.6614 234.636L78.3652 234.634L78.3583 231.58Z" fill="white"/>
<path d="M80.183 238.28C78.8075 238.169 77.4523 237.879 76.1513 237.419L76.3837 236.736C77.6268 237.18 78.9223 237.46 80.2377 237.57L80.183 238.28Z" fill="white"/>
<path d="M75.7413 231.495C74.5386 231.495 73.3291 231.447 72.1333 231.358L72.188 230.675C73.3633 230.764 74.5591 230.805 75.7413 230.811V231.495Z" fill="white"/>
<path d="M73.418 227.169L72.7346 227.06C72.8717 226.155 72.8901 225.236 72.7893 224.327L73.4726 224.251C73.5837 225.222 73.5653 226.203 73.418 227.169Z" fill="white"/>
<path d="M67.7016 222.505L67.5421 223.19L70.6569 223.915L70.8164 223.229L67.7016 222.505Z" fill="white"/>
<path d="M68.8341 217.092L68.1328 217.153L68.4294 220.584L69.1306 220.523L68.8341 217.092Z" fill="white"/>
<path d="M63.5528 216.022L63.4763 216.722L66.1595 217.015L66.236 216.315L63.5528 216.022Z" fill="white"/>
<path d="M64.7464 213.783L64.1109 213.482C64.4725 212.711 64.7608 211.908 64.9719 211.083L65.6552 211.254C65.4343 212.124 65.13 212.971 64.7464 213.783Z" fill="white"/>
<path d="M230.647 247.335L230.06 246.651C230.149 246.569 239.155 238.602 238.943 219.017C238.752 201.517 243.303 180.067 243.351 179.841L244.232 180.033C244.191 180.244 239.661 201.606 239.852 218.983C240.064 239.053 231.03 247.007 230.647 247.335Z" fill="#5E718C"/>
<path d="M237.337 234.577C237.337 234.577 230.839 227.784 232.786 223.288C234.734 218.792 237.337 234.577 237.337 234.577Z" fill="#5E9DA6"/>
<path d="M239.087 225.816C239.087 225.652 244.246 217.848 246.214 220.315C248.182 222.782 239.087 225.816 239.087 225.816Z" fill="#5E9DA6"/>
<path d="M239.408 216.14C239.408 216.14 234.577 213.899 235.055 210.571C235.533 207.243 238.41 210.079 239.408 216.14Z" fill="#77DBD3"/>
<path d="M239.784 208.145C239.784 207.749 243.132 201.599 245.585 203.526C248.038 205.453 239.784 208.145 239.784 208.145Z" fill="#77DBD3"/>
<path d="M240.583 199.904C240.583 199.904 236.306 199.159 236.811 196.337C237.317 193.515 240.583 199.904 240.583 199.904Z" fill="#5E9DA6"/>
<path d="M241.56 192.579C241.56 192.579 244.417 187.843 246.296 189.845C248.175 191.847 241.56 192.579 241.56 192.579Z" fill="#5E9DA6"/>
<path d="M242.367 187.542C242.367 187.542 237.447 186.49 238.868 183.805C240.289 181.119 242.367 187.542 242.367 187.542Z" fill="#77DBD3"/>
<path d="M241.355 179.588C240.974 179.033 240.756 178.382 240.727 177.709C240.668 177.304 240.766 176.891 241 176.554C241.152 176.38 241.35 176.254 241.572 176.189C241.794 176.125 242.029 176.126 242.251 176.192C242.696 176.327 243.073 176.628 243.303 177.033C243.531 177.433 243.686 177.87 243.761 178.324C243.884 178.953 244.28 180.607 243.46 180.935C242.763 181.222 241.718 180.08 241.355 179.588Z" fill="#5E9DA6"/>
<path d="M247.048 179.172C247.386 179.183 247.717 179.269 248.018 179.424C248.166 179.504 248.291 179.619 248.382 179.76C248.473 179.902 248.526 180.063 248.537 180.231C248.508 180.465 248.413 180.687 248.263 180.869C248.113 181.052 247.914 181.188 247.69 181.263C246.836 181.645 244.642 181.946 244.184 180.764C243.658 179.431 246.248 179.117 247.048 179.172Z" fill="#77DBD3"/>
<path d="M230.538 246.952C234.119 243.679 236.914 239.647 239.483 235.533C239.818 234.993 240.303 234.385 240.925 234.488C241.127 234.538 241.31 234.644 241.454 234.794C241.598 234.944 241.696 235.132 241.738 235.335C241.816 235.744 241.816 236.163 241.738 236.572C243.487 232.274 246.521 228.809 249.61 225.352C250.062 224.706 250.74 224.252 251.51 224.081C252.289 224.012 253.109 224.901 252.678 225.55C255.762 220.616 259.513 216.132 263.824 212.225C264.675 211.402 265.659 210.73 266.735 210.236C266.559 212.118 266 213.944 265.093 215.602C264.186 217.26 262.949 218.715 261.459 219.878C261.828 219.553 262.268 219.319 262.744 219.195C262.942 219.14 263.154 219.166 263.334 219.267C263.513 219.368 263.645 219.536 263.701 219.735C263.712 219.93 263.667 220.124 263.571 220.295C263.233 220.92 262.823 221.503 262.348 222.031C259.733 225.147 256.963 228.131 254.038 230.982C254.532 230.75 255.065 230.611 255.61 230.572C255.883 230.56 256.155 230.622 256.395 230.752C256.636 230.882 256.837 231.075 256.976 231.31C257.345 232.076 256.751 232.957 256.129 233.538C253.102 236.347 248.824 237.235 245.093 239.005C245.606 238.875 246.146 239.387 246.255 239.907C246.325 240.439 246.193 240.977 245.886 241.417C244.888 243.091 243.036 244.048 241.226 244.779C237.833 246.175 234.206 246.912 230.538 246.952Z" fill="#77DBD3"/>
<path d="M284.044 227.518L283.483 226.8L275.174 233.36C274.869 232.186 274.713 230.979 274.709 229.766H273.8C273.808 231.19 274.011 232.606 274.402 233.975L270.056 237.392H269.871V237.556L268.614 238.533C268.265 238.807 267.93 239.066 267.541 239.326L267.821 234.734L266.912 234.679L266.605 239.838H266.803C264.576 241.337 262.188 242.579 259.683 243.542C260.162 242.05 260.719 240.583 261.35 239.148L260.516 238.779C259.777 240.464 259.134 242.188 258.589 243.945C255.156 245.147 251.606 245.983 247.997 246.439C248.952 244.647 250.228 243.047 251.763 241.718L251.168 241.034C249.384 242.578 247.929 244.465 246.89 246.583C241.481 247.202 236.016 247.175 230.613 246.501L230.47 247.396C233.311 247.766 236.174 247.942 239.039 247.922H239.661C240.068 248.503 240.416 249.123 240.699 249.774C241.246 250.908 241.806 252.091 242.948 252.767L243.412 251.995C242.503 251.448 242.046 250.444 241.513 249.378C241.275 248.874 241.011 248.384 240.72 247.909C244.39 247.837 248.047 247.458 251.653 246.774C253.289 248.331 255.1 249.691 257.052 250.826L257.503 250.041C255.792 249.045 254.189 247.875 252.719 246.549C258.391 245.326 264.261 243.132 269.174 239.251L270.349 238.328C270.972 238.409 271.586 238.539 272.188 238.718C273.02 238.983 273.884 239.134 274.757 239.169H274.935V238.26C274.094 238.244 273.261 238.103 272.461 237.843C272.092 237.747 271.723 237.645 271.347 237.563L277.641 232.595C278.494 233.18 279.297 233.836 280.039 234.556L280.675 233.914C279.958 233.224 279.191 232.589 278.379 232.014L284.044 227.518Z" fill="#5E718C"/>
<path d="M240.966 250.43C240.971 251.097 241.131 251.753 241.435 252.346C241.739 252.939 242.177 253.453 242.715 253.847C243.791 254.62 244.981 255.222 246.241 255.63C246.07 254.995 245.893 254.373 245.729 253.738C245.62 253.261 245.448 252.801 245.216 252.371C245.01 252.056 244.765 251.769 244.485 251.517C244.069 251.087 243.578 250.737 243.036 250.485C242.371 250.241 241.644 250.222 240.966 250.43Z" fill="#77DBD3"/>
<path d="M248.838 244C248.672 243.473 248.629 242.915 248.712 242.369C248.795 241.823 249.002 241.304 249.316 240.85C249.958 239.948 250.845 239.248 251.872 238.834C252.895 238.421 253.96 238.125 255.05 237.952C254.847 239.429 254.074 240.769 252.897 241.683C251.648 242.624 250.284 243.403 248.838 244Z" fill="#77DBD3"/>
<path d="M254.598 248.947C254.557 249.24 254.58 249.538 254.665 249.821C254.75 250.104 254.895 250.366 255.09 250.587C255.938 251.7 257.1 252.533 258.425 252.979C259.744 253.421 261.137 253.602 262.525 253.512C261.842 252.346 260.982 251.292 259.976 250.389C258.44 249.227 256.51 248.71 254.598 248.947Z" fill="#5E9DA6"/>
<path d="M259.464 241.738C259.162 240.378 259.296 238.958 259.847 237.679C260.399 236.408 261.203 235.262 262.211 234.31C262.782 235.034 263.073 235.938 263.031 236.859C262.984 237.757 262.719 238.629 262.259 239.401C261.642 240.494 260.649 241.325 259.464 241.738Z" fill="#5E9DA6"/>
<path d="M267.138 237.303C266.861 237.165 266.623 236.958 266.449 236.702C266.274 236.446 266.168 236.149 266.14 235.841C265.982 234.84 266.135 233.814 266.577 232.902C267.021 231.994 267.633 231.177 268.381 230.497C268.917 231.628 269.152 232.878 269.065 234.126C268.997 234.764 268.789 235.38 268.456 235.93C268.123 236.479 267.673 236.948 267.138 237.303Z" fill="#77DBD3"/>
<path d="M274.203 231.584C273.918 231.467 273.678 231.261 273.52 230.996C273.313 230.645 273.18 230.256 273.128 229.852C273.076 229.447 273.107 229.037 273.22 228.645C273.45 227.864 273.854 227.144 274.402 226.541C274.646 226.635 274.847 226.815 274.969 227.046C275.402 227.761 275.583 228.601 275.481 229.431C275.303 230.269 274.854 231.026 274.203 231.584Z" fill="#5E9DA6"/>
<path d="M279.103 233.36C279.087 233.621 279.124 233.883 279.214 234.129C279.303 234.374 279.442 234.599 279.622 234.789C280.199 235.469 280.998 235.924 281.877 236.073C281.799 235.853 281.755 235.623 281.748 235.39C281.728 234.717 281.488 234.068 281.064 233.545C280.654 233.026 279.725 233.066 279.103 233.36Z" fill="#5E9DA6"/>
<path d="M280.347 229.711C280.924 228.248 282.001 227.038 283.388 226.295C284.77 225.557 286.299 225.135 287.863 225.058C287.721 225.835 287.42 226.575 286.978 227.23C286.535 227.885 285.962 228.442 285.294 228.864C283.814 229.77 282.043 230.073 280.347 229.711Z" fill="#77DBD3"/>
<path d="M272.454 238.431C273.227 239.38 274.308 240.028 275.509 240.262C276.61 240.416 277.73 240.388 278.823 240.18C278.575 239.568 278.186 239.024 277.687 238.591C277.188 238.159 276.594 237.851 275.953 237.693C275.273 237.588 274.579 237.6 273.903 237.727C273.352 237.784 272.839 238.033 272.454 238.431Z" fill="#77DBD3"/>
<path d="M249.59 225.352C250.042 224.706 250.72 224.252 251.489 224.081C252.268 224.012 253.088 224.901 252.658 225.55C253.778 223.8 254.988 222.065 256.28 220.384C258.33 211.555 260.619 194.895 260.619 194.895C252.583 208.152 248.749 222.365 247.499 227.73C248.191 226.928 248.888 226.135 249.59 225.352Z" fill="#5E9DA6"/>
<path d="M253.095 221.115L252.412 220.924C252.412 220.835 254.961 211.671 256.45 207.462L257.134 207.694C255.644 211.883 253.136 221.019 253.095 221.115Z" fill="white"/>
<path d="M273.411 222.242C270.877 221.927 268.317 221.868 265.771 222.065C264.324 222.203 262.898 222.508 261.521 222.974C259.143 225.755 256.642 228.44 254.004 230.996C254.498 230.764 255.031 230.625 255.576 230.586C255.849 230.574 256.12 230.636 256.361 230.766C256.602 230.896 256.803 231.089 256.942 231.324C257.013 231.476 257.048 231.642 257.045 231.809C263.072 229.719 268.632 226.469 273.411 222.242Z" fill="#5E9DA6"/>
<path d="M226.923 146.542H88.3353C87.0666 146.542 85.8499 147.046 84.9529 147.943C84.0558 148.84 83.5519 150.057 83.5519 151.325V247.28H231.7V151.312C231.696 150.047 231.192 148.835 230.296 147.941C229.401 147.047 228.188 146.544 226.923 146.542Z" fill="#454966"/>
<path d="M224.996 150.471H90.2691C88.8237 150.471 87.6519 151.643 87.6519 153.088V240.693C87.6519 242.138 88.8237 243.31 90.2691 243.31H224.996C226.442 243.31 227.613 242.138 227.613 240.693V153.088C227.613 151.643 226.442 150.471 224.996 150.471Z" fill="#F2EBEB"/>
<path d="M231.529 247.28H83.7295L62.3957 281.399C61.7547 282.424 61.4116 283.607 61.4049 284.816V289.599C61.4049 289.962 61.5488 290.309 61.8051 290.566C62.0614 290.822 62.4091 290.966 62.7715 290.966H252.501C252.863 290.966 253.211 290.822 253.467 290.566C253.723 290.309 253.867 289.962 253.867 289.599V284.816C253.861 283.607 253.517 282.424 252.876 281.399L231.529 247.28Z" fill="#D0DCEA"/>
<path d="M61.4049 284.85V289.633C61.4049 289.996 61.5488 290.343 61.8051 290.6C62.0614 290.856 62.4091 291 62.7715 291H252.501C252.863 291 253.211 290.856 253.467 290.6C253.723 290.343 253.867 289.996 253.867 289.633V284.85C253.867 284.624 253.867 284.399 253.819 284.167H61.4527C61.4322 284.399 61.4049 284.624 61.4049 284.85Z" fill="#B5BCCA"/>
<path d="M175.734 281.918H139.517C139.358 281.919 139.2 281.882 139.057 281.811C138.914 281.739 138.79 281.635 138.695 281.506C138.6 281.378 138.536 281.229 138.509 281.071C138.482 280.914 138.493 280.752 138.54 280.6L140.638 273.711C140.701 273.502 140.831 273.318 141.007 273.187C141.183 273.057 141.396 272.987 141.615 272.987H173.63C173.849 272.987 174.062 273.057 174.238 273.187C174.414 273.318 174.544 273.502 174.607 273.711L176.705 280.6C176.75 280.752 176.76 280.912 176.733 281.069C176.705 281.225 176.642 281.373 176.548 281.501C176.454 281.629 176.332 281.733 176.19 281.805C176.049 281.878 175.893 281.917 175.734 281.918Z" fill="#B5BCCA"/>
<path d="M187.358 252.576H195.982L195.093 249.842H186.688L187.358 252.576Z" fill="#454966"/>
<path d="M164.159 253.779L164.705 258.371H174.969L174.313 253.779H164.159Z" fill="#454966"/>
<path d="M198.1 252.576H207.639L206.628 249.842H197.212L198.1 252.576Z" fill="#454966"/>
<path d="M164.015 252.576H174.135L173.746 249.842H163.694L164.015 252.576Z" fill="#454966"/>
<path d="M176.254 252.576H185.24L184.57 249.842H175.864L176.254 252.576Z" fill="#454966"/>
<path d="M175.837 264.418L175.147 259.573H164.849L165.423 264.418H175.837Z" fill="#454966"/>
<path d="M139.716 264.418H149.829L150.403 259.573H140.529L139.716 264.418Z" fill="#454966"/>
<path d="M151.093 253.779H141.499L140.727 258.371H150.546L151.093 253.779Z" fill="#454966"/>
<path d="M151.558 249.842H142.155L141.697 252.576H151.237L151.558 249.842Z" fill="#454966"/>
<path d="M130.709 252.576H139.579L140.037 249.842H131.372L130.709 252.576Z" fill="#454966"/>
<path d="M153.211 253.779L152.665 258.371H162.587L162.04 253.779H153.211Z" fill="#454966"/>
<path d="M153.355 252.576H161.897L161.569 249.842H153.683L153.355 252.576Z" fill="#454966"/>
<path d="M151.954 264.418H163.304L162.724 259.573H152.521L151.954 264.418Z" fill="#454966"/>
<path d="M188.137 264.418L186.955 259.573H177.265L177.962 264.418H188.137Z" fill="#454966"/>
<path d="M210.202 253.779L211.89 258.371H221.395L219.277 253.779H210.202Z" fill="#454966"/>
<path d="M223.513 258.371H232.322L229.725 253.779H221.402L223.513 258.371Z" fill="#454966"/>
<path d="M233.005 259.573H221.949H219.851H212.334L214.117 264.418H222.078H224.169H235.738L233.005 259.573Z" fill="#454966"/>
<path d="M197.868 258.371L196.371 253.779H187.652L188.779 258.371H197.868Z" fill="#454966"/>
<path d="M211.999 264.418L210.216 259.573H200.376L201.947 264.418H211.999Z" fill="#454966"/>
<path d="M209.771 258.371L208.077 253.779H198.49L199.986 258.371H209.771Z" fill="#454966"/>
<path d="M199.829 264.418L198.257 259.573H189.073L190.255 264.418H199.829Z" fill="#454966"/>
<path d="M209.758 252.576H218.723L217.473 249.842H208.746L209.758 252.576Z" fill="#454966"/>
<path d="M176.431 253.779L177.087 258.371H186.654L185.533 253.779H176.431Z" fill="#454966"/>
<path d="M113.605 265.621H103.499L101.387 271.361H111.733L113.605 265.621Z" fill="#454966"/>
<path d="M212.443 265.621H202.344L204.209 271.361H214.562L212.443 265.621Z" fill="#454966"/>
<path d="M200.218 265.621H190.549L191.957 271.361H202.091L200.218 265.621Z" fill="#454966"/>
<path d="M188.431 265.621H127.511L126.11 271.361H189.838L188.431 265.621Z" fill="#454966"/>
<path d="M99.2687 271.361L101.38 265.621H91.2189L88.5812 271.361H99.2687Z" fill="#454966"/>
<path d="M125.393 265.621H115.723L113.858 271.361H123.985L125.393 265.621Z" fill="#454966"/>
<path d="M220.848 252.576H229.048L227.504 249.842H219.591L220.848 252.576Z" fill="#454966"/>
<path d="M89.1006 265.621H78.8437L75.5978 271.361H86.4629L89.1006 265.621Z" fill="#454966"/>
<path d="M95.1003 252.576L96.3508 249.842H87.7544L86.2101 252.576H95.1003Z" fill="#454966"/>
<path d="M224.723 265.621H214.562L216.68 271.361H227.361L224.723 265.621Z" fill="#454966"/>
<path d="M236.415 265.621H226.841L229.479 271.361H239.661L236.415 265.621Z" fill="#454966"/>
<path d="M103.943 264.418H113.995L115.566 259.573H105.726L103.943 264.418Z" fill="#454966"/>
<path d="M128.29 253.779H119.571L118.081 258.371H127.169L128.29 253.779Z" fill="#454966"/>
<path d="M139.374 253.779H130.415L129.288 258.371H138.609L139.374 253.779Z" fill="#454966"/>
<path d="M138.41 259.573H128.994L127.805 264.418H137.597L138.41 259.573Z" fill="#454966"/>
<path d="M117.452 253.779H107.865L106.17 258.371H115.963L117.452 253.779Z" fill="#454966"/>
<path d="M126.876 259.573H117.685L116.113 264.418H125.687L126.876 259.573Z" fill="#454966"/>
<path d="M82.9369 258.371H92.4285L94.5468 253.779H85.5336L82.9369 258.371Z" fill="#454966"/>
<path d="M96.7745 259.573H94.0001H82.2535L79.5202 264.418H91.7724H94.5536H101.824L103.608 259.573H96.7745Z" fill="#454966"/>
<path d="M104.052 258.371L105.747 253.779H96.6652L94.5536 258.371H104.052Z" fill="#454966"/>
<path d="M119.967 252.576H128.591L129.254 249.842H120.855L119.967 252.576Z" fill="#454966"/>
<path d="M97.2187 252.576H106.191L107.195 249.842H98.476L97.2187 252.576Z" fill="#454966"/>
<path d="M108.309 252.576H117.849L118.737 249.842H109.314L108.309 252.576Z" fill="#454966"/>
<path d="M178.994 286.722H136.285C135.726 286.719 135.181 286.545 134.724 286.222C134.267 285.899 133.92 285.444 133.729 284.918L133.463 284.167H181.837L181.57 284.918C181.379 285.448 181.028 285.905 180.567 286.228C180.106 286.551 179.557 286.723 178.994 286.722Z" fill="#969DA8"/>
<path d="M201.626 189.258C201.271 171.238 198.797 168.074 198.797 168.074C191.554 157.298 166.359 157.824 166.359 157.824H148.9C148.9 157.824 123.705 157.305 116.462 168.074C116.462 168.074 113.988 171.258 113.632 189.258C113.277 207.257 113.632 243.33 113.632 243.33H201.626C201.626 243.33 201.981 207.284 201.626 189.258Z" fill="#D9E5F1"/>
<path d="M173.144 158.063C169.154 157.742 166.359 157.797 166.359 157.797H148.9C148.9 157.797 146.105 157.742 142.114 158.063C141.485 169.851 139.852 221.395 157.626 243.33C175.399 221.395 173.773 169.851 173.144 158.063Z" fill="#D9E5F1"/>
<path d="M173.144 158.063C178.755 162.864 182.74 169.286 184.549 176.445L178.85 182.691C178.85 182.691 182.657 187.946 182.868 190.255C183.08 192.565 175.03 235.492 157.626 243.317C175.399 221.395 173.773 169.851 173.144 158.063Z" fill="#F2EBEB"/>
<path d="M166.352 145.681H148.9V165.559H166.352V145.681Z" fill="#CA7975"/>
<path d="M130.566 121.122C131.85 117.958 135.349 120.37 135.349 120.37C135.349 120.37 136.716 128.461 137.98 132.212C131.017 130.238 129.288 124.286 130.566 121.122Z" fill="#CA7975"/>
<path d="M137.461 130.627C136.668 127.743 135.923 123.794 135.554 121.744C134.775 121.354 133.169 120.814 132.465 122.557C131.543 124.826 132.732 129.021 137.461 130.627Z" fill="#B06A75"/>
<path d="M136.586 126.554C136.586 126.554 131.461 122.277 132.26 109.922C133.06 97.5672 153.922 80.2308 172.543 97.082L174.306 99.4873C174.306 99.4873 179.923 97.246 181.823 100.936C183.723 104.626 184.194 123.698 177.313 129.568C170.432 135.438 136.586 126.554 136.586 126.554Z" fill="#834252"/>
<path d="M135.95 120.623C135.95 120.623 136.415 148.018 156.731 151.872C157.083 151.941 157.445 151.941 157.797 151.872C171.573 149.262 176.247 135.82 177.784 127.443V126.349C177.053 125.492 176.536 124.473 176.274 123.377C175.14 119.878 175.092 116.133 175.065 112.443C174.005 114.493 171.723 115.771 169.516 116.407C167.281 116.95 164.977 117.151 162.683 117.001C163.02 116.834 163.309 116.583 163.521 116.272C163.733 115.961 163.86 115.6 163.892 115.225C163.944 114.45 164.199 113.704 164.63 113.058C158.856 116.215 152.098 116.858 145.497 116.981C146.638 116.311 147.478 115.227 147.84 113.954C144.273 116.25 139.88 116.455 135.636 116.571C135.52 117.582 135.882 119.632 135.95 120.623Z" fill="#DF9781"/>
<path d="M184.023 121.122C182.745 117.958 179.281 120.37 179.281 120.37C179.281 120.37 177.914 128.461 176.65 132.212C183.572 130.238 185.308 124.286 184.023 121.122Z" fill="#CA7975"/>
<path d="M177.074 130.818C182.048 129.178 183.292 124.785 182.335 122.413C181.577 120.548 179.841 121.197 179.062 121.607C178.693 123.664 177.907 127.866 177.074 130.818Z" fill="#B06A75"/>
<path d="M159.177 126.267C157.564 125.748 155.829 125.748 154.216 126.267L153.799 125.427C155.683 124.819 157.71 124.819 159.594 125.427L159.177 126.267Z" fill="#834252"/>
<path d="M163.304 140.44C163.547 140.396 163.797 140.409 164.034 140.478C164.271 140.546 164.489 140.669 164.671 140.836C164.768 140.993 164.83 141.168 164.853 141.351C164.877 141.534 164.861 141.719 164.808 141.895C164.622 142.583 164.278 143.218 163.803 143.749C163.329 144.281 162.737 144.694 162.074 144.957C160.739 145.469 159.315 145.713 157.886 145.674C156.552 145.749 155.215 145.615 153.922 145.278C153.259 145.1 152.648 144.767 152.139 144.308C151.319 143.508 151.038 142.039 152.077 141.267C152.685 140.816 160.366 140.522 163.304 140.44Z" fill="#CA6866"/>
<path d="M153.881 145.278C155.174 145.615 156.511 145.749 157.845 145.674C159.274 145.713 160.698 145.469 162.033 144.957C162.499 144.755 162.934 144.488 163.325 144.164C162.59 143.411 161.631 142.915 160.592 142.75C158.52 142.369 156.381 142.694 154.517 143.672C153.889 143.955 153.312 144.338 152.808 144.806C153.147 145.003 153.507 145.161 153.881 145.278Z" fill="#AF4E5E"/>
<path d="M157.216 136.989C157.164 136.999 157.111 136.999 157.059 136.989C156.375 136.743 155.255 136.224 155.118 135.547C155.051 135.1 155.091 134.643 155.234 134.215C155.705 132.388 156.025 130.525 156.191 128.645C156.202 128.526 156.26 128.415 156.352 128.339C156.444 128.262 156.563 128.225 156.683 128.235C156.802 128.246 156.913 128.304 156.99 128.397C157.067 128.489 157.104 128.608 157.093 128.727C156.922 130.65 156.595 132.556 156.116 134.426C156.01 134.726 155.972 135.046 156.006 135.363C156.396 135.724 156.864 135.99 157.373 136.142C157.473 136.178 157.557 136.249 157.609 136.341C157.662 136.433 157.681 136.541 157.662 136.645C157.644 136.75 157.588 136.844 157.507 136.912C157.425 136.98 157.322 137.017 157.216 137.016V136.989Z" fill="#834252"/>
<path d="M147.765 157.797C146.809 157.797 145.298 157.845 143.44 157.961L150.485 171.327L157.626 165.559L148.9 157.797H147.765Z" fill="#F2EBEB"/>
<path d="M167.493 157.797H166.352L157.619 165.559L164.76 171.327L171.819 157.961C169.96 157.845 168.45 157.804 167.493 157.797Z" fill="#F2EBEB"/>
<path d="M142.114 158.063C136.503 162.864 132.519 169.286 130.709 176.445L136.408 182.691C136.408 182.691 132.602 187.946 132.39 190.255C132.178 192.565 140.228 235.492 157.626 243.33C139.852 221.395 141.485 169.851 142.114 158.063Z" fill="#F2EBEB"/>
<path d="M156.423 242.715C139.852 233.49 132.185 192.51 132.39 190.255C132.595 188 136.408 182.691 136.408 182.691L130.709 176.445C132.511 169.383 136.411 163.034 141.895 158.234L142.114 158.063C141.574 158.104 141.021 158.152 140.44 158.214C134.517 162.931 130.217 169.382 128.14 176.664L134.379 182.978C134.379 182.978 130.21 188.28 129.978 190.617C129.746 192.954 137.994 233.565 155.794 243.364H157.489C157.353 243.132 156.58 242.92 156.423 242.715Z" fill="#C2D8F1"/>
<path d="M158.835 242.715C175.399 233.49 183.067 192.51 182.862 190.255C182.657 188 178.844 182.691 178.844 182.691L184.543 176.445C182.742 169.385 178.844 163.035 173.363 158.234L173.138 158.063C173.677 158.104 174.238 158.152 174.819 158.214C180.737 162.935 185.036 169.384 187.119 176.664L180.873 182.978C180.873 182.978 185.048 188.28 185.274 190.617C185.499 192.954 177.231 233.531 159.43 243.317H157.735C157.899 243.132 158.665 242.92 158.835 242.715Z" fill="#C2D8F1"/>
<path d="M124.86 200.56V243.317H131.454C128.475 239.381 124.86 200.56 124.86 200.56Z" fill="#C2D8F1"/>
<path d="M190.399 200.56V243.317H183.805C186.784 239.381 190.399 200.56 190.399 200.56Z" fill="#C2D8F1"/>
<path d="M150.485 171.327L155.227 178.891H160.031L164.767 171.327L157.626 165.559L150.485 171.327Z" fill="#9C6AFF"/>
<path d="M157.626 165.559L150.485 171.327L151.462 172.878C153.184 171.06 154.988 169.311 156.888 167.664C156.987 167.549 157.114 167.46 157.255 167.406C157.397 167.351 157.55 167.332 157.701 167.35C157.861 167.416 157.999 167.528 158.097 167.671C159.707 169.77 161.458 171.756 163.339 173.616L164.767 171.327L157.626 165.559Z" fill="#9C6AFF"/>
<path d="M160.011 178.891H155.227C155.227 178.891 148.797 210.892 150.888 231.72C152.586 235.886 154.853 239.795 157.626 243.337C160.389 239.818 162.65 235.931 164.343 231.789V231.7C166.441 210.892 160.011 178.891 160.011 178.891Z" fill="#9C6AFF"/>
<path d="M160.359 180.818C160.134 179.588 159.997 178.891 159.997 178.891H155.214C155.214 178.891 154.694 181.488 153.997 185.677C154.571 184.884 155.166 184.105 155.794 183.36C156.319 182.679 156.94 182.078 157.64 181.577C158.489 181.152 159.412 180.895 160.359 180.818Z" fill="#5B5A87"/>
<path d="M152.911 121.156H143.105C142.21 121.156 141.485 121.881 141.485 122.776V127.942C141.485 128.836 142.21 129.561 143.105 129.561H152.911C153.805 129.561 154.53 128.836 154.53 127.942V122.776C154.53 121.881 153.805 121.156 152.911 121.156Z" fill="#F2EBEB"/>
<path d="M170.309 121.156H160.503C159.608 121.156 158.883 121.881 158.883 122.776V127.942C158.883 128.836 159.608 129.561 160.503 129.561H170.309C171.203 129.561 171.928 128.836 171.928 127.942V122.776C171.928 121.881 171.203 121.156 170.309 121.156Z" fill="#F2EBEB"/>
<path d="M143.44 157.968L149.378 173.616L150.485 171.327L143.44 157.968Z" fill="#55A3D4"/>
<path d="M171.819 157.968L165.881 173.616L164.767 171.327L171.819 157.968Z" fill="#55A3D4"/>
<path d="M107.291 163.195H91.3488V182.288H107.291V163.195Z" fill="#F2C8C5"/>
<path d="M107.291 159.99H91.3488V163.195H107.291V159.99Z" fill="#F2AFB1"/>
<path d="M105.918 162.204C106.257 162.204 106.533 161.929 106.533 161.589C106.533 161.25 106.257 160.974 105.918 160.974C105.578 160.974 105.303 161.25 105.303 161.589C105.303 161.929 105.578 162.204 105.918 162.204Z" fill="white"/>
<path d="M104.319 162.204C104.658 162.204 104.934 161.929 104.934 161.589C104.934 161.25 104.658 160.974 104.319 160.974C103.979 160.974 103.704 161.25 103.704 161.589C103.704 161.929 103.979 162.204 104.319 162.204Z" fill="white"/>
<path d="M103.328 161.589C103.329 161.711 103.294 161.831 103.227 161.933C103.16 162.036 103.064 162.115 102.951 162.163C102.839 162.21 102.714 162.223 102.594 162.2C102.474 162.176 102.364 162.117 102.278 162.031C102.191 161.944 102.133 161.834 102.109 161.714C102.086 161.594 102.098 161.47 102.146 161.358C102.193 161.245 102.273 161.149 102.375 161.082C102.477 161.015 102.597 160.98 102.72 160.981C102.881 160.981 103.036 161.045 103.15 161.159C103.264 161.273 103.328 161.428 103.328 161.589Z" fill="white"/>
<path d="M223.889 206.355H207.947V225.447H223.889V206.355Z" fill="#F2C8C5"/>
<path d="M223.889 203.15H207.947V206.355H223.889V203.15Z" fill="#F2AFB1"/>
<path d="M222.516 205.371C222.855 205.371 223.131 205.095 223.131 204.756C223.131 204.416 222.855 204.141 222.516 204.141C222.176 204.141 221.901 204.416 221.901 204.756C221.901 205.095 222.176 205.371 222.516 205.371Z" fill="white"/>
<path d="M221.525 204.756C221.525 204.878 221.489 204.997 221.421 205.098C221.353 205.199 221.256 205.278 221.144 205.325C221.031 205.371 220.907 205.383 220.787 205.358C220.668 205.334 220.558 205.275 220.473 205.188C220.387 205.101 220.329 204.991 220.306 204.871C220.283 204.752 220.296 204.628 220.344 204.516C220.391 204.403 220.471 204.308 220.573 204.241C220.675 204.174 220.795 204.139 220.917 204.141C220.997 204.141 221.077 204.157 221.151 204.188C221.225 204.219 221.293 204.264 221.349 204.321C221.406 204.378 221.45 204.446 221.481 204.521C221.511 204.595 221.526 204.675 221.525 204.756Z" fill="white"/>
<path d="M219.926 204.756C219.926 204.877 219.89 204.996 219.822 205.097C219.755 205.199 219.659 205.277 219.546 205.324C219.434 205.37 219.31 205.383 219.191 205.359C219.072 205.335 218.962 205.277 218.876 205.191C218.79 205.105 218.731 204.995 218.708 204.876C218.684 204.756 218.696 204.633 218.743 204.52C218.789 204.408 218.868 204.312 218.969 204.244C219.07 204.177 219.189 204.141 219.311 204.141C219.392 204.14 219.472 204.155 219.547 204.186C219.622 204.216 219.69 204.262 219.748 204.319C219.805 204.376 219.85 204.444 219.881 204.519C219.911 204.594 219.927 204.675 219.926 204.756Z" fill="white"/>
<path d="M109.095 222.892H93.1528V231.707H109.095V222.892Z" fill="#F2C8C5"/>
<path d="M109.095 219.687H93.1528V222.892H109.095V219.687Z" fill="#F2AFB1"/>
<path d="M108.33 221.286C108.331 221.408 108.296 221.528 108.229 221.63C108.162 221.732 108.066 221.812 107.953 221.859C107.841 221.907 107.716 221.92 107.596 221.896C107.477 221.873 107.366 221.814 107.28 221.727C107.193 221.641 107.135 221.531 107.111 221.411C107.088 221.291 107.101 221.167 107.148 221.054C107.195 220.941 107.275 220.845 107.377 220.778C107.48 220.711 107.599 220.676 107.722 220.678C107.883 220.678 108.038 220.742 108.152 220.856C108.266 220.97 108.33 221.124 108.33 221.286Z" fill="white"/>
<path d="M106.123 221.901C106.462 221.901 106.738 221.625 106.738 221.286C106.738 220.946 106.462 220.671 106.123 220.671C105.783 220.671 105.508 220.946 105.508 221.286C105.508 221.625 105.783 221.901 106.123 221.901Z" fill="white"/>
<path d="M104.517 221.901C104.856 221.901 105.132 221.625 105.132 221.286C105.132 220.946 104.856 220.671 104.517 220.671C104.177 220.671 103.902 220.946 103.902 221.286C103.902 221.625 104.177 221.901 104.517 221.901Z" fill="white"/>
<path d="M226.267 164.439H205.576V166.291H226.267V164.439Z" fill="#B8BDCA"/>
<path d="M226.267 169.83H221.354V171.682H226.267V169.83Z" fill="#B8BDCA"/>
<path d="M215.921 169.83H205.576V171.682H215.921V169.83Z" fill="#B8BDCA"/>
<path d="M226.267 175.222H205.576V177.074H226.267V175.222Z" fill="#B8BDCA"/>
<path d="M226.267 180.613H215.17V182.465H226.267V180.613Z" fill="#B8BDCA"/>
<path d="M209.703 180.613H205.576V182.465H209.703V180.613Z" fill="#B8BDCA"/>
<path d="M226.267 186.005H205.576V187.857H226.267V186.005Z" fill="#B8BDCA"/>
<path d="M107.715 190.734H102.2V192.585H107.715V190.734Z" fill="#B8BDCA"/>
<path d="M98.6263 190.734H90.7816V192.585H98.6263V190.734Z" fill="#B8BDCA"/>
<path d="M107.722 195.968H90.7816V197.82H107.722V195.968Z" fill="#B8BDCA"/>
<path d="M101.483 201.209H90.7816V203.061H101.483V201.209Z" fill="#B8BDCA"/>
<path d="M107.722 201.209H104.319V203.061H107.722V201.209Z" fill="#B8BDCA"/>
<path d="M107.722 206.45H90.7816V208.302H107.722V206.45Z" fill="#B8BDCA"/>
<path d="M301.086 150.396H276.664V174.819H301.086V150.396Z" fill="#9C6AFF" fill-opacity="0.55"/>
<path d="M299.569 150.396V165.621L292.442 172.051H276.664V150.396H299.569Z" fill="#81AEFF"/>
<path d="M292.114 170.664H272.604V144.964H298.305V165.081L292.114 170.664Z" fill="#BAEBFF"/>
<path d="M292.114 170.664L298.305 165.081L292.114 163.352V170.664Z" fill="#ADDBFF"/>
<path d="M284.918 147.041H275.324V157.312H284.918V147.041Z" fill="white"/>
<path d="M283.962 151.298H280.996V148.332H279.247V151.298H276.281V153.047H279.247V156.013H280.996V153.047H283.962V151.298Z" fill="#FF546A"/>
<path d="M306.97 145.743C306.75 145.857 306.51 145.928 306.263 145.949C306.016 145.971 305.767 145.943 305.531 145.868C305.294 145.794 305.075 145.673 304.886 145.513C304.697 145.353 304.541 145.157 304.428 144.936L302.111 140.46C301.881 140.016 301.837 139.499 301.988 139.022C302.139 138.546 302.473 138.149 302.917 137.918C303.137 137.803 303.377 137.733 303.624 137.712C303.871 137.69 304.12 137.717 304.356 137.792C304.592 137.867 304.812 137.988 305.001 138.148C305.19 138.308 305.346 138.504 305.459 138.725L307.783 143.201C307.896 143.421 307.966 143.661 307.986 143.908C308.007 144.155 307.979 144.404 307.903 144.64C307.828 144.876 307.706 145.095 307.546 145.284C307.386 145.473 307.19 145.629 306.97 145.743Z" fill="#5E9DA6"/>
<path d="M306.97 145.743C306.75 145.857 306.51 145.928 306.263 145.949C306.016 145.971 305.767 145.943 305.531 145.868C305.294 145.794 305.075 145.673 304.886 145.513C304.697 145.353 304.541 145.157 304.428 144.936L303.273 142.702L306.621 140.966L307.783 143.201C307.896 143.421 307.966 143.661 307.986 143.908C308.007 144.155 307.979 144.404 307.903 144.64C307.828 144.876 307.706 145.095 307.546 145.284C307.386 145.473 307.19 145.629 306.97 145.743Z" fill="#77DBD3"/>
<path d="M276.37 140.754C275.924 140.984 275.405 141.028 274.927 140.875C274.449 140.723 274.051 140.387 273.821 139.941L271.504 135.465C271.274 135.021 271.23 134.504 271.381 134.027C271.532 133.55 271.867 133.153 272.311 132.923C272.755 132.693 273.272 132.649 273.749 132.8C274.225 132.951 274.622 133.285 274.853 133.729L277.176 138.205C277.405 138.651 277.448 139.168 277.297 139.646C277.146 140.123 276.813 140.521 276.37 140.754Z" fill="#FF546A"/>
<path d="M276.37 140.754C275.924 140.984 275.405 141.028 274.927 140.875C274.449 140.723 274.051 140.387 273.821 139.941L272.666 137.706L276.014 135.971L277.176 138.205C277.405 138.651 277.448 139.168 277.297 139.646C277.146 140.123 276.813 140.521 276.37 140.754Z" fill="#FFB527"/>
<path d="M267.008 168.962C266.564 169.193 266.047 169.237 265.57 169.086C265.093 168.934 264.696 168.6 264.466 168.156L262.143 163.68C261.913 163.234 261.869 162.715 262.022 162.237C262.174 161.76 262.51 161.362 262.956 161.131C263.176 161.018 263.417 160.949 263.664 160.928C263.911 160.907 264.159 160.935 264.395 161.011C264.631 161.087 264.85 161.208 265.039 161.368C265.229 161.528 265.384 161.724 265.498 161.945L267.814 166.42C268.044 166.864 268.089 167.382 267.937 167.858C267.786 168.335 267.452 168.732 267.008 168.962Z" fill="#4CB5FF"/>
<path d="M267.008 168.962C266.564 169.193 266.047 169.237 265.57 169.086C265.093 168.934 264.696 168.6 264.466 168.156L263.304 165.915L266.653 164.179L267.814 166.42C268.044 166.864 268.089 167.382 267.937 167.858C267.786 168.335 267.452 168.732 267.008 168.962Z" fill="#FFB527"/>
<path d="M295.79 149.788H287.228V150.171H295.79V149.788Z" fill="#454966"/>
<path d="M295.783 152.842H293.576V153.225H295.783V152.842Z" fill="#454966"/>
<path d="M290.938 152.842H287.228V153.225H290.938V152.842Z" fill="#454966"/>
<path d="M295.79 155.89H287.228V156.273H295.79V155.89Z" fill="#454966"/>
<path d="M294.601 159.43H284.918V159.813H294.601V159.43Z" fill="#454966"/>
<path d="M280.121 159.43H275.235V159.813H280.121V159.43Z" fill="#454966"/>
<path d="M294.601 162.068H275.235V162.45H294.601V162.068Z" fill="#454966"/>
<path d="M290.604 164.705H287.228V165.088H290.604V164.705Z" fill="#454966"/>
<path d="M283.504 164.705H275.235V165.088H283.504V164.705Z" fill="#454966"/>
<path d="M290.932 167.343H275.235V167.726H290.932V167.343Z" fill="#454966"/>
<path d="M41.055 72.4818H32.9028C30.5955 72.471 28.3865 71.5468 26.7589 69.9115C25.1313 68.2762 24.2175 66.0628 24.2175 63.7556V56.8538H27.8461V63.7556C27.8479 65.1052 28.3848 66.399 29.3392 67.3534C30.2935 68.3077 31.5873 68.8446 32.9369 68.8464H41.055C42.4046 68.8446 43.6985 68.3077 44.6528 67.3534C45.6071 66.399 46.1441 65.1052 46.1459 63.7556V56.8538H49.7676V63.7556C49.7685 64.9006 49.5438 66.0346 49.1065 67.0929C48.6691 68.1511 48.0276 69.1128 47.2186 69.9231C46.4095 70.7334 45.4488 71.3764 44.3913 71.8155C43.3337 72.2545 42.2001 72.4809 41.055 72.4818Z" fill="#5B5A87"/>
<path d="M26.3154 56.765H25.5842V45.1004C25.5842 44.3428 25.8852 43.6163 26.4208 43.0807C26.9565 42.545 27.683 42.244 28.4406 42.244H31.1739V43.0026H28.4406C27.8848 43.0044 27.3522 43.226 26.9592 43.619C26.5661 44.012 26.3445 44.5446 26.3427 45.1004L26.3154 56.765Z" fill="#454966"/>
<path d="M48.3941 56.765H47.6356V45.1004C47.6338 44.5446 47.4122 44.012 47.0191 43.619C46.6261 43.226 46.0935 43.0044 45.5377 43.0026H42.8044V42.244H45.5377C46.2953 42.244 47.0218 42.545 47.5575 43.0807C48.0931 43.6163 48.3941 44.3428 48.3941 45.1004V56.765Z" fill="#454966"/>
<path d="M33.2718 44.0344H30.6204C30.2791 44.0326 29.9523 43.8957 29.7116 43.6537C29.4709 43.4117 29.3357 43.0842 29.3357 42.7429C29.3357 42.4021 29.4711 42.0754 29.712 41.8345C29.9529 41.5935 30.2797 41.4582 30.6204 41.4582H33.2718V44.0344Z" fill="#5B5A87"/>
<path d="M33.265 41.4582H31.7206V44.0344H33.265V41.4582Z" fill="#444B76"/>
<path d="M40.6792 41.4582H43.351C43.6918 41.4582 44.0185 41.5935 44.2594 41.8345C44.5004 42.0754 44.6357 42.4021 44.6357 42.7429C44.6357 43.0842 44.5006 43.4117 44.2599 43.6537C44.0191 43.8957 43.6924 44.0326 43.351 44.0344H40.6792V41.4582Z" fill="#5B5A87"/>
<path d="M42.2235 41.4582H40.6792V44.0344H42.2235V41.4582Z" fill="#444B76"/>
<path d="M37.3377 78.1535H36.6133C36.1186 78.1535 35.644 77.9569 35.2942 77.6071C34.9443 77.2572 34.7478 76.7827 34.7478 76.288V72.4818H39.2032V76.3016C39.1996 76.794 39.0014 77.265 38.652 77.6119C38.3025 77.9588 37.8301 78.1535 37.3377 78.1535Z" fill="#5B5A87"/>
<path d="M39.2032 72.4681H34.7478V74.0945H39.2032V72.4681Z" fill="#444B76"/>
<path d="M49.6856 102.549C49.299 102.557 48.9146 102.488 48.5548 102.346C48.195 102.205 47.867 101.993 47.5898 101.723C47.3126 101.454 47.0917 101.132 46.94 100.776C46.7883 100.42 46.7089 100.038 46.7062 99.6513V88.0346C46.6764 87.5247 46.4528 87.0455 46.0813 86.695C45.7097 86.3445 45.2182 86.1493 44.7075 86.1493C44.1967 86.1493 43.7052 86.3445 43.3337 86.695C42.9621 87.0455 42.7385 87.5247 42.7087 88.0346V99.6513C42.7087 100.032 42.6338 100.409 42.4882 100.76C42.3425 101.112 42.1291 101.431 41.8601 101.7C41.591 101.969 41.2716 102.183 40.9201 102.328C40.5686 102.474 40.1918 102.549 39.8113 102.549H39.4287C39.0465 102.551 38.6677 102.477 38.3141 102.331C37.9606 102.186 37.6393 101.972 37.3687 101.703C37.0981 101.433 36.8836 101.112 36.7375 100.759C36.5915 100.405 36.5167 100.027 36.5177 99.6445V78.1535H37.4197V99.6445C37.4215 100.174 37.6332 100.682 38.0085 101.056C38.3838 101.43 38.892 101.64 39.4218 101.64H39.8045C40.3337 101.64 40.8412 101.43 41.2154 101.055C41.5896 100.681 41.7999 100.174 41.7999 99.6445V88.0277C41.7999 87.2575 42.1058 86.5188 42.6505 85.9742C43.1951 85.4295 43.9338 85.1236 44.7041 85.1236C45.4743 85.1236 46.213 85.4295 46.7576 85.9742C47.3023 86.5188 47.6082 87.2575 47.6082 88.0277V99.6445C47.6082 100.188 47.8242 100.71 48.2087 101.094C48.5931 101.479 49.1146 101.695 49.6583 101.695C50.202 101.695 50.7234 101.479 51.1078 101.094C51.4923 100.71 51.7083 100.188 51.7083 99.6445V77.3813C51.7101 76.7131 51.9763 76.0728 52.4488 75.6003C52.9213 75.1278 53.5616 74.8616 54.2298 74.8598H58.0428V75.7686H54.2025C53.9907 75.7686 53.781 75.8104 53.5853 75.8914C53.3897 75.9724 53.2119 76.0912 53.0621 76.241C52.9124 76.3907 52.7936 76.5685 52.7125 76.7642C52.6315 76.9598 52.5898 77.1695 52.5898 77.3813V99.6445C52.5898 100.415 52.2838 101.153 51.7392 101.698C51.1945 102.243 50.4558 102.549 49.6856 102.549Z" fill="#454966"/>
<path d="M61.5552 79.2332C63.7215 79.2332 65.4776 77.4771 65.4776 75.3108C65.4776 73.1445 63.7215 71.3884 61.5552 71.3884C59.3889 71.3884 57.6328 73.1445 57.6328 75.3108C57.6328 77.4771 59.3889 79.2332 61.5552 79.2332Z" fill="#D9E5F1"/>
<path d="M61.5552 76.9098C62.4383 76.9098 63.1542 76.1939 63.1542 75.3108C63.1542 74.4277 62.4383 73.7118 61.5552 73.7118C60.6721 73.7118 59.9562 74.4277 59.9562 75.3108C59.9562 76.1939 60.6721 76.9098 61.5552 76.9098Z" fill="#C0C2E3"/>
<path d="M15.7988 150.423H13.9196V154.004H15.7988V150.423Z" fill="#A6446A"/>
<path d="M22.6459 150.423H20.7667V154.004H22.6459V150.423Z" fill="#A6446A"/>
<path d="M22.3247 153.41H14.2408C11.8378 153.411 9.52249 154.312 7.75153 155.937C5.98058 157.561 4.88256 159.79 4.67405 162.184L3.99071 170.015H32.5748L31.8914 162.184C31.6921 159.786 30.5969 157.552 28.8239 155.926C27.0509 154.3 24.7304 153.401 22.3247 153.41Z" fill="#9C6AFF"/>
<path d="M36.5586 170.015H0V172.372H36.5586V170.015Z" fill="#454966"/>
<path d="M23.0179 166.777C25.6331 164.162 25.6331 159.922 23.0179 157.307C20.4026 154.691 16.1625 154.691 13.5473 157.307C10.932 159.922 10.932 164.162 13.5473 166.777C16.1625 169.392 20.4026 169.392 23.0179 166.777Z" fill="#F1E4E9"/>
<path d="M22.1433 165.903C24.2755 163.77 24.2755 160.313 22.1433 158.181C20.0111 156.049 16.5541 156.049 14.4219 158.181C12.2896 160.313 12.2896 163.77 14.4218 165.903C16.5541 168.035 20.0111 168.035 22.1433 165.903Z" fill="white"/>
<path d="M22.4204 160.954H19.3658V157.906H17.1997V160.954H14.1451V163.127H17.1997V166.174H19.3658V163.127H22.4204V160.954Z" fill="#FF546A"/>
<path d="M2.28918 148.332V149.084H10.2637V145.941C10.2637 145.706 10.3101 145.473 10.4002 145.257C10.4902 145.04 10.6222 144.843 10.7885 144.677C10.9549 144.511 11.1523 144.38 11.3695 144.291C11.5867 144.202 11.8193 144.156 12.0541 144.157H24.3542C24.589 144.156 24.8216 144.202 25.0388 144.291C25.256 144.38 25.4534 144.511 25.6198 144.677C25.7861 144.843 25.9181 145.04 26.0081 145.257C26.0982 145.473 26.1445 145.706 26.1445 145.941V149.091H34.1123V148.332C34.1123 145.724 33.0763 143.223 31.2322 141.379C29.3881 139.535 26.887 138.499 24.279 138.499H12.1224C9.51449 138.499 7.01336 139.535 5.16927 141.379C3.32518 143.223 2.28918 145.724 2.28918 148.332Z" fill="#9C6AFF"/>
<path d="M26.1377 145.941V149.091H34.1123V148.332C34.1114 147.165 33.9008 146.008 33.4905 144.916H25.8234C26.0312 145.217 26.141 145.575 26.1377 145.941Z" fill="#454966"/>
<path d="M10.2637 145.941C10.2524 145.578 10.3526 145.22 10.5508 144.916H2.91102C2.50068 146.008 2.29006 147.165 2.28918 148.332V149.084H10.2637V145.941Z" fill="#454966"/>
<path d="M267.384 61.8422H243.289V81.2763H267.384V61.8422Z" fill="#9747FF"/>
<path d="M267.391 81.2695H286.34V72.9054L281.946 71.5593L278.987 64.637H267.391V81.2695Z" fill="#A6446A"/>
<path d="M279.862 72.9874H268.504V66.0584H277.579L279.862 72.9874Z" fill="white"/>
<path d="M256.642 78.1262H247.581L245.77 81.2695H258.453L256.642 78.1262Z" fill="#6A446A"/>
<path d="M279.67 78.1262H270.616L268.805 81.2695H281.488L279.67 78.1262Z" fill="#6A446A"/>
<path d="M252.111 85.0757C254.213 85.0757 255.917 83.3716 255.917 81.2695C255.917 79.1674 254.213 77.4633 252.111 77.4633C250.009 77.4633 248.305 79.1674 248.305 81.2695C248.305 83.3716 250.009 85.0757 252.111 85.0757Z" fill="#454966"/>
<path d="M254.257 81.2695C254.257 81.6939 254.131 82.1088 253.895 82.4616C253.659 82.8145 253.324 83.0895 252.932 83.2519C252.54 83.4143 252.109 83.4568 251.693 83.374C251.276 83.2912 250.894 83.0869 250.594 82.7868C250.294 82.4867 250.089 82.1044 250.007 81.6881C249.924 81.2719 249.966 80.8405 250.129 80.4484C250.291 80.0563 250.566 79.7212 250.919 79.4855C251.272 79.2497 251.687 79.1239 252.111 79.1239C252.68 79.1239 253.226 79.3499 253.628 79.7523C254.031 80.1547 254.257 80.7005 254.257 81.2695Z" fill="#F2EBEB"/>
<path d="M278.953 81.2695C278.954 82.0242 278.731 82.7624 278.313 83.3905C277.894 84.0186 277.299 84.5084 276.602 84.7978C275.905 85.0873 275.138 85.1633 274.397 85.0164C273.657 84.8695 272.977 84.5062 272.443 83.9726C271.91 83.4389 271.546 82.7588 271.4 82.0185C271.253 81.2783 271.329 80.511 271.618 79.814C271.908 79.117 272.397 78.5215 273.026 78.1031C273.654 77.6846 274.392 77.462 275.146 77.4633C276.156 77.4633 277.124 77.8643 277.838 78.5781C278.552 79.2919 278.953 80.26 278.953 81.2695Z" fill="#454966"/>
<path d="M277.436 81.2695C277.436 81.7223 277.301 82.1649 277.05 82.5413C276.798 82.9178 276.441 83.2112 276.023 83.3845C275.604 83.5577 275.144 83.603 274.7 83.5147C274.256 83.4264 273.848 83.2084 273.528 82.8882C273.208 82.5681 272.99 82.1602 272.901 81.7161C272.813 81.2721 272.858 80.8118 273.032 80.3935C273.205 79.9752 273.498 79.6177 273.875 79.3661C274.251 79.1146 274.694 78.9803 275.147 78.9803C275.447 78.9803 275.745 79.0395 276.023 79.1546C276.3 79.2696 276.553 79.4382 276.765 79.6508C276.978 79.8634 277.146 80.1157 277.261 80.3935C277.377 80.6712 277.436 80.9689 277.436 81.2695Z" fill="#F2EBEB"/>
<path d="M283.586 75.181H286.34V72.9055L283.586 72.0581V75.181Z" fill="#FF746A"/>
<path d="M287.406 78.707H284.536V82.4107H287.406V78.707Z" fill="#454966"/>
<path d="M245.175 78.707H242.305V82.4107H245.175V78.707Z" fill="#454966"/>
<path d="M257.207 74.7825C259.897 73.6624 261.169 70.574 260.049 67.8844C258.929 65.1948 255.84 63.9225 253.151 65.0427C250.461 66.1628 249.189 69.2512 250.309 71.9407C251.429 74.6303 254.517 75.9026 257.207 74.7825Z" fill="white"/>
<path d="M258.159 68.9968H255.924V66.7622H254.202V68.9968H251.968V70.7188H254.202V72.9533H255.924V70.7188H258.159V68.9968Z" fill="#FF546A"/>
<path d="M275.14 63.3182H270.103V64.6302H275.14V63.3182Z" fill="#6A446A"/>
<path d="M272.27 61.3092C271.896 61.3092 271.537 61.4573 271.272 61.7211C271.007 61.9848 270.857 62.3429 270.855 62.7169V63.3182H273.636V62.7169C273.636 62.3505 273.494 61.9985 273.239 61.7357C272.983 61.4728 272.636 61.3198 272.27 61.3092Z" fill="#65F5FF"/>
<path d="M129.021 16.5505H96.221C95.2737 16.5505 94.5058 17.3184 94.5058 18.2657V37.5017C94.5058 38.4489 95.2737 39.2168 96.221 39.2168H129.021C129.969 39.2168 130.736 38.4489 130.736 37.5017V18.2657C130.736 17.3184 129.969 16.5505 129.021 16.5505Z" fill="#9C6AFF"/>
<path d="M121.229 29.2813C122.005 24.5171 118.772 20.0261 114.008 19.2502C109.244 18.4743 104.753 21.7074 103.977 26.4715C103.201 31.2357 106.434 35.7268 111.198 36.5027C115.962 37.2786 120.454 34.0454 121.229 29.2813Z" fill="#F1E4E9"/>
<path d="M112.614 35.479C116.811 35.479 120.213 32.0769 120.213 27.8802C120.213 23.6836 116.811 20.2815 112.614 20.2815C108.418 20.2815 105.016 23.6836 105.016 27.8802C105.016 32.0769 108.418 35.479 112.614 35.479Z" fill="white"/>
<path d="M117.698 26.6639H113.837V22.803H111.398V26.6639H107.537V29.0966H111.398V32.9574H113.837V29.0966H117.698V26.6639Z" fill="#FF546A"/>
<path d="M103.806 14.7123H100.799C100.665 14.7123 100.537 14.7655 100.442 14.8604C100.347 14.9552 100.294 15.0838 100.294 15.2179V16.5505H104.319V15.2179C104.317 15.0832 104.262 14.9546 104.166 14.86C104.07 14.7653 103.941 14.7123 103.806 14.7123Z" fill="#8C476A"/>
<path d="M124.436 14.7123H121.423C121.288 14.7123 121.16 14.7655 121.065 14.8604C120.97 14.9552 120.917 15.0838 120.917 15.2179V16.5505H124.942V15.2179C124.942 15.0838 124.888 14.9552 124.794 14.8604C124.699 14.7655 124.57 14.7123 124.436 14.7123Z" fill="#8C476A"/>
<path d="M123.213 14.7123H122.618V9.30023C122.618 8.97882 122.491 8.67047 122.265 8.44256C122.038 8.21464 121.73 8.08569 121.409 8.08389H103.799C103.478 8.08569 103.17 8.21464 102.944 8.44256C102.717 8.67047 102.59 8.97882 102.59 9.30023V14.7123H102.023V9.30023C102.022 9.06634 102.067 8.83457 102.156 8.61823C102.245 8.40188 102.375 8.20521 102.54 8.03951C102.706 7.8738 102.902 7.74232 103.118 7.65261C103.334 7.5629 103.565 7.51672 103.799 7.51672H121.436C121.908 7.51853 122.36 7.70723 122.693 8.04151C123.026 8.37579 123.213 8.8284 123.213 9.30023V14.7123Z" fill="#454966"/>
<path d="M118.662 6.62841H106.574V8.97226H118.662V6.62841Z" fill="#9C6AFF"/>
<path d="M216.53 36.9071L206.28 22.721C205.213 21.243 204.639 19.4665 204.64 17.6438V2.82903H200.615V17.6438C200.615 19.4665 200.041 21.243 198.975 22.721L188.725 36.9071C188.475 37.252 188.326 37.659 188.294 38.0833C188.261 38.5076 188.346 38.9326 188.54 39.3115C188.734 39.6903 189.028 40.0083 189.391 40.2304C189.754 40.4525 190.171 40.5699 190.597 40.5698H214.63C215.058 40.575 215.479 40.4612 215.846 40.2412C216.213 40.0212 216.511 39.7036 216.708 39.3237C216.905 38.9439 216.993 38.5169 216.961 38.0902C216.93 37.6635 216.78 37.2539 216.53 36.9071Z" fill="#C7F5FF"/>
<path d="M216.53 36.9072L206.28 22.721C205.213 21.2431 204.639 19.4665 204.64 17.6438V2.82903H202.118V17.6438C202.118 19.4665 202.691 21.2431 203.758 22.721L214.008 36.9072C214.255 37.2526 214.402 37.6593 214.433 38.0826C214.464 38.506 214.379 38.9298 214.186 39.3078C213.992 39.6858 213.699 40.0034 213.337 40.226C212.976 40.4485 212.56 40.5675 212.136 40.5699H214.657C215.083 40.5699 215.5 40.4525 215.863 40.2304C216.226 40.0084 216.521 39.6903 216.714 39.3115C216.908 38.9326 216.993 38.5076 216.961 38.0833C216.928 37.659 216.779 37.252 216.53 36.9072Z" fill="#BCEBFF"/>
<path d="M205.091 0H200.191C199.816 0 199.456 0.149028 199.191 0.414301C198.926 0.679573 198.777 1.03936 198.777 1.41451C198.777 1.78966 198.926 2.14945 199.191 2.41472C199.456 2.68 199.816 2.82902 200.191 2.82902H205.091C205.466 2.82902 205.826 2.68 206.091 2.41472C206.356 2.14945 206.505 1.78966 206.505 1.41451C206.505 1.03936 206.356 0.679573 206.091 0.414301C205.826 0.149028 205.466 0 205.091 0Z" fill="#CDF5FF"/>
<path d="M188.752 36.9072C188.503 37.252 188.354 37.659 188.321 38.0833C188.288 38.5076 188.374 38.9326 188.567 39.3115C188.761 39.6904 189.056 40.0084 189.419 40.2304C189.782 40.4525 190.199 40.5699 190.624 40.5699H214.657C215.083 40.5699 215.5 40.4525 215.863 40.2304C216.226 40.0084 216.521 39.6904 216.714 39.3115C216.908 38.9326 216.993 38.5076 216.961 38.0833C216.928 37.659 216.779 37.252 216.53 36.9072L210.503 28.5499H194.786L188.752 36.9072Z" fill="#90F5FF"/>
<path d="M216.714 37.1942C216.662 37.093 216.6 36.997 216.53 36.9072L210.503 28.5499H207.981L214.015 36.9072C214.262 37.2531 214.409 37.6604 214.44 38.0843C214.471 38.5083 214.385 38.9326 214.191 39.3108C213.997 39.689 213.702 40.0065 213.34 40.2286C212.977 40.4507 212.561 40.5688 212.136 40.5699H214.657C214.889 40.5716 215.119 40.5393 215.341 40.4742C215.544 40.4149 215.738 40.325 215.915 40.2077C216.186 40.0482 216.419 39.8313 216.598 39.5722C216.833 39.2243 216.968 38.8187 216.988 38.3994C217.009 37.9801 216.914 37.5633 216.714 37.1942Z" fill="#77E0FF"/>
<path d="M199.405 31.8026C199.405 32.1229 199.31 32.436 199.132 32.7024C198.954 32.9687 198.701 33.1763 198.405 33.2988C198.11 33.4214 197.784 33.4535 197.47 33.391C197.156 33.3285 196.867 33.1743 196.641 32.9478C196.414 32.7213 196.26 32.4327 196.197 32.1186C196.135 31.8044 196.167 31.4788 196.289 31.1828C196.412 30.8869 196.62 30.634 196.886 30.456C197.152 30.2781 197.465 30.1831 197.786 30.1831C197.999 30.1822 198.21 30.2235 198.407 30.3045C198.603 30.3856 198.782 30.5049 198.933 30.6554C199.083 30.806 199.203 30.9849 199.284 31.1818C199.365 31.3787 199.406 31.5897 199.405 31.8026Z" fill="#76DBFF"/>
<path d="M210.728 36.9482C210.728 37.2685 210.633 37.5816 210.455 37.8479C210.277 38.1142 210.024 38.3218 209.728 38.4444C209.432 38.567 209.107 38.599 208.793 38.5366C208.479 38.4741 208.19 38.3198 207.963 38.0933C207.737 37.8668 207.583 37.5783 207.52 37.2641C207.458 36.95 207.49 36.6243 207.612 36.3284C207.735 36.0325 207.943 35.7795 208.209 35.6016C208.475 35.4236 208.788 35.3286 209.109 35.3286C209.538 35.3286 209.95 35.4993 210.254 35.803C210.558 36.1067 210.728 36.5186 210.728 36.9482Z" fill="#76DBFF"/>
<path d="M206.833 32.7456C206.833 32.9456 206.774 33.1412 206.663 33.3075C206.552 33.4738 206.394 33.6034 206.209 33.68C206.024 33.7565 205.821 33.7765 205.624 33.7375C205.428 33.6985 205.248 33.6022 205.107 33.4607C204.965 33.3193 204.869 33.1391 204.83 32.9429C204.791 32.7467 204.811 32.5434 204.887 32.3586C204.964 32.1738 205.094 32.0158 205.26 31.9047C205.426 31.7936 205.622 31.7343 205.822 31.7343C205.955 31.7343 206.086 31.7604 206.209 31.8112C206.331 31.8621 206.443 31.9366 206.537 32.0305C206.631 32.1244 206.705 32.2359 206.756 32.3586C206.807 32.4813 206.833 32.6128 206.833 32.7456Z" fill="#76DBFF"/>
<path d="M201.428 36.586C201.429 36.7863 201.371 36.9825 201.261 37.1497C201.15 37.3169 200.993 37.4476 200.808 37.5252C200.624 37.6028 200.42 37.6238 200.223 37.5855C200.027 37.5473 199.846 37.4515 199.704 37.3104C199.562 37.1692 199.465 36.989 199.425 36.7926C199.386 36.5963 199.405 36.3926 199.482 36.2074C199.558 36.0222 199.687 35.8638 199.854 35.7524C200.02 35.641 200.216 35.5815 200.417 35.5815C200.684 35.5815 200.94 35.6871 201.129 35.8753C201.319 36.0635 201.426 36.3189 201.428 36.586Z" fill="#76DBFF"/>
<path d="M194.963 37.6315C194.965 37.9224 194.88 38.2071 194.719 38.4496C194.559 38.6921 194.33 38.8815 194.061 38.9937C193.793 39.1059 193.497 39.136 193.212 39.0801C192.926 39.0242 192.664 38.8848 192.458 38.6796C192.252 38.4744 192.111 38.2127 192.054 37.9275C191.997 37.6423 192.025 37.3465 192.136 37.0777C192.247 36.8088 192.436 36.579 192.677 36.4172C192.919 36.2555 193.203 36.1692 193.494 36.1692C193.883 36.1691 194.255 36.323 194.531 36.597C194.806 36.8711 194.962 37.243 194.963 37.6315Z" fill="#76DBFF"/>
<path d="M190.146 18.6142C189.92 18.4608 189.727 18.264 189.579 18.0352C189.43 17.8063 189.328 17.5501 189.28 17.2815C189.232 17.0129 189.237 16.7374 189.297 16.471C189.356 16.2047 189.468 15.9529 189.627 15.7305L191.902 12.4573C192.055 12.2315 192.252 12.0386 192.481 11.8899C192.71 11.7412 192.966 11.6397 193.235 11.5913C193.503 11.5429 193.779 11.5487 194.045 11.6082C194.312 11.6677 194.563 11.7798 194.786 11.9379C195.012 12.0912 195.204 12.2881 195.353 12.5169C195.502 12.7458 195.603 13.002 195.652 13.2706C195.7 13.5392 195.694 13.8147 195.635 14.0811C195.575 14.3474 195.463 14.5992 195.305 14.8216L193.002 18.0948C192.849 18.3168 192.654 18.5063 192.427 18.6526C192.2 18.7988 191.947 18.899 191.682 18.9472C191.417 18.9955 191.144 18.9909 190.881 18.9337C190.617 18.8766 190.367 18.768 190.146 18.6142Z" fill="#A6446A"/>
<path d="M190.146 18.6142C189.92 18.4608 189.727 18.264 189.579 18.0352C189.43 17.8063 189.328 17.5501 189.28 17.2815C189.232 17.0129 189.237 16.7374 189.297 16.471C189.356 16.2047 189.468 15.9529 189.627 15.7305L190.768 14.0904L194.184 16.4616L193.002 18.0948C192.849 18.3168 192.654 18.5063 192.427 18.6526C192.2 18.7988 191.947 18.899 191.682 18.9472C191.417 18.9955 191.144 18.9909 190.881 18.9337C190.617 18.8766 190.367 18.768 190.146 18.6142Z" fill="#9C6AFF"/>
<path d="M218.546 32.3766C218.32 32.2233 218.127 32.0265 217.978 31.7976C217.829 31.5688 217.728 31.3126 217.68 31.044C217.631 30.7754 217.637 30.4998 217.696 30.2335C217.756 29.9671 217.868 29.7154 218.026 29.4929L220.336 26.2197C220.489 25.994 220.686 25.801 220.915 25.6523C221.144 25.5036 221.4 25.4021 221.669 25.3538C221.937 25.3054 222.213 25.3111 222.479 25.3707C222.745 25.4302 222.997 25.5423 223.22 25.7004C223.445 25.8537 223.638 26.0505 223.787 26.2794C223.936 26.5082 224.037 26.7645 224.086 27.033C224.134 27.3016 224.128 27.5772 224.069 27.8435C224.009 28.1099 223.897 28.3616 223.739 28.5841L221.463 31.8573C221.31 32.0879 221.112 32.2851 220.88 32.4369C220.648 32.5888 220.388 32.6921 220.115 32.7406C219.843 32.7891 219.563 32.7819 219.293 32.7193C219.023 32.6568 218.769 32.5402 218.546 32.3766Z" fill="#9C6AFF"/>
<path d="M218.546 32.3766C218.32 32.2233 218.127 32.0264 217.978 31.7976C217.829 31.5688 217.728 31.3125 217.68 31.0439C217.631 30.7754 217.637 30.4998 217.696 30.2335C217.756 29.9671 217.868 29.7154 218.026 29.4929L219.167 27.8597L222.584 30.2241L221.45 31.8573C221.296 32.086 221.099 32.2814 220.868 32.432C220.637 32.5825 220.379 32.6851 220.108 32.7336C219.837 32.7821 219.559 32.7754 219.29 32.7141C219.022 32.6528 218.769 32.538 218.546 32.3766Z" fill="#A6446A"/>
<path d="M188.301 30.6682C188.52 31.1604 188.589 31.7063 188.499 32.2374C188.409 32.7686 188.164 33.2613 187.794 33.6536C187.425 34.0459 186.948 34.3203 186.424 34.4425C185.899 34.5646 185.35 34.5289 184.845 34.34C184.341 34.151 183.903 33.8172 183.588 33.3804C183.273 32.9437 183.093 32.4234 183.073 31.8851C183.052 31.3468 183.191 30.8143 183.472 30.3547C183.753 29.895 184.163 29.5286 184.652 29.3016C184.981 29.1487 185.337 29.0628 185.699 29.0489C186.062 29.035 186.423 29.0933 186.763 29.2205C187.102 29.3477 187.413 29.5412 187.677 29.7898C187.941 30.0383 188.153 30.3369 188.301 30.6682Z" fill="#9C6AFF"/>
<path d="M184.652 29.2811C184.321 29.4286 184.022 29.6406 183.773 29.9047C183.525 30.1688 183.331 30.4797 183.204 30.8193C183.077 31.1589 183.019 31.5205 183.033 31.8829C183.046 32.2452 183.132 32.6012 183.285 32.9301L188.315 30.6682C188.169 30.3335 187.958 30.0312 187.694 29.7793C187.429 29.5275 187.117 29.3311 186.776 29.2018C186.435 29.0725 186.071 29.0129 185.706 29.0265C185.341 29.0401 184.983 29.1267 184.652 29.2811Z" fill="#FFB527"/>
<path d="M216.728 16.9058C216.947 17.3979 217.016 17.9439 216.926 18.475C216.836 19.0061 216.591 19.4988 216.221 19.8911C215.852 20.2834 215.375 20.5579 214.851 20.68C214.326 20.8021 213.777 20.7665 213.272 20.5775C212.768 20.3886 212.33 20.0547 212.015 19.618C211.7 19.1812 211.52 18.661 211.5 18.1227C211.479 17.5843 211.618 17.0519 211.899 16.5922C212.18 16.1326 212.59 15.7662 213.079 15.5391C213.408 15.3863 213.764 15.3004 214.126 15.2865C214.488 15.2726 214.85 15.3309 215.19 15.4581C215.529 15.5853 215.84 15.7788 216.104 16.0274C216.368 16.2759 216.58 16.5745 216.728 16.9058Z" fill="#FFB527"/>
<path d="M213.079 15.5186C212.748 15.6662 212.449 15.8782 212.2 16.1423C211.952 16.4063 211.758 16.7173 211.631 17.0569C211.504 17.3965 211.446 17.758 211.459 18.1204C211.473 18.4828 211.559 18.8388 211.712 19.1677L216.741 16.9058C216.596 16.571 216.385 16.2688 216.121 16.0169C215.856 15.765 215.544 15.5687 215.203 15.4394C214.861 15.3101 214.498 15.2505 214.133 15.2641C213.768 15.2777 213.41 15.3643 213.079 15.5186Z" fill="#9C6AFF"/>
<path d="M112.614 39.2168H129.014C129.24 39.2168 129.464 39.1722 129.672 39.0856C129.881 38.999 130.07 38.8721 130.23 38.7121C130.389 38.5521 130.515 38.3622 130.601 38.1533C130.687 37.9444 130.731 37.7206 130.73 37.4948V18.2657C130.73 17.8108 130.549 17.3745 130.227 17.0528C129.906 16.7312 129.469 16.5505 129.014 16.5505H127.921C127.921 16.5505 129.609 36.2648 112.614 39.2168Z" fill="#636363"/>
<path d="M129.014 39.2168C129.24 39.2168 129.464 39.1722 129.672 39.0856C129.881 38.999 130.07 38.8721 130.23 38.7121C130.389 38.5521 130.515 38.3622 130.601 38.1533C130.687 37.9444 130.73 37.7206 130.73 37.4948V25.7072C129.431 30.1763 126.835 36.5518 122.154 39.2168H129.014Z" fill="#9747FF"/>
<path d="M75.8848 169.769L69.3042 157.558H44.3282V156.799H69.7621L76.5545 169.407L75.8848 169.769Z" fill="#5E9DA6"/>
<path d="M239.374 169.769L238.704 169.407L245.496 156.799H264.855V157.558H245.947L239.374 169.769Z" fill="#5E9DA6"/>
<path d="M123.937 115.846L100.451 77.0601H76.6638V76.3016H100.875L124.586 115.45L123.937 115.846Z" fill="#5E9DA6"/>
<path d="M191.321 115.846L190.672 115.45L214.384 76.3016H234.064V77.0601H214.808L191.321 115.846Z" fill="#5E9DA6"/>
<path d="M149.918 80.4769L141.41 27.5864H135.875V26.8279H142.053L150.669 80.3539L149.918 80.4769Z" fill="#5E9DA6"/>
<path d="M165.334 80.4769L164.589 80.3539L173.206 26.8279H179.383V27.5864H173.848L165.334 80.4769Z" fill="#5E9DA6"/>
</svg>
