<svg width="300" height="212" viewBox="0 0 300 212" fill="none" xmlns="http://www.w3.org/2000/svg">
<path d="M60.11 208.634C60.11 208.634 40.3541 191.218 14.1766 133.412C-12.0009 75.6056 -2.03947 7.54181 45.01 0.995799C92.0594 -5.55021 128.591 22.3194 128.591 22.3194C128.591 22.3194 181.066 5.55346 222.952 17.0188C264.838 28.4841 260.716 84.6669 260.716 84.6669C260.716 84.6669 287.129 100.268 297.909 135.713C308.688 171.158 271.605 208.483 271.605 208.483L60.11 208.634Z" fill="#E7DBFF"/>
<path d="M290.916 206.969H44.83C43.4688 206.969 42.3654 208.073 42.3654 209.434V209.504C42.3654 210.865 43.4688 211.969 44.83 211.969H290.916C292.277 211.969 293.38 210.865 293.38 209.504V209.434C293.38 208.073 292.277 206.969 290.916 206.969Z" fill="#505D68"/>
<path d="M241.557 175.832H73.4327C70.5198 175.832 68.1583 173.629 68.1583 170.912L64.9606 55.8121C64.9606 53.0939 67.322 50.8911 70.235 50.8911H246.355C249.268 50.8911 251.63 53.0939 251.63 55.8121L246.832 170.912C246.832 173.629 244.47 175.832 241.557 175.832Z" fill="#A19AE4"/>
<path d="M249.581 51.9189C250.156 52.7135 250.467 53.6692 250.468 54.6502L245.673 169.75C245.673 172.467 243.312 174.67 240.399 174.67H72.2709C71.1143 174.675 69.9855 174.316 69.0453 173.642C69.5506 174.329 70.212 174.885 70.9749 175.266C71.7377 175.647 72.5802 175.841 73.4328 175.832H241.557C244.47 175.832 246.832 173.629 246.832 170.912L251.63 55.8121C251.623 55.047 251.433 54.2945 251.077 53.6174C250.721 52.9403 250.208 52.358 249.581 51.9189Z" fill="#676E9C"/>
<path d="M75.4767 162.358L72.2725 59.1849C72.2725 56.4667 74.6339 54.264 77.5453 54.264H240.881C243.794 54.264 246.156 56.4667 246.156 59.1849L241.358 162.358C241.358 165.075 238.998 167.278 236.085 167.278H80.7446C77.8317 167.278 75.4767 165.076 75.4767 162.358Z" fill="#6CBDE1"/>
<path d="M75.2313 164.888L72.0401 61.715C72.0401 58.9984 74.4016 56.7956 77.3146 56.7956H240.651C243.564 56.7956 245.923 58.9984 245.923 61.715L241.127 164.888C241.127 167.605 238.765 169.808 235.852 169.808H80.5041C77.5911 169.808 75.2313 167.605 75.2313 164.888Z" fill="url(#paint0_linear_54_858)"/>
<path style="mix-blend-mode:screen" opacity="0.32" d="M212.951 118.313C193.135 153.171 158.619 137.788 111.652 130.612C95.8823 128.198 83.7084 133.328 74.4949 141.21L75.2296 164.888C75.2296 167.605 77.5895 169.808 80.5025 169.808H235.843C238.756 169.808 241.117 167.605 241.117 164.888L244.405 94.1799C229.914 101.089 218.162 109.149 212.951 118.313Z" fill="url(#paint1_linear_54_858)"/>
<path d="M234.939 163.576H231.994C231.97 163.581 231.945 163.581 231.921 163.576C231.897 163.57 231.874 163.56 231.855 163.544C231.836 163.529 231.82 163.509 231.81 163.487C231.799 163.465 231.793 163.441 231.793 163.416C231.793 163.392 231.799 163.367 231.81 163.345C231.82 163.323 231.836 163.304 231.855 163.288C231.874 163.273 231.897 163.262 231.921 163.257C231.945 163.251 231.97 163.251 231.994 163.257H234.632L234.672 162.365C234.673 162.343 234.679 162.322 234.688 162.303C234.697 162.283 234.71 162.266 234.726 162.251C234.741 162.237 234.76 162.225 234.78 162.218C234.801 162.211 234.822 162.208 234.843 162.209C234.865 162.209 234.886 162.215 234.906 162.224C234.925 162.233 234.943 162.246 234.957 162.262C234.972 162.278 234.983 162.296 234.99 162.316C234.997 162.337 235.001 162.358 235 162.38L234.939 163.576ZM228.161 163.576H224.325C224.289 163.568 224.256 163.547 224.233 163.518C224.21 163.489 224.198 163.453 224.198 163.416C224.198 163.379 224.21 163.343 224.233 163.314C224.256 163.285 224.289 163.265 224.325 163.257H228.162C228.186 163.251 228.211 163.251 228.235 163.257C228.259 163.262 228.282 163.273 228.301 163.288C228.32 163.304 228.336 163.323 228.346 163.345C228.357 163.367 228.362 163.392 228.362 163.416C228.362 163.441 228.357 163.465 228.346 163.487C228.336 163.509 228.32 163.529 228.301 163.544C228.282 163.56 228.259 163.57 228.235 163.576C228.211 163.581 228.186 163.581 228.162 163.576H228.161ZM220.491 163.576H216.655C216.631 163.581 216.606 163.581 216.582 163.576C216.558 163.57 216.535 163.56 216.516 163.544C216.497 163.529 216.481 163.509 216.471 163.487C216.46 163.465 216.455 163.441 216.455 163.416C216.455 163.392 216.46 163.367 216.471 163.345C216.481 163.323 216.497 163.304 216.516 163.288C216.535 163.273 216.558 163.262 216.582 163.257C216.606 163.251 216.631 163.251 216.655 163.257H220.491C220.527 163.265 220.559 163.285 220.582 163.314C220.605 163.343 220.618 163.379 220.618 163.416C220.618 163.453 220.605 163.489 220.582 163.518C220.559 163.547 220.527 163.568 220.491 163.576ZM212.819 163.576H208.983C208.946 163.568 208.914 163.547 208.891 163.518C208.868 163.489 208.855 163.453 208.855 163.416C208.855 163.379 208.868 163.343 208.891 163.314C208.914 163.285 208.946 163.265 208.983 163.257H212.819C212.843 163.251 212.867 163.251 212.891 163.257C212.915 163.262 212.938 163.273 212.957 163.288C212.976 163.304 212.992 163.323 213.002 163.345C213.013 163.367 213.019 163.392 213.019 163.416C213.019 163.441 213.013 163.465 213.002 163.487C212.992 163.509 212.976 163.529 212.957 163.544C212.938 163.56 212.915 163.57 212.891 163.576C212.867 163.581 212.843 163.581 212.819 163.576ZM205.148 163.576H201.312C201.288 163.581 201.264 163.581 201.24 163.576C201.216 163.57 201.193 163.56 201.174 163.544C201.155 163.529 201.139 163.509 201.129 163.487C201.118 163.465 201.112 163.441 201.112 163.416C201.112 163.392 201.118 163.367 201.129 163.345C201.139 163.323 201.155 163.304 201.174 163.288C201.193 163.273 201.216 163.262 201.24 163.257C201.264 163.251 201.288 163.251 201.312 163.257H205.148C205.184 163.265 205.217 163.285 205.24 163.314C205.263 163.343 205.276 163.379 205.276 163.416C205.276 163.453 205.263 163.489 205.24 163.518C205.217 163.547 205.184 163.568 205.148 163.576ZM197.476 163.576H193.64C193.604 163.568 193.572 163.547 193.549 163.518C193.526 163.489 193.513 163.453 193.513 163.416C193.513 163.379 193.526 163.343 193.549 163.314C193.572 163.285 193.604 163.265 193.64 163.257H197.476C197.5 163.251 197.525 163.251 197.549 163.257C197.573 163.262 197.596 163.273 197.615 163.288C197.634 163.304 197.65 163.323 197.66 163.345C197.671 163.367 197.676 163.392 197.676 163.416C197.676 163.441 197.671 163.465 197.66 163.487C197.65 163.509 197.634 163.529 197.615 163.544C197.596 163.56 197.573 163.57 197.549 163.576C197.525 163.581 197.5 163.581 197.476 163.576ZM189.806 163.576H185.97C185.946 163.581 185.921 163.581 185.897 163.576C185.873 163.57 185.851 163.56 185.832 163.544C185.813 163.529 185.797 163.509 185.786 163.487C185.776 163.465 185.77 163.441 185.77 163.416C185.77 163.392 185.776 163.367 185.786 163.345C185.797 163.323 185.813 163.304 185.832 163.288C185.851 163.273 185.873 163.262 185.897 163.257C185.921 163.251 185.946 163.251 185.97 163.257H189.806C189.842 163.265 189.875 163.285 189.898 163.314C189.921 163.343 189.933 163.379 189.933 163.416C189.933 163.453 189.921 163.489 189.898 163.518C189.875 163.547 189.842 163.568 189.806 163.576ZM182.134 163.576H178.298C178.262 163.568 178.23 163.547 178.207 163.518C178.184 163.489 178.171 163.453 178.171 163.416C178.171 163.379 178.184 163.343 178.207 163.314C178.23 163.285 178.262 163.265 178.298 163.257H182.134C182.158 163.251 182.183 163.251 182.207 163.257C182.231 163.262 182.253 163.273 182.273 163.288C182.292 163.304 182.307 163.323 182.318 163.345C182.329 163.367 182.334 163.392 182.334 163.416C182.334 163.441 182.329 163.465 182.318 163.487C182.307 163.509 182.292 163.529 182.273 163.544C182.253 163.56 182.231 163.57 182.207 163.576C182.183 163.581 182.158 163.581 182.134 163.576ZM174.464 163.576H170.628C170.604 163.581 170.579 163.581 170.555 163.576C170.531 163.57 170.509 163.56 170.49 163.544C170.47 163.529 170.455 163.509 170.444 163.487C170.433 163.465 170.428 163.441 170.428 163.416C170.428 163.392 170.433 163.367 170.444 163.345C170.455 163.323 170.47 163.304 170.49 163.288C170.509 163.273 170.531 163.262 170.555 163.257C170.579 163.251 170.604 163.251 170.628 163.257H174.464C174.5 163.265 174.532 163.285 174.555 163.314C174.579 163.343 174.591 163.379 174.591 163.416C174.591 163.453 174.579 163.489 174.555 163.518C174.532 163.547 174.5 163.568 174.464 163.576ZM166.792 163.576H162.956C162.92 163.568 162.888 163.547 162.864 163.518C162.841 163.489 162.829 163.453 162.829 163.416C162.829 163.379 162.841 163.343 162.864 163.314C162.888 163.285 162.92 163.265 162.956 163.257H166.794C166.818 163.251 166.842 163.251 166.866 163.257C166.89 163.262 166.913 163.273 166.932 163.288C166.951 163.304 166.967 163.323 166.977 163.345C166.988 163.367 166.994 163.392 166.994 163.416C166.994 163.441 166.988 163.465 166.977 163.487C166.967 163.509 166.951 163.529 166.932 163.544C166.913 163.56 166.89 163.57 166.866 163.576C166.842 163.581 166.818 163.581 166.794 163.576H166.792ZM159.122 163.576H155.286C155.262 163.581 155.237 163.581 155.213 163.576C155.189 163.57 155.167 163.56 155.147 163.544C155.128 163.529 155.113 163.509 155.102 163.487C155.091 163.465 155.086 163.441 155.086 163.416C155.086 163.392 155.091 163.367 155.102 163.345C155.113 163.323 155.128 163.304 155.147 163.288C155.167 163.273 155.189 163.262 155.213 163.257C155.237 163.251 155.262 163.251 155.286 163.257H159.122C159.158 163.265 159.19 163.285 159.213 163.314C159.236 163.343 159.249 163.379 159.249 163.416C159.249 163.453 159.236 163.489 159.213 163.518C159.19 163.547 159.158 163.568 159.122 163.576ZM151.45 163.576H147.614C147.578 163.568 147.545 163.547 147.522 163.518C147.499 163.489 147.487 163.453 147.487 163.416C147.487 163.379 147.499 163.343 147.522 163.314C147.545 163.285 147.578 163.265 147.614 163.257H151.45C151.474 163.251 151.499 163.251 151.523 163.257C151.547 163.262 151.569 163.273 151.588 163.288C151.607 163.304 151.623 163.323 151.634 163.345C151.644 163.367 151.65 163.392 151.65 163.416C151.65 163.441 151.644 163.465 151.634 163.487C151.623 163.509 151.607 163.529 151.588 163.544C151.569 163.56 151.547 163.57 151.523 163.576C151.499 163.581 151.474 163.581 151.45 163.576ZM143.779 163.576H139.944C139.92 163.581 139.895 163.581 139.871 163.576C139.847 163.57 139.824 163.56 139.805 163.544C139.786 163.529 139.77 163.509 139.76 163.487C139.749 163.465 139.743 163.441 139.743 163.416C139.743 163.392 139.749 163.367 139.76 163.345C139.77 163.323 139.786 163.304 139.805 163.288C139.824 163.273 139.847 163.262 139.871 163.257C139.895 163.251 139.92 163.251 139.944 163.257H143.779C143.816 163.265 143.848 163.285 143.871 163.314C143.894 163.343 143.907 163.379 143.907 163.416C143.907 163.453 143.894 163.489 143.871 163.518C143.848 163.547 143.816 163.568 143.779 163.576ZM136.108 163.576H132.272C132.235 163.568 132.203 163.547 132.18 163.518C132.157 163.489 132.144 163.453 132.144 163.416C132.144 163.379 132.157 163.343 132.18 163.314C132.203 163.285 132.235 163.265 132.272 163.257H136.108C136.132 163.251 136.156 163.251 136.18 163.257C136.204 163.262 136.227 163.273 136.246 163.288C136.265 163.304 136.281 163.323 136.291 163.345C136.302 163.367 136.308 163.392 136.308 163.416C136.308 163.441 136.302 163.465 136.291 163.487C136.281 163.509 136.265 163.529 136.246 163.544C136.227 163.56 136.204 163.57 136.18 163.576C136.156 163.581 136.132 163.581 136.108 163.576ZM128.437 163.576H124.601C124.577 163.581 124.552 163.581 124.528 163.576C124.505 163.57 124.482 163.56 124.463 163.544C124.444 163.529 124.428 163.509 124.417 163.487C124.407 163.465 124.401 163.441 124.401 163.416C124.401 163.392 124.407 163.367 124.417 163.345C124.428 163.323 124.444 163.304 124.463 163.288C124.482 163.273 124.505 163.262 124.528 163.257C124.552 163.251 124.577 163.251 124.601 163.257H128.437C128.473 163.265 128.506 163.285 128.529 163.314C128.552 163.343 128.565 163.379 128.565 163.416C128.565 163.453 128.552 163.489 128.529 163.518C128.506 163.547 128.473 163.568 128.437 163.576ZM120.765 163.576H116.931C116.907 163.581 116.882 163.581 116.858 163.576C116.834 163.57 116.812 163.56 116.793 163.544C116.773 163.529 116.758 163.509 116.747 163.487C116.737 163.465 116.731 163.441 116.731 163.416C116.731 163.392 116.737 163.367 116.747 163.345C116.758 163.323 116.773 163.304 116.793 163.288C116.812 163.273 116.834 163.262 116.858 163.257C116.882 163.251 116.907 163.251 116.931 163.257H120.765C120.789 163.251 120.814 163.251 120.838 163.257C120.862 163.262 120.885 163.273 120.904 163.288C120.923 163.304 120.938 163.323 120.949 163.345C120.96 163.367 120.965 163.392 120.965 163.416C120.965 163.441 120.96 163.465 120.949 163.487C120.938 163.509 120.923 163.529 120.904 163.544C120.885 163.56 120.862 163.57 120.838 163.576C120.814 163.581 120.789 163.581 120.765 163.576ZM113.095 163.576H109.259C109.235 163.581 109.21 163.581 109.186 163.576C109.162 163.57 109.14 163.56 109.121 163.544C109.101 163.529 109.086 163.509 109.075 163.487C109.065 163.465 109.059 163.441 109.059 163.416C109.059 163.392 109.065 163.367 109.075 163.345C109.086 163.323 109.101 163.304 109.121 163.288C109.14 163.273 109.162 163.262 109.186 163.257C109.21 163.251 109.235 163.251 109.259 163.257H113.095C113.131 163.265 113.163 163.285 113.187 163.314C113.21 163.343 113.222 163.379 113.222 163.416C113.222 163.453 113.21 163.489 113.187 163.518C113.163 163.547 113.131 163.568 113.095 163.576ZM105.423 163.576H101.589C101.565 163.581 101.54 163.581 101.516 163.576C101.492 163.57 101.47 163.56 101.45 163.544C101.431 163.529 101.416 163.509 101.405 163.487C101.394 163.465 101.389 163.441 101.389 163.416C101.389 163.392 101.394 163.367 101.405 163.345C101.416 163.323 101.431 163.304 101.45 163.288C101.47 163.273 101.492 163.262 101.516 163.257C101.54 163.251 101.565 163.251 101.589 163.257H105.425C105.449 163.251 105.474 163.251 105.498 163.257C105.522 163.262 105.544 163.273 105.563 163.288C105.582 163.304 105.598 163.323 105.609 163.345C105.619 163.367 105.625 163.392 105.625 163.416C105.625 163.441 105.619 163.465 105.609 163.487C105.598 163.509 105.582 163.529 105.563 163.544C105.544 163.56 105.522 163.57 105.498 163.576C105.474 163.581 105.449 163.581 105.425 163.576H105.423ZM97.7528 163.576H93.9169C93.8929 163.581 93.868 163.581 93.844 163.576C93.8201 163.57 93.7977 163.56 93.7784 163.544C93.7592 163.529 93.7437 163.509 93.733 163.487C93.7224 163.465 93.7169 163.441 93.7169 163.416C93.7169 163.392 93.7224 163.367 93.733 163.345C93.7437 163.323 93.7592 163.304 93.7784 163.288C93.7977 163.273 93.8201 163.262 93.844 163.257C93.868 163.251 93.8929 163.251 93.9169 163.257H97.7528C97.789 163.265 97.8213 163.285 97.8444 163.314C97.8675 163.343 97.8801 163.379 97.8801 163.416C97.8801 163.453 97.8675 163.489 97.8444 163.518C97.8213 163.547 97.789 163.568 97.7528 163.576ZM90.0809 163.576H86.2466C86.2226 163.581 86.1977 163.581 86.1738 163.576C86.1498 163.57 86.1274 163.56 86.1082 163.544C86.0889 163.529 86.0734 163.509 86.0628 163.487C86.0521 163.465 86.0466 163.441 86.0466 163.416C86.0466 163.392 86.0521 163.367 86.0628 163.345C86.0734 163.323 86.0889 163.304 86.1082 163.288C86.1274 163.273 86.1498 163.262 86.1738 163.257C86.1977 163.251 86.2226 163.251 86.2466 163.257H90.0809C90.1049 163.251 90.1298 163.251 90.1537 163.257C90.1777 163.262 90.2001 163.273 90.2193 163.288C90.2385 163.304 90.2541 163.323 90.2647 163.345C90.2754 163.367 90.2809 163.392 90.2809 163.416C90.2809 163.441 90.2754 163.465 90.2647 163.487C90.2541 163.509 90.2385 163.529 90.2193 163.544C90.2001 163.56 90.1777 163.57 90.1537 163.576C90.1298 163.581 90.1049 163.581 90.0809 163.576ZM82.4106 163.576H81.4287L81.306 159.588C81.3059 159.546 81.3218 159.506 81.3504 159.475C81.379 159.445 81.4181 159.426 81.4598 159.424C81.5032 159.424 81.5448 159.441 81.5755 159.472C81.6062 159.503 81.6235 159.544 81.6235 159.588L81.738 163.266H82.4123C82.4484 163.275 82.4807 163.295 82.5038 163.324C82.5269 163.353 82.5395 163.389 82.5395 163.426C82.5395 163.463 82.5269 163.499 82.5038 163.528C82.4807 163.557 82.4484 163.577 82.4123 163.586L82.4106 163.576ZM235.014 158.701C234.973 158.698 234.934 158.679 234.906 158.649C234.878 158.618 234.862 158.579 234.862 158.537L235.041 154.704C235.042 154.683 235.047 154.662 235.056 154.642C235.065 154.623 235.078 154.605 235.094 154.591C235.11 154.576 235.128 154.565 235.149 154.558C235.169 154.55 235.19 154.547 235.212 154.548C235.233 154.549 235.254 154.554 235.274 154.563C235.293 154.572 235.311 154.585 235.325 154.601C235.34 154.617 235.351 154.636 235.358 154.656C235.366 154.676 235.369 154.698 235.368 154.719L235.19 158.552C235.184 158.593 235.163 158.631 235.131 158.658C235.098 158.684 235.056 158.697 235.014 158.694V158.701ZM81.3469 155.909C81.3035 155.909 81.2619 155.892 81.2312 155.861C81.2005 155.83 81.1832 155.789 81.1832 155.745L81.0654 151.911C81.0653 151.869 81.0812 151.829 81.1098 151.798C81.1384 151.768 81.1776 151.75 81.2192 151.747C81.261 151.747 81.3012 151.763 81.3316 151.792C81.362 151.82 81.3804 151.859 81.3829 151.901L81.5007 155.735C81.5008 155.777 81.4849 155.817 81.4563 155.848C81.4277 155.878 81.3886 155.896 81.3469 155.899V155.909ZM235.363 151.037C235.322 151.034 235.283 151.015 235.255 150.985C235.226 150.955 235.211 150.915 235.211 150.873L235.389 147.042C235.392 147.001 235.411 146.962 235.441 146.934C235.471 146.906 235.511 146.89 235.553 146.89C235.594 146.893 235.633 146.911 235.661 146.942C235.69 146.972 235.705 147.012 235.705 147.054L235.527 150.885C235.524 150.926 235.505 150.965 235.475 150.993C235.445 151.021 235.405 151.037 235.363 151.037ZM81.0981 148.24C81.0564 148.24 81.0162 148.224 80.9858 148.196C80.9553 148.167 80.937 148.128 80.9345 148.086L80.815 144.252C80.8221 144.216 80.8413 144.183 80.8696 144.158C80.8979 144.134 80.9335 144.121 80.9707 144.12C81.0078 144.118 81.0442 144.13 81.0739 144.152C81.1036 144.174 81.1249 144.206 81.1341 144.242L81.2536 148.076C81.2536 148.12 81.2364 148.162 81.2057 148.192C81.175 148.223 81.1334 148.24 81.09 148.24H81.0981ZM235.72 143.375C235.678 143.372 235.64 143.353 235.611 143.323C235.583 143.293 235.568 143.253 235.568 143.211L235.746 139.38C235.749 139.339 235.767 139.3 235.798 139.272C235.828 139.243 235.868 139.228 235.91 139.228C235.951 139.231 235.99 139.249 236.018 139.28C236.046 139.31 236.062 139.35 236.062 139.392L235.883 143.223C235.881 143.263 235.863 143.301 235.834 143.329C235.805 143.357 235.767 143.373 235.726 143.375H235.72ZM80.8609 140.573C80.8191 140.573 80.7789 140.557 80.7485 140.529C80.718 140.5 80.6997 140.461 80.6972 140.419L80.5794 136.585C80.5794 136.542 80.5966 136.5 80.6273 136.469C80.658 136.439 80.6996 136.421 80.743 136.421C80.785 136.421 80.8255 136.437 80.8559 136.466C80.8864 136.495 80.9046 136.535 80.9067 136.577L81.0261 140.409C81.0262 140.451 81.0101 140.492 80.9811 140.522C80.9522 140.553 80.9126 140.571 80.8707 140.573H80.8609ZM236.077 135.713H236.068C236.027 135.71 235.988 135.691 235.96 135.661C235.932 135.631 235.916 135.591 235.916 135.549L236.095 131.718C236.097 131.677 236.116 131.638 236.146 131.61C236.177 131.581 236.217 131.566 236.258 131.566C236.3 131.569 236.338 131.587 236.367 131.618C236.395 131.648 236.411 131.688 236.41 131.729L236.232 135.562C236.229 135.601 236.213 135.637 236.185 135.665C236.158 135.692 236.122 135.709 236.083 135.713H236.077ZM80.6236 132.906C80.5802 132.906 80.5385 132.889 80.5078 132.858C80.4772 132.827 80.4599 132.786 80.4599 132.742L80.3421 128.91C80.342 128.868 80.3579 128.828 80.3865 128.797C80.4151 128.767 80.4542 128.749 80.4959 128.746C80.5393 128.746 80.5809 128.763 80.6116 128.794C80.6423 128.825 80.6596 128.866 80.6596 128.91L80.7774 132.742C80.7775 132.784 80.7616 132.824 80.733 132.855C80.7044 132.885 80.6652 132.904 80.6236 132.906ZM236.433 128.049C236.392 128.046 236.353 128.028 236.325 127.997C236.297 127.967 236.281 127.927 236.281 127.885L236.46 124.054C236.462 124.013 236.481 123.974 236.511 123.946C236.542 123.918 236.582 123.902 236.623 123.902C236.665 123.905 236.703 123.923 236.732 123.954C236.76 123.984 236.775 124.024 236.775 124.066L236.597 127.897C236.594 127.937 236.577 127.975 236.548 128.003C236.519 128.031 236.48 128.047 236.44 128.049H236.433ZM80.3863 125.239C80.3429 125.239 80.3012 125.222 80.2705 125.191C80.2399 125.16 80.2226 125.119 80.2226 125.075L80.1031 121.241C80.1031 121.199 80.1192 121.159 80.1481 121.128C80.1771 121.098 80.2166 121.08 80.2586 121.077C80.3004 121.077 80.3406 121.093 80.371 121.122C80.4014 121.15 80.4198 121.19 80.4223 121.231L80.5401 125.066C80.5402 125.107 80.5243 125.148 80.4957 125.178C80.4671 125.208 80.4279 125.227 80.3863 125.229V125.239ZM236.788 120.387C236.747 120.384 236.708 120.365 236.68 120.335C236.652 120.305 236.636 120.265 236.636 120.223L236.815 116.392C236.818 116.351 236.836 116.312 236.866 116.284C236.897 116.256 236.937 116.24 236.978 116.24C237.02 116.243 237.058 116.261 237.087 116.292C237.115 116.322 237.131 116.362 237.131 116.404L236.952 120.236C236.949 120.276 236.931 120.314 236.902 120.341C236.873 120.369 236.835 120.385 236.795 120.387H236.788ZM80.1473 117.57C80.1056 117.571 80.0654 117.555 80.0349 117.526C80.0045 117.497 79.9862 117.458 79.9837 117.417L79.8642 113.582C79.8642 113.539 79.8815 113.497 79.9122 113.467C79.9428 113.436 79.9845 113.419 80.0279 113.419C80.0713 113.419 80.1129 113.436 80.1436 113.467C80.1743 113.497 80.1915 113.539 80.1915 113.582L80.3094 117.417C80.3094 117.459 80.2933 117.499 80.2643 117.53C80.2354 117.56 80.1959 117.578 80.1539 117.58L80.1473 117.57ZM237.145 112.723C237.104 112.72 237.066 112.701 237.038 112.671C237.01 112.64 236.995 112.601 236.995 112.559L237.171 108.728C237.172 108.707 237.178 108.686 237.187 108.666C237.196 108.647 237.209 108.629 237.225 108.615C237.24 108.6 237.259 108.589 237.279 108.582C237.299 108.574 237.321 108.571 237.342 108.572C237.364 108.573 237.385 108.578 237.404 108.587C237.424 108.597 237.441 108.609 237.456 108.625C237.471 108.641 237.482 108.66 237.489 108.68C237.496 108.7 237.5 108.722 237.499 108.743L237.32 112.574C237.317 112.616 237.297 112.655 237.266 112.682C237.234 112.71 237.194 112.725 237.152 112.723H237.145ZM79.91 109.903C79.8683 109.903 79.8281 109.888 79.7977 109.859C79.7672 109.83 79.7489 109.791 79.7464 109.75L79.6269 105.915C79.6263 105.894 79.6299 105.872 79.6375 105.852C79.6451 105.832 79.6566 105.814 79.6714 105.798C79.6861 105.782 79.7038 105.77 79.7234 105.761C79.743 105.752 79.7642 105.747 79.7857 105.747C79.8072 105.746 79.8286 105.75 79.8487 105.757C79.8688 105.765 79.8872 105.776 79.9028 105.791C79.9185 105.806 79.9311 105.824 79.9399 105.843C79.9487 105.863 79.9536 105.884 79.9542 105.905L80.0737 109.74C80.0737 109.783 80.0564 109.825 80.0258 109.855C79.9951 109.886 79.9534 109.903 79.91 109.903ZM237.505 105.061C237.464 105.058 237.425 105.04 237.397 105.009C237.369 104.979 237.353 104.939 237.353 104.897L237.531 101.065C237.534 101.023 237.553 100.985 237.583 100.956C237.614 100.928 237.654 100.912 237.695 100.912C237.736 100.915 237.775 100.934 237.803 100.964C237.832 100.995 237.847 101.035 237.847 101.076L237.669 104.909C237.666 104.95 237.648 104.988 237.618 105.016C237.589 105.044 237.549 105.06 237.509 105.061H237.505ZM79.6793 102.235C79.6359 102.235 79.5943 102.218 79.5636 102.187C79.5329 102.156 79.5156 102.115 79.5156 102.071L79.4044 98.2483C79.4043 98.2065 79.4202 98.1663 79.4488 98.1359C79.4774 98.1055 79.5165 98.0871 79.5582 98.0846C79.6016 98.0846 79.6432 98.1018 79.6739 98.1325C79.7046 98.1632 79.7218 98.2048 79.7218 98.2483L79.8397 102.081C79.8397 102.123 79.8239 102.163 79.7953 102.193C79.7667 102.224 79.7275 102.242 79.6858 102.245L79.6793 102.235ZM237.865 97.3956C237.824 97.3927 237.785 97.3742 237.757 97.3438C237.729 97.3134 237.713 97.2735 237.713 97.232L237.883 93.3977C237.879 93.3735 237.88 93.3487 237.887 93.3251C237.894 93.3015 237.905 93.2797 237.922 93.2613C237.938 93.2429 237.958 93.2284 237.981 93.2188C238.003 93.2092 238.028 93.2048 238.052 93.206C238.077 93.2071 238.1 93.2137 238.122 93.2253C238.144 93.237 238.162 93.2533 238.177 93.2731C238.191 93.2929 238.201 93.3157 238.205 93.3398C238.21 93.3639 238.209 93.3887 238.202 93.4124L238.024 97.2434C238.022 97.2843 238.004 97.3227 237.975 97.3512C237.945 97.3797 237.906 97.3961 237.865 97.3973V97.3956ZM79.442 94.5694C79.4 94.5694 79.3595 94.5533 79.3291 94.5244C79.2986 94.4954 79.2804 94.4559 79.2783 94.4139L79.1589 90.5796C79.1589 90.5362 79.1761 90.4946 79.2068 90.4639C79.2375 90.4332 79.2791 90.416 79.3225 90.416C79.3643 90.4159 79.4045 90.4318 79.4349 90.4604C79.4653 90.489 79.4837 90.5281 79.4862 90.5698L79.604 94.4041C79.6041 94.4459 79.5882 94.4861 79.5596 94.5165C79.531 94.5469 79.4919 94.5653 79.4502 94.5678L79.442 94.5694ZM238.22 89.7352C238.179 89.7323 238.14 89.7137 238.112 89.6834C238.084 89.653 238.068 89.613 238.068 89.5715L238.247 85.7388C238.248 85.7173 238.253 85.6963 238.262 85.6768C238.271 85.6574 238.284 85.6399 238.3 85.6255C238.316 85.6111 238.335 85.5999 238.355 85.5927C238.375 85.5855 238.397 85.5823 238.418 85.5834C238.44 85.5844 238.461 85.5897 238.48 85.5989C238.5 85.6082 238.517 85.6211 238.532 85.6371C238.546 85.653 238.557 85.6717 238.565 85.6919C238.572 85.7122 238.575 85.7337 238.574 85.7552L238.396 89.5862C238.392 89.6291 238.371 89.6688 238.338 89.6966C238.306 89.7245 238.263 89.7383 238.22 89.7352ZM79.2031 86.9007C79.1613 86.9008 79.1211 86.8849 79.0907 86.8563C79.0603 86.8277 79.0419 86.7886 79.0394 86.7469L78.92 82.9126C78.927 82.8761 78.9463 82.8431 78.9745 82.8191C79.0028 82.795 79.0385 82.7813 79.0756 82.7801C79.1127 82.779 79.1491 82.7905 79.1788 82.8128C79.2085 82.8351 79.2298 82.8668 79.2391 82.9028L79.3585 86.7371C79.3585 86.7805 79.3413 86.8221 79.3106 86.8528C79.2799 86.8835 79.2383 86.9007 79.1949 86.9007H79.2031ZM238.577 82.0714C238.536 82.0685 238.497 82.05 238.469 82.0196C238.441 81.9892 238.425 81.9493 238.425 81.9078L238.602 78.0767C238.605 78.0353 238.623 77.9966 238.654 77.9683C238.684 77.9401 238.724 77.9244 238.765 77.9245C238.807 77.9274 238.845 77.9459 238.874 77.9763C238.902 78.0067 238.918 78.0467 238.918 78.0882L238.741 81.9192C238.738 81.9606 238.719 81.9994 238.689 82.0276C238.659 82.0559 238.619 82.0715 238.577 82.0714ZM78.9658 79.2337C78.924 79.2338 78.8838 79.2179 78.8534 79.1893C78.823 79.1607 78.8046 79.1216 78.8021 79.0799L78.6827 75.2456C78.6827 75.2022 78.6999 75.1605 78.7306 75.1298C78.7613 75.0992 78.8029 75.0819 78.8463 75.0819C78.8883 75.0819 78.9288 75.098 78.9592 75.1269C78.9897 75.1559 79.0079 75.1954 79.01 75.2374L79.1294 79.0717C79.1295 79.1137 79.1134 79.1542 79.0844 79.1846C79.0555 79.2151 79.0159 79.2333 78.974 79.2354L78.9658 79.2337ZM238.934 74.4142C238.893 74.4113 238.854 74.3928 238.826 74.3624C238.797 74.332 238.782 74.2921 238.782 74.2506L238.96 70.4195C238.961 70.398 238.966 70.3769 238.975 70.3575C238.985 70.338 238.997 70.3205 239.013 70.306C239.029 70.2914 239.048 70.2802 239.068 70.2729C239.088 70.2655 239.11 70.2623 239.131 70.2632C239.153 70.2642 239.174 70.2694 239.193 70.2785C239.213 70.2876 239.23 70.3005 239.245 70.3164C239.259 70.3323 239.27 70.3508 239.278 70.3711C239.285 70.3913 239.288 70.4128 239.287 70.4342L239.093 74.2506C239.093 74.2931 239.076 74.334 239.046 74.3646C239.017 74.3951 238.976 74.4129 238.934 74.4142ZM78.7285 71.5667C78.6851 71.5667 78.6435 71.5495 78.6128 71.5188C78.5821 71.4881 78.5648 71.4465 78.5648 71.4031L78.447 67.5704C78.4464 67.5489 78.45 67.5275 78.4576 67.5074C78.4652 67.4873 78.4767 67.4689 78.4915 67.4532C78.5062 67.4376 78.5239 67.425 78.5435 67.4161C78.5631 67.4073 78.5843 67.4025 78.6057 67.4018C78.6272 67.4012 78.6486 67.4048 78.6687 67.4124C78.6888 67.42 78.7072 67.4315 78.7229 67.4463C78.7386 67.461 78.7511 67.4787 78.76 67.4983C78.7688 67.5179 78.7737 67.5391 78.7743 67.5606L78.8938 71.3932C78.8938 71.4366 78.8765 71.4783 78.8458 71.509C78.8151 71.5397 78.7735 71.5569 78.7301 71.5569L78.7285 71.5667ZM239.291 66.7472C239.249 66.7443 239.211 66.7258 239.182 66.6954C239.154 66.665 239.138 66.6251 239.138 66.5836L239.289 63.3531H239.022C238.979 63.3531 238.937 63.3359 238.907 63.3052C238.876 63.2745 238.859 63.2329 238.859 63.1894C238.859 63.146 238.876 63.1044 238.907 63.0737C238.937 63.043 238.979 63.0258 239.022 63.0258H239.618L239.454 66.5917C239.452 66.6337 239.434 66.6733 239.404 66.7022C239.373 66.7311 239.333 66.7473 239.291 66.7472ZM78.4912 63.8997C78.4478 63.8997 78.4062 63.8825 78.3755 63.8518C78.3448 63.8211 78.3275 63.7794 78.3275 63.736L78.3063 63.0193H81.7544C81.7978 63.0193 81.8394 63.0365 81.8701 63.0672C81.9008 63.0979 81.918 63.1395 81.918 63.1829C81.918 63.2263 81.9008 63.2679 81.8701 63.2986C81.8394 63.3293 81.7978 63.3466 81.7544 63.3466H78.6385L78.6499 63.7328C78.65 63.7745 78.6341 63.8147 78.6055 63.8451C78.5769 63.8756 78.5378 63.8939 78.4961 63.8964L78.4912 63.8997ZM235.18 63.3482H231.344C231.3 63.3482 231.259 63.3309 231.228 63.3003C231.197 63.2696 231.18 63.2279 231.18 63.1845C231.18 63.1411 231.197 63.0995 231.228 63.0688C231.259 63.0381 231.3 63.0209 231.344 63.0209H235.18C235.223 63.0209 235.265 63.0381 235.296 63.0688C235.326 63.0995 235.343 63.1411 235.343 63.1845C235.343 63.2279 235.326 63.2696 235.296 63.3003C235.265 63.3309 235.223 63.3482 235.18 63.3482ZM227.508 63.3482H223.672C223.629 63.3482 223.587 63.3309 223.556 63.3003C223.525 63.2696 223.508 63.2279 223.508 63.1845C223.508 63.1411 223.525 63.0995 223.556 63.0688C223.587 63.0381 223.629 63.0209 223.672 63.0209H227.508C227.551 63.0209 227.593 63.0381 227.624 63.0688C227.654 63.0995 227.672 63.1411 227.672 63.1845C227.672 63.2279 227.654 63.2696 227.624 63.3003C227.593 63.3309 227.551 63.3482 227.508 63.3482ZM219.838 63.3482H216.002C215.958 63.3482 215.917 63.3309 215.886 63.3003C215.855 63.2696 215.838 63.2279 215.838 63.1845C215.838 63.1411 215.855 63.0995 215.886 63.0688C215.917 63.0381 215.958 63.0209 216.002 63.0209H219.838C219.881 63.0209 219.923 63.0381 219.953 63.0688C219.984 63.0995 220.001 63.1411 220.001 63.1845C220.001 63.2279 219.984 63.2696 219.953 63.3003C219.923 63.3309 219.881 63.3482 219.838 63.3482ZM212.166 63.3482H208.33C208.286 63.3482 208.245 63.3309 208.214 63.3003C208.183 63.2696 208.166 63.2279 208.166 63.1845C208.166 63.1411 208.183 63.0995 208.214 63.0688C208.245 63.0381 208.286 63.0209 208.33 63.0209H212.166C212.209 63.0209 212.251 63.0381 212.281 63.0688C212.312 63.0995 212.329 63.1411 212.329 63.1845C212.329 63.2279 212.312 63.2696 212.281 63.3003C212.251 63.3309 212.209 63.3482 212.166 63.3482ZM204.495 63.3482H200.659C200.616 63.3482 200.574 63.3309 200.544 63.3003C200.513 63.2696 200.496 63.2279 200.496 63.1845C200.496 63.1411 200.513 63.0995 200.544 63.0688C200.574 63.0381 200.616 63.0209 200.659 63.0209H204.495C204.539 63.0209 204.58 63.0381 204.611 63.0688C204.642 63.0995 204.659 63.1411 204.659 63.1845C204.659 63.2279 204.642 63.2696 204.611 63.3003C204.58 63.3309 204.539 63.3482 204.495 63.3482ZM196.823 63.3482H192.987C192.944 63.3482 192.902 63.3309 192.872 63.3003C192.841 63.2696 192.824 63.2279 192.824 63.1845C192.824 63.1411 192.841 63.0995 192.872 63.0688C192.902 63.0381 192.944 63.0209 192.987 63.0209H196.823C196.867 63.0209 196.908 63.0381 196.939 63.0688C196.97 63.0995 196.987 63.1411 196.987 63.1845C196.987 63.2279 196.97 63.2696 196.939 63.3003C196.908 63.3309 196.867 63.3482 196.823 63.3482ZM189.153 63.3482H185.317C185.274 63.3482 185.232 63.3309 185.201 63.3003C185.171 63.2696 185.154 63.2279 185.154 63.1845C185.154 63.1411 185.171 63.0995 185.201 63.0688C185.232 63.0381 185.274 63.0209 185.317 63.0209H189.153C189.197 63.0209 189.238 63.0381 189.269 63.0688C189.3 63.0995 189.317 63.1411 189.317 63.1845C189.317 63.2279 189.3 63.2696 189.269 63.3003C189.238 63.3309 189.197 63.3482 189.153 63.3482ZM181.481 63.3482H177.645C177.602 63.3482 177.56 63.3309 177.53 63.3003C177.499 63.2696 177.482 63.2279 177.482 63.1845C177.482 63.1411 177.499 63.0995 177.53 63.0688C177.56 63.0381 177.602 63.0209 177.645 63.0209H181.481C181.525 63.0209 181.566 63.0381 181.597 63.0688C181.628 63.0995 181.645 63.1411 181.645 63.1845C181.645 63.2279 181.628 63.2696 181.597 63.3003C181.566 63.3309 181.525 63.3482 181.481 63.3482ZM173.811 63.3482H169.975C169.932 63.3482 169.89 63.3309 169.859 63.3003C169.829 63.2696 169.811 63.2279 169.811 63.1845C169.811 63.1411 169.829 63.0995 169.859 63.0688C169.89 63.0381 169.932 63.0209 169.975 63.0209H173.811C173.854 63.0209 173.896 63.0381 173.927 63.0688C173.957 63.0995 173.975 63.1411 173.975 63.1845C173.975 63.2279 173.957 63.2696 173.927 63.3003C173.896 63.3309 173.854 63.3482 173.811 63.3482ZM166.139 63.3482H162.303C162.26 63.3482 162.218 63.3309 162.187 63.3003C162.157 63.2696 162.139 63.2279 162.139 63.1845C162.139 63.1411 162.157 63.0995 162.187 63.0688C162.218 63.0381 162.26 63.0209 162.303 63.0209H166.139C166.182 63.0209 166.224 63.0381 166.255 63.0688C166.285 63.0995 166.303 63.1411 166.303 63.1845C166.303 63.2279 166.285 63.2696 166.255 63.3003C166.224 63.3309 166.182 63.3482 166.139 63.3482ZM158.469 63.3482H154.633C154.589 63.3482 154.548 63.3309 154.517 63.3003C154.486 63.2696 154.469 63.2279 154.469 63.1845C154.469 63.1411 154.486 63.0995 154.517 63.0688C154.548 63.0381 154.589 63.0209 154.633 63.0209H158.469C158.512 63.0209 158.554 63.0381 158.584 63.0688C158.615 63.0995 158.632 63.1411 158.632 63.1845C158.632 63.2279 158.615 63.2696 158.584 63.3003C158.554 63.3309 158.512 63.3482 158.469 63.3482ZM150.797 63.3482H146.962C146.919 63.3482 146.877 63.3309 146.847 63.3003C146.816 63.2696 146.799 63.2279 146.799 63.1845C146.799 63.1411 146.816 63.0995 146.847 63.0688C146.877 63.0381 146.919 63.0209 146.962 63.0209H150.797C150.84 63.0209 150.882 63.0381 150.913 63.0688C150.943 63.0995 150.96 63.1411 150.96 63.1845C150.96 63.2279 150.943 63.2696 150.913 63.3003C150.882 63.3309 150.84 63.3482 150.797 63.3482ZM143.127 63.3482H139.291C139.247 63.3482 139.206 63.3309 139.175 63.3003C139.144 63.2696 139.127 63.2279 139.127 63.1845C139.127 63.1411 139.144 63.0995 139.175 63.0688C139.206 63.0381 139.247 63.0209 139.291 63.0209H143.127C143.17 63.0209 143.212 63.0381 143.242 63.0688C143.273 63.0995 143.29 63.1411 143.29 63.1845C143.29 63.2279 143.273 63.2696 143.242 63.3003C143.212 63.3309 143.17 63.3482 143.127 63.3482ZM135.455 63.3482H131.62C131.577 63.3482 131.535 63.3309 131.505 63.3003C131.474 63.2696 131.457 63.2279 131.457 63.1845C131.457 63.1411 131.474 63.0995 131.505 63.0688C131.535 63.0381 131.577 63.0209 131.62 63.0209H135.455C135.498 63.0209 135.54 63.0381 135.57 63.0688C135.601 63.0995 135.618 63.1411 135.618 63.1845C135.618 63.2279 135.601 63.2696 135.57 63.3003C135.54 63.3309 135.498 63.3482 135.455 63.3482ZM127.784 63.3482H123.948C123.905 63.3482 123.863 63.3309 123.833 63.3003C123.802 63.2696 123.785 63.2279 123.785 63.1845C123.785 63.1411 123.802 63.0995 123.833 63.0688C123.863 63.0381 123.905 63.0209 123.948 63.0209H127.784C127.828 63.0209 127.869 63.0381 127.9 63.0688C127.931 63.0995 127.948 63.1411 127.948 63.1845C127.948 63.2279 127.931 63.2696 127.9 63.3003C127.869 63.3309 127.828 63.3482 127.784 63.3482ZM120.112 63.3482H116.278C116.235 63.3482 116.193 63.3309 116.162 63.3003C116.132 63.2696 116.114 63.2279 116.114 63.1845C116.114 63.1411 116.132 63.0995 116.162 63.0688C116.193 63.0381 116.235 63.0209 116.278 63.0209H120.112C120.156 63.0209 120.197 63.0381 120.228 63.0688C120.259 63.0995 120.276 63.1411 120.276 63.1845C120.276 63.2279 120.259 63.2696 120.228 63.3003C120.197 63.3309 120.156 63.3482 120.112 63.3482ZM112.442 63.3482H108.606C108.563 63.3482 108.521 63.3309 108.49 63.3003C108.46 63.2696 108.442 63.2279 108.442 63.1845C108.442 63.1411 108.46 63.0995 108.49 63.0688C108.521 63.0381 108.563 63.0209 108.606 63.0209H112.442C112.485 63.0209 112.527 63.0381 112.558 63.0688C112.588 63.0995 112.606 63.1411 112.606 63.1845C112.606 63.2279 112.588 63.2696 112.558 63.3003C112.527 63.3309 112.485 63.3482 112.442 63.3482ZM104.77 63.3482H100.936C100.892 63.3482 100.851 63.3309 100.82 63.3003C100.789 63.2696 100.772 63.2279 100.772 63.1845C100.772 63.1411 100.789 63.0995 100.82 63.0688C100.851 63.0381 100.892 63.0209 100.936 63.0209H104.77C104.814 63.0209 104.855 63.0381 104.886 63.0688C104.917 63.0995 104.934 63.1411 104.934 63.1845C104.934 63.2279 104.917 63.2696 104.886 63.3003C104.855 63.3309 104.814 63.3482 104.77 63.3482ZM97.0999 63.3482H93.2639C93.2205 63.3482 93.1789 63.3309 93.1482 63.3003C93.1175 63.2696 93.1003 63.2279 93.1003 63.1845C93.1003 63.1411 93.1175 63.0995 93.1482 63.0688C93.1789 63.0381 93.2205 63.0209 93.2639 63.0209H97.0999C97.1433 63.0209 97.1849 63.0381 97.2156 63.0688C97.2463 63.0995 97.2635 63.1411 97.2635 63.1845C97.2635 63.2279 97.2463 63.2696 97.2156 63.3003C97.1849 63.3309 97.1433 63.3482 97.0999 63.3482ZM89.4279 63.3482H85.5936C85.5502 63.3482 85.5086 63.3309 85.4779 63.3003C85.4472 63.2696 85.43 63.2279 85.43 63.1845C85.43 63.1411 85.4472 63.0995 85.4779 63.0688C85.5086 63.0381 85.5502 63.0209 85.5936 63.0209H89.4279C89.4713 63.0209 89.513 63.0381 89.5437 63.0688C89.5743 63.0995 89.5916 63.1411 89.5916 63.1845C89.5916 63.2279 89.5743 63.2696 89.5437 63.3003C89.513 63.3309 89.4713 63.3482 89.4279 63.3482Z" fill="#AFD6FF"/>
<path d="M153.819 79.1437C153.819 79.1437 156.091 102.158 155.116 109.989L149.504 169.439H197.928C197.928 169.439 195.212 118.778 195.212 114.944C195.212 111.11 194.413 79.1454 194.413 79.1454L186.821 75.3094L167.723 75.0688L153.819 79.1437Z" fill="url(#paint2_linear_54_858)"/>
<path d="M166.925 75.4289L157.367 78.1045C157.367 78.1045 161.193 97.2107 163.476 99.4936C165.759 101.777 163.089 103.488 165.007 105.406C166.925 107.324 177.552 121.735 177.552 121.735L166.925 75.4289Z" fill="#87A2C2"/>
<path d="M187.301 76.0507L177.552 121.732C177.552 121.732 187.918 103.413 188.805 102.528C189.692 101.642 188.805 97.8931 188.805 96.1339C188.805 94.3746 194.316 79.093 194.316 79.093C194.316 79.093 189.284 76.0507 187.301 76.0507Z" fill="#87A2C2"/>
<path d="M167.723 75.0688L157.495 76.108C157.495 76.108 161.194 94.9196 163.476 97.2025C165.759 99.4855 163.089 101.199 165.007 103.117C166.925 105.035 177.552 121.735 177.552 121.735L167.723 75.0688Z" fill="#BADCFF"/>
<path d="M186.821 75.3078L177.552 121.735C177.552 121.735 187.918 101.127 188.805 100.24C189.692 99.3529 188.805 95.6053 188.805 93.8477C188.805 92.0901 194.413 77.5465 194.413 77.5465C194.413 77.5465 188.805 75.3078 186.821 75.3078Z" fill="#BADCFF"/>
<path d="M176.194 169.439L177.552 121.735L177.274 169.439H176.194Z" fill="#7696B5"/>
<path d="M181.309 175.832H144.871V179.668H181.309V175.832Z" fill="#8088C2"/>
<path d="M178.192 197.381H147.987L147.028 179.668H179.151L178.192 197.381Z" fill="#8792CE"/>
<path opacity="0.28" d="M179.151 179.668H147.028L147.987 197.381H151.959C152.35 194.625 153.129 191.688 154.618 189.331C157.312 185.076 170.605 183.399 178.982 182.761L179.151 179.668Z" fill="#370C62"/>
<path d="M205.44 206.971H123.295C123.295 204.428 124.306 201.989 126.104 200.191C127.902 198.393 130.341 197.383 132.884 197.383H195.851C198.394 197.383 200.833 198.393 202.631 200.191C204.429 201.989 205.44 204.428 205.44 206.971Z" fill="#676E9C"/>
<path d="M116.849 81.5363L114.067 71.5438L101.793 74.6892C101.793 74.6892 103.543 80.1305 104.77 80.8784C105.669 81.4283 108.37 83.0828 109.742 83.9207L120.706 105.671L128.596 95.9244L116.849 81.5363Z" fill="#FD5E5A"/>
<path d="M174.834 25.5826C174.834 25.5826 184.181 24.4371 188.178 26.3452C192.174 28.2534 200.003 35.9499 197.926 50.8928C197.926 50.8928 199.604 51.4263 200.083 53.7141C200.563 56.0019 200.604 60.0785 196.647 63.8604C192.69 67.6424 186.019 67.2152 182.583 67.2152C179.146 67.2152 169.477 64.3186 167 58.982C164.522 53.6454 174.834 25.5826 174.834 25.5826Z" fill="#26004A"/>
<path d="M179.362 27.7543C176.855 27.5186 174.765 28.6707 173.086 30.5609C170.959 36.8041 167.571 47.4872 166.784 54.0774C167.132 56.7302 168.006 59.3584 169.268 61.4417C169.486 61.805 169.716 62.1508 169.959 62.4792C173.273 65.0862 178.141 66.6605 181.142 67.0876C190.471 65.8357 193.089 57.2293 192.852 47.7425C192.789 45.1863 194.617 37.228 190.66 32.0861C188.003 28.6298 183.424 27.355 179.362 27.7543Z" fill="#130025"/>
<path d="M170.04 60.445C170.04 60.445 170.52 66.919 170.04 69.8746C169.561 72.8301 167.723 75.0688 167.723 75.0688L177.552 121.735L186.821 75.3077C186.821 75.3077 184.52 73.8987 183.866 69.8746C183.211 65.8504 183.226 55.4913 183.226 55.4913L170.04 60.445Z" fill="#FC7575"/>
<path d="M177.552 121.735L184.767 85.5948C179.265 86.1938 173.803 85.5015 169.744 84.6669L177.552 121.735Z" fill="#00158E"/>
<path d="M184.767 85.5948L184.613 85.6112C182.813 92.9951 178.68 109.363 177.272 110.771C175.92 112.123 171.796 94.0883 169.754 84.6686H169.739L177.547 121.737L184.767 85.5948Z" fill="#000F6B"/>
<g style="mix-blend-mode:multiply" opacity="0.53">
<path d="M172.116 59.666C173.528 65.1663 176.948 70.3311 183.461 68.6177C183.54 68.5981 183.625 68.5735 183.694 68.5506C183.213 63.952 183.226 55.4913 183.226 55.4913L172.116 59.666Z" fill="#FD5E5A"/>
</g>
<path d="M181.146 29.0422C181.146 29.0422 186.82 28.1634 189.935 32.7178C193.051 37.2722 191.614 44.9441 191.614 46.8621C191.614 48.78 192.533 62.6838 183.461 64.8407C174.39 66.9976 171.317 57.0902 171.317 51.0941C171.317 45.0979 173.544 29.7917 181.146 29.0422Z" fill="#FC7575"/>
<g style="mix-blend-mode:multiply" opacity="0.53">
<path d="M174.878 34.3903C174.551 35.0825 174.263 35.8173 173.988 36.5815C177.106 35.6379 180.286 34.908 183.504 34.3968C184.785 38.8285 187.49 41.8707 191.935 41.8707C191.978 40.1 191.888 38.1068 191.434 36.2444C186.234 34.1153 180.332 31.0698 174.878 34.3903Z" fill="#FD5E5A"/>
</g>
<path d="M115.021 72.1624C114.912 72.0266 105.834 63.3875 104.039 63.9275C101.052 64.7065 107.691 69.6553 108.41 70.5897C108.778 71.0922 109.099 71.628 109.367 72.1902C109.131 72.2573 108.912 72.3178 108.713 72.3653C107.002 72.7777 102.441 73.6287 101.792 74.6891C101.792 74.6891 101.669 80.664 103.238 80.6967C104.808 80.7295 106.397 80.1551 108.081 80.3253C108.924 80.4104 109.789 79.998 110.446 79.561C110.55 79.4906 110.65 79.4203 110.743 79.3515C110.627 79.5334 110.56 79.743 110.551 79.959C110.542 80.1749 110.59 80.3894 110.691 80.5806C111.495 82.2171 117.062 79.3957 117.304 78.3516C117.546 77.3075 116.306 73.7432 115.021 72.1624ZM113.746 77.5628C112.948 77.7675 112.191 78.1086 111.509 78.5709C111.295 78.0063 110.23 75.1343 110.405 73.9887C111.179 73.1705 112.873 73.1459 113.701 73.4978C113.816 73.6062 113.897 73.7471 113.931 73.902C114.195 74.9903 114.753 77.3206 113.746 77.5645V77.5628Z" fill="#FC7575"/>
<path d="M114.345 94.6463C114.345 94.6463 127.29 127.887 132.245 130.445C137.201 133.003 155.356 105.344 155.356 105.344C155.356 105.344 156.057 79.1372 153.819 79.1372C151.582 79.1372 142.384 90.0788 139.745 96.6592C137.053 103.354 137.148 106.738 133.527 100.233C129.832 93.5875 123.338 84.6604 123.338 84.6604C119.607 88.3949 114.345 94.6463 114.345 94.6463Z" fill="#BADCFF"/>
<path d="M188.178 26.4058C188.178 26.4058 184.982 26.0065 183.064 27.5235C181.146 29.0406 176.91 29.7606 174.433 41.5074C171.955 53.2543 173.953 54.6126 173.953 54.6126C173.953 54.6126 176.586 60.0457 173.192 64.2008C169.798 68.3559 163.139 66.7865 159.411 64.6018C153.988 61.422 154.953 50.3969 157.236 43.1832C157.554 42.1768 157.711 41.5794 158.084 40.7366C158.801 39.1149 159.038 37.2493 160.074 35.544C163.431 30.0225 169.541 24.9771 180.347 25.2488C180.347 25.2488 185.221 24.9673 188.178 26.4058Z" fill="#320063"/>
<path d="M158.323 39.8464C157.649 41.8707 157.745 41.5745 157.236 43.1832C157.127 43.5269 157.022 43.8782 156.921 44.2371C159.048 43.0097 159.464 42.6726 161.891 41.4305C166.387 39.1454 171.107 37.3297 175.976 36.0121C176.073 35.7502 176.172 35.4982 176.271 35.2544C170.032 35.8402 163.848 36.9678 158.323 39.8464Z" fill="#130025"/>
<path d="M159.681 35.7486C171.536 29.5495 179.504 28.9914 193.094 29.8768V33.1498C181.684 33.1907 170.412 36.2919 160.935 41.1228C158.387 42.432 157.022 43.3174 157.007 43.3239L159.681 35.7486Z" fill="#00B3BF"/>
<path d="M192.673 41.5205C197.633 41.5205 201.653 37.2219 201.653 31.9192C201.653 26.6165 197.633 22.3178 192.673 22.3178C187.714 22.3178 183.694 26.6165 183.694 31.9192C183.694 37.2219 187.714 41.5205 192.673 41.5205Z" fill="#8792CE"/>
<path d="M192.947 41.5205C197.754 41.5205 201.651 37.2219 201.651 31.9192C201.651 26.6165 197.754 22.3178 192.947 22.3178C188.139 22.3178 184.242 26.6165 184.242 31.9192C184.242 37.2219 188.139 41.5205 192.947 41.5205Z" fill="#EAE9F3"/>
<path d="M192.673 41.5205C197.633 41.5205 201.653 37.2219 201.653 31.9192C201.653 26.6165 197.633 22.3178 192.673 22.3178C187.714 22.3178 183.694 26.6165 183.694 31.9192C183.694 37.2219 187.714 41.5205 192.673 41.5205Z" fill="#7881B6"/>
<path d="M192.947 41.5205C197.754 41.5205 201.651 37.2219 201.651 31.9192C201.651 26.6165 197.754 22.3178 192.947 22.3178C188.139 22.3178 184.242 26.6165 184.242 31.9192C184.242 37.2219 188.139 41.5205 192.947 41.5205Z" fill="#6CBDE1"/>
<path d="M189.623 30.0863C189.623 26.8967 191.035 24.0689 193.207 22.3244H192.947C188.139 22.3244 184.24 26.6218 184.24 31.9241C184.24 37.2263 188.139 41.5254 192.947 41.5254C194.814 41.5188 196.622 40.8699 198.067 39.6876C193.38 39.5305 189.623 35.3018 189.623 30.0863Z" fill="#EAE9F3"/>
<path d="M194.387 31.5133C194.387 32.3005 193.807 32.9387 193.094 32.9387C192.38 32.9387 191.801 32.3005 191.801 31.5133C191.801 30.7261 192.38 30.0863 193.094 30.0863C193.807 30.0863 194.387 30.7196 194.387 31.5133Z" fill="#8792CE"/>
<path d="M92.4244 75.4682C92.3027 75.4684 92.1839 75.4313 92.084 75.3618C92.019 75.3172 91.9634 75.2602 91.9204 75.1941C91.8775 75.1279 91.848 75.054 91.8337 74.9764C91.8195 74.8989 91.8206 74.8193 91.8372 74.7422C91.8537 74.6651 91.8853 74.592 91.9301 74.5272L114.702 41.5304C114.799 41.4176 114.934 41.3447 115.081 41.3258C115.229 41.3069 115.378 41.3433 115.5 41.4279C115.622 41.5126 115.709 41.6395 115.743 41.7842C115.776 41.9288 115.756 42.081 115.684 42.2111L92.9186 75.2096C92.8634 75.2895 92.7895 75.3549 92.7034 75.3999C92.6173 75.445 92.5215 75.4684 92.4244 75.4682Z" fill="#2C46E6"/>
<path d="M53.3545 117.061C53.2374 117.062 53.1227 117.027 53.0248 116.963C52.9268 116.899 52.8497 116.807 52.8031 116.7C52.7565 116.592 52.7423 116.474 52.7624 116.358C52.7824 116.243 52.8358 116.136 52.916 116.05L90.7192 75.6449C90.7716 75.5825 90.8362 75.5314 90.909 75.4947C90.9818 75.4581 91.0613 75.4366 91.1426 75.4317C91.224 75.4267 91.3055 75.4384 91.3822 75.4659C91.4589 75.4935 91.5292 75.5364 91.5888 75.592C91.6484 75.6476 91.696 75.7147 91.7288 75.7893C91.7617 75.8639 91.7789 75.9444 91.7797 76.0259C91.7804 76.1074 91.7645 76.1882 91.733 76.2634C91.7014 76.3385 91.655 76.4065 91.5963 76.4631L53.7931 116.868C53.7374 116.929 53.6697 116.978 53.5942 117.011C53.5187 117.044 53.4371 117.062 53.3545 117.061Z" fill="#2C46E6"/>
<path d="M91.1496 76.6546C91.0238 76.6549 90.9012 76.6153 90.7993 76.5417L60.3997 54.7516C60.3352 54.7058 60.2804 54.6476 60.2384 54.5806C60.1964 54.5135 60.168 54.4388 60.1549 54.3608C60.1417 54.2828 60.1441 54.2029 60.1618 54.1258C60.1795 54.0487 60.2122 53.9758 60.2581 53.9113C60.304 53.8468 60.3621 53.792 60.4292 53.75C60.4963 53.708 60.5709 53.6796 60.649 53.6665C60.727 53.6533 60.8069 53.6557 60.884 53.6734C60.9611 53.6911 61.034 53.7239 61.0985 53.7697L91.4981 75.5598C91.6012 75.6339 91.6781 75.7387 91.7179 75.8592C91.7577 75.9798 91.7583 76.1098 91.7196 76.2307C91.6808 76.3515 91.6048 76.457 91.5024 76.532C91.4 76.607 91.2765 76.6476 91.1496 76.6481V76.6546Z" fill="#2C46E6"/>
<path d="M107.364 146.188C107.228 146.188 107.097 146.142 106.991 146.057C106.885 145.973 106.81 145.855 106.78 145.723L90.5653 76.1915C90.5433 76.1134 90.5374 76.0316 90.5479 75.9512C90.5584 75.8707 90.585 75.7933 90.6263 75.7234C90.6675 75.6535 90.7225 75.5928 90.7879 75.5447C90.8532 75.4967 90.9277 75.4624 91.0067 75.4439C91.0857 75.4254 91.1676 75.4232 91.2475 75.4372C91.3274 75.4513 91.4036 75.4814 91.4716 75.5257C91.5395 75.57 91.5978 75.6276 91.6428 75.6951C91.6879 75.7625 91.7189 75.8384 91.7338 75.9182L107.948 145.452C107.984 145.606 107.957 145.769 107.873 145.904C107.789 146.039 107.655 146.135 107.5 146.172C107.455 146.182 107.41 146.187 107.364 146.188Z" fill="#2C46E6"/>
<path d="M97.8969 76.0507C97.8969 77.3859 97.5009 78.691 96.7592 79.8012C96.0174 80.9113 94.9631 81.7765 93.7296 82.2875C92.4961 82.7984 91.1388 82.9321 89.8293 82.6716C88.5198 82.4111 87.317 81.7682 86.3729 80.8241C85.4288 79.88 84.7859 78.6772 84.5254 77.3677C84.265 76.0582 84.3986 74.7009 84.9096 73.4674C85.4205 72.2339 86.2857 71.1796 87.3959 70.4379C88.506 69.6961 89.8112 69.3002 91.1463 69.3002C92.9367 69.3002 94.6537 70.0114 95.9197 71.2774C97.1856 72.5433 97.8969 74.2604 97.8969 76.0507Z" fill="#2C46E6"/>
<path d="M95.4519 75.7234C95.4519 76.5743 95.1996 77.4062 94.7268 78.1137C94.2541 78.8212 93.5821 79.3726 92.796 79.6983C92.0098 80.0239 91.1448 80.1091 90.3102 79.9431C89.4756 79.7771 88.709 79.3673 88.1073 78.7656C87.5056 78.164 87.0959 77.3973 86.9298 76.5628C86.7638 75.7282 86.849 74.8631 87.1747 74.077C87.5003 73.2908 88.0518 72.6189 88.7593 72.1461C89.4668 71.6734 90.2986 71.4211 91.1495 71.4211C92.2906 71.4211 93.3849 71.8743 94.1918 72.6812C94.9986 73.488 95.4519 74.5824 95.4519 75.7234Z" fill="#BADCFF"/>
<path d="M59.3998 39.0412H30.6186C28.8932 39.0412 27.4945 40.4399 27.4945 42.1653V66.3659C27.4945 68.0913 28.8932 69.49 30.6186 69.49H59.3998C61.1252 69.49 62.5238 68.0913 62.5238 66.3659V42.1653C62.5238 40.4399 61.1252 39.0412 59.3998 39.0412Z" fill="#BADCFF"/>
<path d="M60.7842 39.3636C60.9994 39.7934 61.1114 40.2674 61.1115 40.7481V64.9487C61.1115 65.3589 61.0307 65.7652 60.8737 66.1442C60.7167 66.5233 60.4866 66.8677 60.1965 67.1578C59.9064 67.4478 59.562 67.678 59.183 67.835C58.804 67.992 58.3977 68.0728 57.9875 68.0728H29.203C28.7224 68.0721 28.2485 67.9601 27.8185 67.7455C28.0765 68.2678 28.4755 68.7075 28.9703 69.0149C29.4651 69.3223 30.036 69.4852 30.6186 69.4851H59.3998C59.8101 69.4853 60.2164 69.4046 60.5955 69.2477C60.9747 69.0908 61.3192 68.8607 61.6093 68.5705C61.8994 68.2804 62.1295 67.9359 62.2865 67.5568C62.4434 67.1777 62.5241 66.7713 62.5238 66.361V42.1653C62.5241 41.5825 62.3613 41.0113 62.0538 40.5162C61.7464 40.0211 61.3067 39.6219 60.7842 39.3636Z" fill="#2C46E6"/>
<path d="M59.3998 98.9912H30.6186C28.8932 98.9912 27.4945 100.39 27.4945 102.115V126.316C27.4945 128.041 28.8932 129.44 30.6186 129.44H59.3998C61.1252 129.44 62.5238 128.041 62.5238 126.316V102.115C62.5238 100.39 61.1252 98.9912 59.3998 98.9912Z" fill="#BADCFF"/>
<path d="M60.7842 99.3153C60.9994 99.7451 61.1114 100.219 61.1115 100.7V124.899C61.1115 125.727 60.7824 126.522 60.1965 127.108C59.6106 127.694 58.816 128.023 57.9875 128.023H29.203C28.7224 128.023 28.2483 127.911 27.8185 127.695C28.0764 128.218 28.4753 128.658 28.9701 128.966C29.4649 129.273 30.0359 129.436 30.6186 129.437H59.3998C60.2283 129.437 61.0229 129.108 61.6088 128.522C62.1947 127.936 62.5238 127.141 62.5238 126.313V102.115C62.5239 101.533 62.3611 100.962 62.0537 100.467C61.7462 99.9722 61.3065 99.5732 60.7842 99.3153Z" fill="#2C46E6"/>
<path d="M97.1162 47.1436L130.411 47.1436C132.254 47.1436 133.748 45.6496 133.748 43.8067V20.0316C133.748 18.1887 132.254 16.6948 130.411 16.6948L97.1162 16.6948C95.2733 16.6948 93.7794 18.1887 93.7794 20.0316V43.8067C93.7794 45.6496 95.2733 47.1436 97.1162 47.1436Z" fill="#BADCFF"/>
<path d="M95.7694 17.0188C95.5282 17.4404 95.4007 17.9175 95.3995 18.4033V42.6039C95.3995 44.3288 96.9968 45.728 98.9655 45.728H131.804C132.347 45.7281 132.884 45.6167 133.383 45.4007C132.8 46.4317 131.583 47.1403 130.188 47.1403H97.3437C95.3799 47.1403 93.7794 45.7411 93.7794 44.0162V19.8205C93.7794 18.5915 94.5878 17.5294 95.7694 17.0188Z" fill="#2C46E6"/>
<path d="M92.9169 165.549H126.212C128.054 165.549 129.548 164.055 129.548 162.213V138.437C129.548 136.595 128.054 135.101 126.212 135.101H92.9169C91.0741 135.101 89.5801 136.595 89.5801 138.437V162.213C89.5801 164.055 91.0741 165.549 92.9169 165.549Z" fill="#BADCFF"/>
<path d="M91.5652 165.225C91.324 164.804 91.1965 164.327 91.1954 163.841V139.642C91.1954 137.915 92.7926 136.518 94.7613 136.518H127.599C128.143 136.518 128.68 136.629 129.179 136.845C128.596 135.814 127.378 135.106 125.984 135.106H93.151C91.1872 135.106 89.5867 136.505 89.5867 138.23V162.425C89.5801 163.653 90.3886 164.715 91.5652 165.225Z" fill="#2C46E6"/>
<path d="M40.1741 48.168C40.1745 48.3727 40.114 48.5729 40.0005 48.7432C39.887 48.9136 39.7255 49.0464 39.5364 49.1249C39.3474 49.2033 39.1393 49.224 38.9385 49.1841C38.7377 49.1443 38.5533 49.0457 38.4085 48.901C38.2638 48.7562 38.1652 48.5718 38.1254 48.371C38.0855 48.1702 38.1061 47.9621 38.1846 47.7731C38.2631 47.584 38.3959 47.4225 38.5663 47.309C38.7366 47.1955 38.9368 47.135 39.1415 47.1354C39.4154 47.1354 39.678 47.2442 39.8717 47.4378C40.0653 47.6315 40.1741 47.8941 40.1741 48.168Z" fill="#7686E6"/>
<path d="M51.7655 45.2648C51.7655 45.3943 51.7271 45.5209 51.6551 45.6285C51.5832 45.7362 51.481 45.8201 51.3614 45.8696C51.2418 45.9192 51.1101 45.9321 50.9832 45.9069C50.8562 45.8816 50.7395 45.8193 50.648 45.7277C50.5564 45.6362 50.4941 45.5195 50.4688 45.3925C50.4436 45.2656 50.4566 45.1339 50.5061 45.0143C50.5556 44.8947 50.6395 44.7925 50.7472 44.7206C50.8548 44.6486 50.9814 44.6102 51.1109 44.6102C51.2845 44.6102 51.451 44.6792 51.5737 44.802C51.6965 44.9247 51.7655 45.0912 51.7655 45.2648Z" fill="#7686E6"/>
<path d="M44.3325 63.9144C42.5926 63.9123 40.8905 63.4067 39.4317 62.4584C37.9729 61.5102 36.8198 60.16 36.1115 58.5708C35.4033 56.9816 35.1702 55.2214 35.4404 53.5026C35.7106 51.7838 36.4725 50.18 37.6342 48.8848L37.8617 48.6328L38.0254 48.9273C38.1263 49.1045 38.2676 49.2553 38.4378 49.3675L38.6734 49.5312L38.4918 49.7259C37.671 50.6522 37.0822 51.7604 36.774 52.959C36.4658 54.1576 36.447 55.4123 36.7191 56.6196C36.9913 57.8269 37.5466 58.9522 38.3393 59.9027C39.1319 60.8531 40.1392 61.6015 41.278 62.086C42.4169 62.5705 43.6546 62.7774 44.889 62.6894C46.1235 62.6014 47.3194 62.2212 48.378 61.5801C49.4366 60.9389 50.3276 60.0553 50.9774 59.0021C51.6273 57.9488 52.0175 56.7561 52.1157 55.5224C51.3817 55.377 50.7209 54.9816 50.2459 54.4036C49.7708 53.8256 49.5109 53.1007 49.5104 52.3525V46.6248L50.2075 45.561L50.4186 45.8262C50.5382 45.9756 50.702 46.0833 50.8866 46.1338L51.2139 46.2222L50.7132 46.9848V52.3591C50.7132 52.8968 50.9268 53.4126 51.3071 53.7928C51.6873 54.1731 52.203 54.3867 52.7408 54.3867C53.2786 54.3867 53.7943 54.1731 54.1746 53.7928C54.5548 53.4126 54.7684 52.8968 54.7684 52.3591V46.9963L54.1924 46.2189L54.5197 46.1125C54.7006 46.0538 54.8581 45.9392 54.9697 45.7852L55.1645 45.5087L55.9827 46.6051V52.3591C55.9834 53.1155 55.7182 53.8482 55.2337 54.4291C54.7491 55.0099 54.0759 55.4021 53.3316 55.5372C53.1735 57.8144 52.156 59.9464 50.4852 61.5017C48.8144 63.0571 46.6151 63.9195 44.3325 63.9144Z" fill="#7686E6"/>
<path d="M54.8814 45.2648C54.8814 45.3943 54.843 45.5209 54.771 45.6285C54.6991 45.7362 54.5969 45.8201 54.4773 45.8696C54.3577 45.9192 54.226 45.9321 54.0991 45.9069C53.9721 45.8816 53.8554 45.8193 53.7639 45.7277C53.6723 45.6362 53.61 45.5195 53.5847 45.3925C53.5595 45.2656 53.5724 45.1339 53.622 45.0143C53.6715 44.8947 53.7554 44.7925 53.8631 44.7206C53.9707 44.6486 54.0973 44.6102 54.2268 44.6102C54.4004 44.6102 54.5669 44.6792 54.6896 44.802C54.8124 44.9247 54.8814 45.0912 54.8814 45.2648Z" fill="#7686E6"/>
<path d="M48.0538 53.0775H45.6105V50.6342H42.9136V53.0775H40.4703V55.7745H42.9136V58.2178H45.6105V55.7745H48.0538V53.0775Z" fill="#7686E6"/>
<path d="M119.797 32.3741H119.016L117.401 30.1452L116.178 35.1742L115.244 26.4467L112.715 32.1335L111.607 30.1174L110.192 32.6572L108.264 30.299L107.389 34.5916L106.57 27.2126L103.796 32.2219H97.1326C97.0927 32.2217 97.0531 32.2294 97.0162 32.2445C96.9793 32.2596 96.9457 32.2819 96.9175 32.31C96.8892 32.3381 96.8667 32.3716 96.8514 32.4084C96.8361 32.4453 96.8282 32.4848 96.8282 32.5247C96.8282 32.5646 96.8361 32.6042 96.8514 32.6411C96.8667 32.6781 96.8891 32.7116 96.9174 32.7399C96.9456 32.7682 96.9792 32.7906 97.0161 32.8059C97.053 32.8212 97.0926 32.8291 97.1326 32.8291H104.451L105.965 30.0961L107.119 40.5517L108.799 32.2465L110.347 34.1383L111.596 31.8979L112.804 34.0941L114.679 29.8768L115.825 40.501L117.847 32.1744L118.432 32.9812H120.204C120.057 32.7864 119.921 32.5837 119.797 32.3741Z" fill="#7686E6"/>
<path d="M125.698 28.2927C126.072 27.8385 126.542 27.4738 127.076 27.2254C127.609 26.977 128.191 26.8513 128.779 26.8575C130.606 26.8575 131.862 28.3303 131.862 30.047C131.862 32.0354 130.147 34.3854 125.698 36.4294C121.246 34.3854 119.533 32.0354 119.533 30.047C119.533 28.3303 120.79 26.8575 122.615 26.8575C123.203 26.8512 123.785 26.9768 124.319 27.2252C124.853 27.4736 125.324 27.8383 125.698 28.2927Z" fill="#FD6100"/>
<path opacity="0.66" d="M116.906 155.302L101.045 153.272C100.561 153.21 100.122 152.959 99.8232 152.573C99.5246 152.187 99.3915 151.698 99.4532 151.214L100.527 142.827C100.557 142.587 100.635 142.356 100.755 142.146C100.875 141.936 101.035 141.753 101.227 141.605C101.418 141.457 101.636 141.348 101.869 141.285C102.102 141.222 102.346 141.205 102.585 141.236L118.448 143.265C118.688 143.296 118.919 143.373 119.129 143.494C119.338 143.614 119.522 143.774 119.67 143.965C119.818 144.156 119.926 144.375 119.989 144.608C120.053 144.841 120.069 145.084 120.039 145.324L118.965 153.711C118.934 153.951 118.857 154.182 118.737 154.392C118.617 154.601 118.457 154.785 118.265 154.933C118.074 155.08 117.856 155.189 117.623 155.252C117.389 155.316 117.146 155.332 116.906 155.302Z" fill="white"/>
<path d="M107.225 144.457L106.791 143.475C106.73 143.336 106.63 143.219 106.503 143.136C106.377 143.054 106.229 143.01 106.078 143.01H98.7609C98.5535 143.01 98.3545 143.092 98.2078 143.239C98.0611 143.386 97.9787 143.585 97.9787 143.792V148.762H97.9918V158.131C97.9918 158.234 98.012 158.335 98.0513 158.43C98.0907 158.525 98.1483 158.611 98.221 158.684C98.2936 158.756 98.3799 158.814 98.4748 158.853C98.5697 158.892 98.6714 158.912 98.774 158.912H120.368C120.575 158.912 120.773 158.83 120.92 158.683C121.066 158.537 121.148 158.338 121.148 158.131V145.694C121.148 145.487 121.066 145.288 120.92 145.142C120.773 144.995 120.575 144.913 120.368 144.913H107.942C107.791 144.914 107.643 144.872 107.516 144.791C107.389 144.71 107.288 144.594 107.225 144.457Z" fill="#7686E6"/>
<path d="M114.282 152.076C114.282 152.929 114.029 153.763 113.555 154.473C113.08 155.182 112.407 155.735 111.619 156.062C110.83 156.388 109.963 156.473 109.126 156.307C108.289 156.141 107.521 155.73 106.917 155.126C106.314 154.523 105.903 153.755 105.737 152.918C105.57 152.081 105.656 151.214 105.982 150.425C106.309 149.637 106.862 148.963 107.571 148.489C108.28 148.015 109.115 147.762 109.968 147.762C111.112 147.762 112.209 148.217 113.018 149.026C113.827 149.835 114.282 150.932 114.282 152.076Z" fill="#EAE9F3"/>
<path d="M113.331 150.899H111.164V148.733H108.773V150.899H106.608V153.289H108.773V155.455H111.164V153.289H113.331V150.899Z" fill="#FD6100"/>
<path d="M43.3047 111.633C44.4887 111.633 45.4486 110.673 45.4486 109.489C45.4486 108.305 44.4887 107.346 43.3047 107.346C42.1207 107.346 41.1609 108.305 41.1609 109.489C41.1609 110.673 42.1207 111.633 43.3047 111.633Z" fill="#00B3BF"/>
<path d="M46.5712 115.31H49.6773V112.321H46.5712V115.31Z" fill="#7686E6"/>
<path d="M47.0294 116.325H49.2174V115.486H47.0294V116.325Z" fill="#7686E6"/>
<path d="M46.2259 109.84C46.2265 109.189 46.0321 108.553 45.6679 108.013V105.951C45.9062 105.951 46.1347 105.857 46.3032 105.688C46.4717 105.52 46.5663 105.291 46.5663 105.053V103.416H49.6757V105.053C49.6757 105.291 49.7703 105.52 49.9388 105.688C50.1073 105.857 50.3358 105.951 50.5741 105.951V111.257C50.5741 111.479 50.4858 111.692 50.3287 111.849C50.1716 112.006 49.9585 112.095 49.7362 112.095H46.5107C46.3437 112.095 46.1804 112.045 46.0419 111.952C45.9034 111.858 45.796 111.726 45.7333 111.571C46.0569 111.052 46.2276 110.452 46.2259 109.84Z" fill="#7686E6"/>
<path d="M45.8201 103.415H50.4268V102.313H45.8201V103.415Z" fill="#7686E6"/>
<path d="M39.6979 109.527C39.6881 109.63 39.6832 109.735 39.6832 109.84C39.6837 110.588 39.9406 111.313 40.4111 111.895C40.8816 112.477 41.5373 112.88 42.2688 113.037C41.8033 113.365 41.4474 113.825 41.2477 114.358C40.886 115.315 41.0578 116.394 41.4948 117.304C42.0421 118.372 42.8933 119.255 43.9414 119.84L43.5551 121.205C38.1874 119.673 35.9078 113.72 39.6979 109.527Z" fill="#7686E6"/>
<path d="M41.0595 122.801H45.55V119.788H41.0595V122.801Z" fill="#7686E6"/>
<path d="M53.9813 124.408H37.3102V123.917C37.3102 123.622 37.4273 123.339 37.6357 123.131C37.8441 122.923 38.1267 122.806 38.4214 122.806H52.8717C53.1664 122.806 53.4491 122.923 53.6575 123.131C53.8658 123.339 53.9829 123.622 53.9829 123.917V124.408H53.9813Z" fill="#8088C2"/>
<path d="M43.8611 118.87H52.4381V117.363H43.8611V118.87Z" fill="white"/>
<path d="M194.316 79.0963C194.316 79.0963 192.67 97.3629 195.159 111.275C195.784 114.769 205.433 116.322 210.706 120.29C219.496 126.907 225.621 135.837 227.182 139.385C230.745 137.778 230.724 121.735 228.773 115.363C226.654 111.126 194.316 79.0963 194.316 79.0963Z" fill="#BADCFF"/>
<path d="M245.642 102.112L211.647 98.0011L190.351 138.573H217.923L245.642 102.112Z" fill="#00158E"/>
<path opacity="0.44" d="M217.923 138.573L245.642 102.112L211.645 98.0011L211.038 99.1581C216.353 100.549 226.636 103.811 228.162 108.534C229.799 113.576 217.926 131.255 212.779 138.573H217.923Z" fill="#000F6B"/>
<path d="M210.397 96.1552L188.728 137.848L190.351 138.573L211.647 98.0011L245.642 102.112L243.572 100.489L210.397 96.1552Z" fill="#0021DB"/>
<path d="M270.793 95.2567L272.698 102.528L278.817 100.156L277.717 93.7184L270.793 95.2567Z" fill="#FC7575"/>
<path d="M243.454 78.7804C242.929 78.0293 239.343 73.4323 238.733 73.8594C238.122 74.2866 240.327 77.3796 240.656 77.8492C240.656 77.8492 239.397 77.751 238.777 79.1584C238.361 80.106 240.975 84.6178 242.071 86.4098C243.027 86.1103 244.439 84.9664 244.392 83.9796C244.393 82.1271 243.858 79.3565 243.454 78.7804Z" fill="#FC7575"/>
<g style="mix-blend-mode:multiply" opacity="0.53">
<path d="M276.14 94.0686L270.793 95.2567L271.487 97.9062C272.826 97.6706 274.225 96.944 275.063 95.5038C275.395 95.0055 275.754 94.5264 276.14 94.0686Z" fill="#FD5E5A"/>
</g>
<path d="M269.003 204.233L268.268 208.4L264.99 208.634L265.548 201.332L269.003 204.233Z" fill="#FC7575"/>
<path d="M268.838 207.758C268.838 207.758 265.807 207.812 265.142 207.288C264.478 206.765 263.778 207.779 262.704 209.134C261.631 210.489 257.631 210.327 257.14 211.398C256.77 212.216 268.645 211.969 269.25 211.952C269.671 211.939 268.838 207.758 268.838 207.758Z" fill="#00123F"/>
<path d="M277.904 203.582L277.169 207.748L273.89 207.982L274.449 200.68L277.904 203.582Z" fill="#FC7575"/>
<path d="M277.739 207.107C277.739 207.107 274.708 207.161 274.043 206.637C273.379 206.113 272.679 207.128 271.605 208.483C270.532 209.838 266.753 210.038 266.218 211.085C265.683 212.132 277.624 211.964 277.886 211.632C278.148 211.299 277.739 207.107 277.739 207.107Z" fill="#00123F"/>
<path d="M270.962 146.911L271.306 176.725L273.625 205.716L277.974 206.459C277.974 206.459 281.596 155.236 285.339 149.584C289.081 143.931 284.848 134.598 284.823 134.582L270.962 146.911Z" fill="#454966"/>
<path d="M283.291 148.561C284.905 146.127 286.095 142.9 285.795 139.233C285.699 138.043 283.789 136.724 283.55 135.719L270.962 146.913L271.306 176.727L272.597 192.874C274.917 178.964 279.231 158.999 280.095 153.271C280.465 152.752 281.697 150.97 283.291 148.561Z" fill="#001B5E"/>
<path d="M265.966 132.975C265.966 132.975 263.756 160.18 263.578 169.272C263.396 178.563 264.56 206.431 264.56 206.431L269.681 206.454C269.681 206.454 277.285 161.123 278.554 152.646C278.554 152.646 277.829 153.866 281.578 148.207C285.327 142.548 282.579 134.593 282.56 134.577L275.901 137.061L265.966 132.975Z" fill="#454966"/>
<path d="M289.04 119.773L284.314 127.705L286.375 132.428C286.375 132.428 298.917 122.562 297.83 119.858C296.922 117.58 284.388 104.123 281.002 100.428C280.702 100.1 280.313 99.868 279.882 99.7594C279.452 99.6509 278.999 99.6712 278.58 99.8177L272.767 101.832C272.767 101.832 289.559 118.027 289.04 119.773Z" fill="#424B5A"/>
<path d="M267.687 99.7277C267.687 99.7277 266.196 137.999 262.378 145.759C262.378 145.759 279.704 143.205 287.658 143.206C287.658 143.206 287.469 110.789 283.625 103.603C279.781 96.417 271.427 97.7279 267.687 99.7277Z" fill="#9C6AFF"/>
<path d="M276.439 113.834C280.149 111.871 281.349 109.141 281.411 105.675C281.463 103.155 273.003 104.472 267.442 104.819C267.339 106.783 267.203 109.213 267.029 111.902C269.172 114.243 273.764 115.26 276.439 113.834Z" fill="#424B5A"/>
<path d="M248.128 101.34C248.128 101.34 260.125 111.622 269.689 111.236C279.252 110.849 280.504 108.55 281.326 105.999C282.147 103.447 276.695 99.9535 271.229 98.9045C265.763 97.8555 256.009 97.9619 254.515 96.579C253.021 95.1962 245.324 84.8175 244.676 83.0108L240.039 84.9844L248.128 101.34Z" fill="#9C6AFF"/>
<path d="M273.281 83.415C273.281 83.415 271.657 84.2169 270.276 86.2674C269.49 87.4594 268.523 88.5221 267.411 89.4177L268.065 90.4634C268.065 90.4634 266.592 91.5304 266.73 93.1538C267.041 96.7279 272.569 97.3564 275.32 95.2813C276.068 94.7167 278.387 94.0097 279.144 92.7365C281.17 89.3244 280.573 84.0794 273.281 83.415Z" fill="#FC7575"/>
<path d="M275.989 91.0575C275.989 91.0575 274.15 87.6535 275.019 85.2577C275.019 85.2577 273.006 85.2184 271.392 84.3053C268.479 82.6606 272.019 76.5335 276.393 80.9013C276.393 80.9013 276.017 77.9393 279.115 78.4679C282.213 78.9965 283.345 80.232 282.787 83.1744C282.229 86.1169 283.512 84.8109 284.455 86.5309C285.397 88.2509 280.431 94.4238 278.107 94.6512L275.783 94.8787C275.783 94.8787 279.1 93.0196 278.171 91.6139C277.241 90.2081 275.989 91.0575 275.989 91.0575Z" fill="#320063"/>
<path d="M204.27 124.568C204.888 124.077 210.064 127.29 213.038 129.213C213.038 129.172 213.049 129.132 213.056 129.093C210.257 127.016 205.364 124.539 206.479 123.827C207.053 123.462 219.348 128.409 219.35 128.409C220.644 128.995 220.705 129.051 222.04 129.641C221.723 128.87 218.507 123.632 220.677 123.889L227.858 133.279C229.077 135.277 229.035 136.488 228.732 137.534C228.359 138.816 226.559 142.254 223.624 142.944C220.797 143.61 213.136 139.284 211.937 138.163C210.647 137.053 201.862 129.375 203.263 127.236C203.263 127.236 210.586 134.386 211.364 133.499C211.41 133.294 204.122 128.455 203.553 126.565C203.144 125.211 209.516 129.337 212.308 131.404C209.804 129.353 203.839 124.909 204.27 124.568Z" fill="#FC7575"/>
<path d="M48.3108 136.7H70.8602C73.2265 136.7 75.4959 137.64 77.1691 139.313C78.8424 140.986 79.7824 143.255 79.7824 145.622V202.909C79.7824 205.276 78.8424 207.545 77.1692 209.219C75.4961 210.892 73.2267 211.833 70.8602 211.833H48.3108C45.9445 211.833 43.6751 210.893 42.0019 209.22C40.3286 207.547 39.3886 205.277 39.3886 202.911V145.622C39.3886 143.255 40.3286 140.986 42.0019 139.313C43.6751 137.64 45.9445 136.7 48.3108 136.7Z" fill="#2C46E6"/>
<path d="M70.8569 136.7H69.7113C72.0777 136.7 74.3471 137.64 76.0203 139.313C77.6935 140.986 78.6336 143.255 78.6336 145.622V202.909C78.6338 204.081 78.4032 205.241 77.9549 206.324C77.5066 207.407 76.8494 208.39 76.0209 209.219C75.1924 210.048 74.2087 210.705 73.1261 211.154C72.0435 211.602 70.8832 211.833 69.7113 211.833H70.8569C72.0289 211.833 73.1894 211.603 74.2722 211.154C75.355 210.706 76.3388 210.048 77.1675 209.22C77.9962 208.391 78.6535 207.407 79.1019 206.324C79.5503 205.242 79.781 204.081 79.7807 202.909V145.622C79.7807 144.45 79.5499 143.29 79.1014 142.207C78.6529 141.124 77.9956 140.141 77.1669 139.312C76.3382 138.484 75.3545 137.827 74.2718 137.378C73.1891 136.93 72.0287 136.699 70.8569 136.7Z" fill="#2134AD"/>
<path d="M78.6352 202.909V145.623C78.6352 141.328 75.1535 137.847 70.8585 137.847H48.3108C44.0159 137.847 40.5341 141.328 40.5341 145.623L40.5341 202.909C40.5341 207.204 44.0159 210.686 48.3108 210.686H70.8585C75.1535 210.686 78.6352 207.204 78.6352 202.909Z" fill="#CBD4FF"/>
<path d="M63.7054 141.838H56.1137C56.0586 141.838 56.0042 141.827 55.9533 141.806C55.9025 141.785 55.8563 141.754 55.8174 141.715C55.7785 141.677 55.7477 141.63 55.7266 141.58C55.7056 141.529 55.6947 141.474 55.6947 141.419C55.6947 141.364 55.7056 141.31 55.7266 141.259C55.7477 141.208 55.7785 141.162 55.8174 141.123C55.8563 141.084 55.9025 141.053 55.9533 141.032C56.0042 141.011 56.0586 141 56.1137 141H63.7054C63.7604 141 63.8149 141.011 63.8657 141.032C63.9166 141.053 63.9627 141.084 64.0016 141.123C64.0405 141.162 64.0714 141.208 64.0925 141.259C64.1135 141.31 64.1243 141.364 64.1243 141.419C64.1243 141.474 64.1135 141.529 64.0925 141.58C64.0714 141.63 64.0405 141.677 64.0016 141.715C63.9627 141.754 63.9166 141.785 63.8657 141.806C63.8149 141.827 63.7604 141.838 63.7054 141.838Z" fill="#8088C2"/>
<path d="M64.4762 144.628H55.3478C55.2852 144.632 55.2225 144.623 55.1635 144.602C55.1046 144.58 55.0507 144.547 55.005 144.504C54.9594 144.461 54.923 144.409 54.8982 144.352C54.8733 144.294 54.8605 144.232 54.8605 144.169C54.8605 144.107 54.8733 144.045 54.8982 143.987C54.923 143.93 54.9594 143.878 55.005 143.835C55.0507 143.792 55.1046 143.758 55.1635 143.737C55.2225 143.716 55.2852 143.707 55.3478 143.71H64.4811C64.5437 143.707 64.6064 143.716 64.6653 143.737C64.7242 143.758 64.7782 143.792 64.8238 143.835C64.8695 143.878 64.9058 143.93 64.9307 143.987C64.9555 144.045 64.9684 144.107 64.9684 144.169C64.9684 144.232 64.9555 144.294 64.9307 144.352C64.9058 144.409 64.8695 144.461 64.8238 144.504C64.7782 144.547 64.7242 144.58 64.6653 144.602C64.6064 144.623 64.5437 144.632 64.4811 144.628H64.4762Z" fill="#8088C2"/>
<path d="M52.8063 144.169C52.8066 144.294 52.7698 144.416 52.7005 144.52C52.6312 144.624 52.5326 144.705 52.4171 144.753C52.3016 144.801 52.1745 144.814 52.0518 144.79C51.9291 144.765 51.8164 144.705 51.7279 144.617C51.6395 144.528 51.5793 144.416 51.555 144.293C51.5307 144.17 51.5433 144.043 51.5913 143.928C51.6393 143.812 51.7206 143.714 51.8247 143.644C51.9288 143.575 52.0512 143.538 52.1763 143.538C52.3432 143.539 52.5032 143.605 52.6213 143.723C52.7394 143.842 52.8059 144.002 52.8063 144.169Z" fill="#8088C2"/>
<path d="M59.5847 209.226C61.4845 209.226 63.0246 207.686 63.0246 205.786C63.0246 203.886 61.4845 202.346 59.5847 202.346C57.6848 202.346 56.1447 203.886 56.1447 205.786C56.1447 207.686 57.6848 209.226 59.5847 209.226Z" fill="#727586"/>
<path d="M59.0185 209.226C60.9183 209.226 62.4584 207.686 62.4584 205.786C62.4584 203.886 60.9183 202.346 59.0185 202.346C57.1187 202.346 55.5786 203.886 55.5786 205.786C55.5786 207.686 57.1187 209.226 59.0185 209.226Z" fill="#DFE5FF"/>
<path d="M74.5407 150.351H44.4896C43.4782 150.351 42.6583 151.171 42.6583 152.182V198.536C42.6583 199.548 43.4782 200.368 44.4896 200.368H74.5407C75.552 200.368 76.3719 199.548 76.3719 198.536V152.182C76.3719 151.171 75.552 150.351 74.5407 150.351Z" fill="#676E9C"/>
<path d="M75.6077 198.469V152.251C75.6077 151.697 75.1585 151.248 74.6045 151.248H44.4257C43.8717 151.248 43.4226 151.697 43.4226 152.251V198.469C43.4226 199.023 43.8717 199.472 44.4257 199.472H74.6045C75.1585 199.472 75.6077 199.023 75.6077 198.469Z" fill="white"/>
<path d="M74.6814 151.248H44.3489C43.8383 151.248 43.4226 151.739 43.4226 152.335V159.314H75.6061V152.335C75.6061 151.736 75.192 151.248 74.6814 151.248Z" fill="#BADCFF"/>
<path d="M69.2368 160.799H50.9407V162.029H69.2368V160.799Z" fill="#6B9ECE"/>
<path d="M46.6285 161.414L48.3566 162.584V160.244L46.6285 161.414Z" fill="#6B9ECE"/>
<path d="M72.2839 161.414L70.5558 162.584V160.244L72.2839 161.414Z" fill="#6B9ECE"/>
<path d="M45.9068 153.31H53.8537C54.2486 153.31 54.6274 153.467 54.9067 153.746C55.186 154.025 55.3429 154.404 55.3429 154.799V155.583C55.3429 155.978 55.186 156.357 54.9067 156.636C54.6274 156.915 54.2486 157.072 53.8537 157.072H45.9068C45.5118 157.072 45.133 156.915 44.8538 156.636C44.5745 156.357 44.4176 155.978 44.4176 155.583V154.799C44.418 154.404 44.5751 154.026 44.8542 153.747C45.1334 153.468 45.512 153.31 45.9068 153.31Z" fill="#00B3BF"/>
<path d="M73.2528 153.31H71.3185C70.8955 153.31 70.5526 153.653 70.5526 154.076V156.308C70.5526 156.731 70.8955 157.074 71.3185 157.074H73.2528C73.6758 157.074 74.0187 156.731 74.0187 156.308V154.076C74.0187 153.653 73.6758 153.31 73.2528 153.31Z" fill="#6B9ECE"/>
<path d="M72.5621 153.925H72.0074V156.367H72.5621V153.925Z" fill="white"/>
<path d="M71.2431 154.822V155.472H73.3264V154.822H71.2431Z" fill="white"/>
<path opacity="0.18" d="M48.5874 166.996H45.028V197.779H48.5874V166.996Z" fill="#6B9ECE"/>
<path opacity="0.18" d="M52.8603 166.996H49.3009V197.779H52.8603V166.996Z" fill="#6B9ECE"/>
<path opacity="0.18" d="M57.1643 166.996H53.6049V197.779H57.1643V166.996Z" fill="#6B9ECE"/>
<path opacity="0.18" d="M61.47 166.996H57.9106V197.779H61.47V166.996Z" fill="#6B9ECE"/>
<path opacity="0.18" d="M65.7739 166.996H62.2145V197.779H65.7739V166.996Z" fill="#6B9ECE"/>
<path opacity="0.18" d="M70.0796 166.996H66.5202V197.779H70.0796V166.996Z" fill="#6B9ECE"/>
<path opacity="0.18" d="M74.3836 166.996H70.8242V197.779H74.3836V166.996Z" fill="#6B9ECE"/>
<path d="M48.5874 163.466H45.028V165.805H48.5874V163.466Z" fill="#6B9ECE"/>
<path d="M52.8603 163.466H49.3009V165.805H52.8603V163.466Z" fill="#6B9ECE"/>
<path d="M57.1643 163.466H53.6049V165.805H57.1643V163.466Z" fill="#6B9ECE"/>
<path d="M61.47 163.466H57.9106V165.805H61.47V163.466Z" fill="#6B9ECE"/>
<path d="M65.7739 163.466H62.2145V165.805H65.7739V163.466Z" fill="#6B9ECE"/>
<path d="M70.0796 163.466H66.5202V165.805H70.0796V163.466Z" fill="#FD6100"/>
<path d="M74.3836 163.466H70.8242V165.805H74.3836V163.466Z" fill="#FD6100"/>
<path d="M74.7452 170.544H44.4159V171.308H74.7452V170.544Z" fill="white"/>
<path d="M74.7452 175.138H44.4159V175.902H74.7452V175.138Z" fill="white"/>
<path d="M74.7452 179.731H44.4159V180.496H74.7452V179.731Z" fill="white"/>
<path d="M74.7452 184.325H44.4159V185.089H74.7452V184.325Z" fill="white"/>
<path d="M74.7452 188.919H44.4159V189.683H74.7452V188.919Z" fill="white"/>
<path d="M74.6798 193.512H44.3505V194.277H74.6798V193.512Z" fill="white"/>
<path d="M59.1117 176.183L56.1922 174.927L59.8514 179.406C60.5879 177.753 62.2194 174.094 62.9755 172.395L59.1117 176.183Z" fill="#FF1F20"/>
<defs>
<linearGradient id="paint0_linear_54_858" x1="165.666" y1="191.66" x2="157.035" y2="58.8609" gradientUnits="userSpaceOnUse">
<stop stop-color="#E5E5E5"/>
<stop offset="1" stop-color="white"/>
</linearGradient>
<linearGradient id="paint1_linear_54_858" x1="163.421" y1="185.045" x2="158.168" y2="104.204" gradientUnits="userSpaceOnUse">
<stop stop-color="#0082C1"/>
<stop offset="1" stop-color="#8DDCFF"/>
</linearGradient>
<linearGradient id="paint2_linear_54_858" x1="173.726" y1="168.966" x2="175.644" y2="78.1913" gradientUnits="userSpaceOnUse">
<stop stop-color="#6EA7E8"/>
<stop offset="1" stop-color="#9AD2FF"/>
</linearGradient>
</defs>
</svg>
