<svg width="20" height="24" viewBox="0 0 20 24" fill="none" xmlns="http://www.w3.org/2000/svg">
<path d="M16.7216 12.577C16.7109 10.627 17.593 9.15515 19.3783 8.0712C18.3794 6.64187 16.8703 5.85547 14.8778 5.70138C12.9915 5.5526 10.9299 6.80127 10.1753 6.80127C9.37832 6.80127 7.55048 5.75452 6.11583 5.75452C3.1509 5.80234 0 8.11902 0 12.8321C0 14.2242 0.255048 15.6624 0.765143 17.1467C1.44527 19.0967 3.90011 23.8789 6.46121 23.7991C7.80021 23.7673 8.74601 22.848 10.4888 22.848C12.1785 22.848 13.0553 23.7991 14.5484 23.7991C17.1307 23.762 19.3518 19.4155 20 17.4601C16.5356 15.8289 16.7216 12.678 16.7216 12.577ZM13.7141 3.85228C15.1647 2.13071 15.0319 0.563231 14.9894 0C13.7088 0.0743889 12.2264 0.871413 11.3815 1.85441C10.4516 2.90648 9.90436 4.20829 10.0213 5.67481C11.4081 5.78108 12.6727 5.06908 13.7141 3.85228Z" fill="black"/>
</svg>
