<svg width="139" height="201" viewBox="0 0 139 201" fill="none" xmlns="http://www.w3.org/2000/svg">
<path d="M138.705 70.3951C139.822 74.5359 137.67 79.1672 133.829 80.8835C132.685 81.3466 131.813 81.5101 130.996 81.5373C127.863 81.619 125.057 79.5486 124.131 76.1978L113.07 35.8786L93.2374 80.2842C104.026 87.2038 112.089 97.9102 116.285 111.096C121.297 126.869 120.18 144.277 113.179 160.132C106.205 175.988 94.1092 188.41 79.1802 195.058C71.9881 198.272 64.5509 199.961 57.2226 200.152C49.3222 200.343 41.5036 198.763 34.2025 195.439C20.1181 189.01 9.57518 176.805 4.58977 161.031C-0.422883 145.285 0.694065 127.85 7.69543 111.995C14.724 96.1394 26.7925 83.7167 41.7215 77.0423C48.8863 73.8276 56.3236 72.1386 63.6519 71.9751C69.1004 71.8389 74.4944 72.5472 79.6978 74.0728L99.5305 29.6945L62.5349 48.0833C61.4997 48.6009 60.4372 48.8461 59.402 48.8733C56.5143 48.9551 53.8445 47.1843 52.7548 44.1604C51.2564 40.0467 53.2179 35.1158 57.1409 33.1816L112.28 5.77545C113.097 5.42129 113.506 5.28508 113.915 5.17611C114.541 5.06714 114.977 4.98541 115.413 4.98541C116.012 4.98541 116.475 5.01266 116.911 5.12163C117.456 5.2306 117.919 5.39405 118.382 5.58475C118.818 5.77545 119.254 6.02063 119.636 6.3203C120.071 6.64721 120.398 6.97413 120.698 7.30104C121.107 7.73692 121.325 8.11832 121.57 8.49972C121.869 9.04457 122.033 9.45321 122.169 9.88909L138.705 70.3951ZM101.955 117.525C98.2501 105.811 90.4314 96.7387 79.9702 91.9713C74.5489 89.4922 68.7462 88.3207 62.8618 88.457C57.4133 88.5932 51.883 89.8463 46.5435 92.2437C35.4557 97.2018 26.4929 106.41 21.2623 118.206C16.0589 129.975 15.2417 142.942 18.9467 154.629C22.6517 166.344 30.4703 175.416 40.9315 180.183C46.3528 182.662 52.1555 183.806 58.0126 183.67C63.4612 183.534 68.9914 182.281 74.331 179.883C85.4188 174.925 94.3816 165.717 99.6122 153.921C104.843 142.152 105.66 129.212 101.955 117.525Z" fill="#7821E9"/>
<path d="M137.234 65.4096C138.351 69.5505 136.199 74.1818 132.358 75.8981C131.214 76.3612 130.342 76.5247 129.525 76.5519C126.392 76.6336 123.586 74.5632 122.659 71.2123L111.599 30.8932L91.7663 75.2987C102.554 82.2184 110.618 92.9247 114.814 106.11C119.826 121.884 118.709 139.292 111.708 155.147C104.707 171.002 92.6108 183.425 77.6818 190.099C70.4897 193.314 63.0525 195.003 55.7242 195.194C47.8239 195.384 40.0052 193.804 32.7042 190.481C18.6197 184.051 8.0768 171.82 3.0914 156.073C-1.92125 140.327 -0.804306 122.892 6.19706 107.036C13.2257 91.1812 25.2942 78.7586 40.2231 72.0841C47.388 68.8695 54.8252 67.1804 62.1535 67.017C67.602 66.8807 72.9961 67.5891 78.1994 69.1147L98.0321 24.7091L61.0365 43.0979C60.0013 43.6155 58.9389 43.8607 57.9036 43.8879C55.0159 43.9697 52.3461 42.1989 51.2564 39.175C49.7581 35.0613 51.7196 30.1304 55.6425 28.1962L110.782 0.790038C111.599 0.435883 112.008 0.299669 112.416 0.190698C113.043 0.0817272 113.479 0 113.915 0C114.514 0 114.977 0.0272427 115.413 0.136213C115.958 0.245184 116.421 0.408639 116.884 0.599338C117.32 0.790037 117.756 1.03522 118.137 1.33489C118.573 1.6618 118.9 1.98871 119.2 2.31563C119.608 2.75151 119.826 3.13291 120.071 3.5143C120.371 4.05916 120.535 4.4678 120.671 4.90368L137.234 65.4096ZM100.457 112.539C96.7517 100.825 88.933 91.7533 78.4719 86.9858C73.0506 84.5068 67.2479 83.3353 61.3635 83.4715C55.9149 83.6078 50.3847 84.8609 45.0451 87.2583C33.9573 92.2164 24.9945 101.424 19.7639 113.221C14.5606 124.989 13.7433 137.957 17.4483 149.644C21.1533 161.358 28.9719 170.43 39.4331 175.198C44.8544 177.677 50.6571 178.821 56.5143 178.685C61.9628 178.548 67.4931 177.295 72.8326 174.898C83.9204 169.94 92.8832 160.732 98.1138 148.936C103.344 137.194 104.189 124.254 100.457 112.539Z" fill="#9C6AFF"/>
<mask id="mask0_76_512" style="mask-type:luminance" maskUnits="userSpaceOnUse" x="-3" y="14" width="166" height="165">
<path d="M162.379 113.275L156.713 75.4622L65.45 14.4659L-2.62941 37.159L16.8219 121.72C14.4245 131.037 14.6152 140.708 17.4484 149.644C21.1534 161.358 28.9721 170.43 39.4333 175.198C44.8546 177.677 50.6572 178.821 56.5144 178.685C61.963 178.548 67.4932 177.295 72.8328 174.898C81.4687 171.057 88.797 164.573 94.1093 156.346L145.843 145.421L162.379 113.275Z" fill="white"/>
</mask>
<g mask="url(#mask0_76_512)">
<path d="M59.6743 137.902C59.6743 137.902 58.8297 195.956 55.942 211.212C53.0543 226.468 37.1718 296.945 37.0084 298.389C29.0535 297.79 21.1259 295.093 21.1259 295.093C21.1259 295.093 20.3086 239.654 28.4269 211.212C29.4621 206.963 28.6994 183.18 27.991 149.017C27.8821 144.032 30.3612 138.175 30.2794 132.754C64.9321 137.848 59.6743 137.902 59.6743 137.902Z" fill="#331A26"/>
<path d="M79.4524 127.523C79.4524 127.523 84.0836 143.487 84.0019 161.467C83.9202 180.864 83.6477 202.958 82.9939 210.994C81.7135 226.496 75.2297 296.836 75.2025 298.307C66.8118 298.689 58.1758 296.945 58.1758 296.945C58.1758 296.945 51.5559 241.316 56.8137 212.057C57.4948 207.072 46.4887 164.328 44.2276 122.864C81.1142 123.736 79.4524 127.523 79.4524 127.523Z" fill="#331A26"/>
<path d="M88.6335 165.009C88.6062 164.764 88.6062 164.518 88.579 164.219C88.6062 164.491 88.6335 164.764 88.6335 165.009Z" fill="#BFDED6"/>
<path d="M48.7227 155.692C48.7227 155.692 45.5898 164.927 34.2296 166.916C34.6383 173.536 42.4297 170.812 44.5546 170.294C46.6523 169.776 51.0928 165.445 51.0928 164.301C51.0656 163.129 48.7227 155.692 48.7227 155.692Z" fill="#331A26"/>
<path d="M62.1537 154.411C62.072 157.326 61.9358 160.269 61.7996 163.184C61.7451 164.655 61.6634 166.099 61.5544 167.57C61.4727 169.041 61.3637 170.485 61.2547 171.956L61.0368 171.82C61.7451 171.329 62.4262 170.839 63.08 170.294C63.7338 169.749 64.3059 169.122 64.7418 168.414C65.1777 167.706 65.4773 166.889 65.6408 166.071C65.8315 165.254 65.8587 164.409 65.9677 163.538C66.1584 161.849 66.3763 160.132 66.6215 158.443C66.8667 156.754 67.1119 155.065 67.3843 153.376L66.785 158.471C66.5943 160.16 66.4036 161.876 66.2129 163.565C66.1312 164.41 66.0767 165.281 65.886 166.126C65.7225 166.97 65.4228 167.815 64.9597 168.55C64.5238 169.286 63.9245 169.94 63.2707 170.512C62.6169 171.084 61.9085 171.574 61.2002 172.037L60.955 172.201L60.9823 171.928C61.1185 170.485 61.2275 169.013 61.3092 167.57L61.5816 163.184L62.1537 154.411Z" fill="#443B44"/>
<path d="M61.1457 171.956C61.1457 171.956 60.8733 181.572 60.4646 183.97C60.4646 183.97 56.5417 214.59 48.941 242.759" stroke="#443B44" stroke-width="1.0163" stroke-miterlimit="10"/>
<path d="M33.4399 167.433C31.8598 182.935 33.0313 194.186 31.3967 209.442C31.3967 209.442 25.1037 225.515 22.8698 291.578" stroke="#443B44" stroke-width="1.0163" stroke-miterlimit="10"/>
<path d="M91.7937 112.485C91.7937 112.485 93.9186 123.6 94.0821 124.036C99.5851 119.949 111.572 110.769 111.572 110.769C116.312 116.98 116.939 117.661 116.939 117.661C116.939 117.661 106.995 128.122 102.963 132.699C98.9313 137.276 95.3897 140.027 91.0309 139.755C86.6993 139.482 81.7139 127.959 81.7139 127.959L80.27 115.863L91.7937 112.485Z" fill="#F9A58C"/>
<path d="M70.6261 77.233C70.6261 77.233 80.2155 80.5838 83.6753 83.6895C87.1624 86.8224 94.7359 110.06 94.7359 110.06C94.7359 110.06 90.8402 117.579 82.6946 118.179C74.549 118.778 74.1132 107.2 74.8487 105.647C75.5843 104.067 70.6261 77.233 70.6261 77.233Z" fill="white"/>
<path d="M55.2611 61.7864C55.2611 61.7864 54.4438 62.9306 54.5528 67.7253C54.6345 71.6482 53.4358 72.9559 53.4358 72.9559C53.4358 78.5679 57.5495 82.5725 62.8618 82.1094C66.4306 81.8097 68.61 78.4044 68.2831 75.4077C68.2559 75.1625 67.3841 74.5632 67.711 70.613C67.8472 68.9512 68.2831 67.5618 68.2831 67.5618C62.317 69.5233 55.2611 61.7864 55.2611 61.7864Z" fill="#F9A58C"/>
<path d="M30.3068 166.861C31.2603 166.998 32.2138 167.025 33.1673 167.025C34.1208 167.025 35.0743 166.943 36.0278 166.807C37.9075 166.534 39.76 166.017 41.449 165.145C42.2936 164.709 43.1109 164.219 43.8464 163.647C44.582 163.047 45.263 162.394 45.8896 161.685C46.0531 161.495 46.1893 161.304 46.3255 161.14L46.5434 160.868C46.6252 160.786 46.6796 160.677 46.7341 160.568L47.1428 159.969C47.279 159.778 47.388 159.56 47.4969 159.342C47.7421 158.934 47.96 158.498 48.178 158.089C48.287 157.871 48.3687 157.653 48.4777 157.435L48.7773 156.782C48.178 158.607 47.2517 160.323 46.0531 161.821C45.4537 162.557 44.7454 163.238 43.9826 163.837C43.2198 164.437 42.4025 164.954 41.558 165.39C40.6863 165.826 39.7872 166.18 38.861 166.425C37.9347 166.698 36.9813 166.889 36.0278 166.998C34.1208 167.243 32.1865 167.215 30.3068 166.861Z" fill="#443B44"/>
<path d="M74.6852 51.08C74.6852 51.08 75.7204 70.0137 63.4885 71.0761C60.1921 71.4303 52.9183 66.3359 51.5289 63.0123C48.8319 62.8488 47.6605 60.4515 48.0691 57.8362C48.5867 54.4581 51.5017 54.2946 52.4007 55.1392C49.5947 52.7146 48.8592 49.5817 50.0306 44.4873C51.202 39.3929 60.4918 41.7358 62.4805 42.1172C64.0606 40.973 74.2221 39.9378 74.6852 51.08Z" fill="#F9A58C"/>
<path d="M69.7543 68.1884C69.4819 68.4336 69.2095 68.6788 68.937 68.8967L68.5012 69.2236C68.3649 69.3326 68.2015 69.4416 68.0653 69.5233L67.6021 69.823C67.4387 69.9047 67.2752 69.9864 67.1118 70.0681C66.7849 70.2588 66.4579 70.3678 66.1038 70.5313C65.4227 70.7764 64.7144 70.9671 63.9789 71.0489C63.2433 71.1306 62.5078 71.1034 61.7995 71.0216C60.3556 70.8037 58.9662 70.2316 57.7403 69.4416C56.5144 68.6515 55.3974 67.698 54.4712 66.5538C54.9615 67.0987 55.4792 67.5891 56.0513 68.0522C56.5961 68.5153 57.1954 68.9239 57.822 69.3053C59.0479 70.0409 60.4101 70.613 61.8267 70.8037C62.535 70.9127 63.2706 70.9127 63.9789 70.8582C64.6872 70.7765 65.3955 70.613 66.0766 70.3678C66.4035 70.2316 66.7576 70.1226 67.0573 69.9319C67.2207 69.8502 67.3842 69.7685 67.5477 69.6867L68.0108 69.4143C68.1742 69.3326 68.3105 69.2236 68.4739 69.1146L68.9098 68.815C69.1822 68.6515 69.4546 68.4063 69.7543 68.1884Z" fill="#BC6048"/>
<path d="M64.7416 65.4914C64.7416 65.4914 62.2625 65.5459 60.7369 63.7751C60.2193 64.6741 59.8379 66.6628 61.4725 67.4801C63.434 68.4881 64.7416 65.4914 64.7416 65.4914Z" fill="white"/>
<path d="M67.3298 56.1744C67.3298 56.1744 67.248 59.8521 68.7191 61.5957C68.7191 61.5957 68.0926 62.0588 67.0029 62.6581" stroke="#E26B48" stroke-width="0.5148" stroke-miterlimit="10" stroke-linecap="round" stroke-linejoin="round"/>
<path d="M60.2466 57.1551C60.2739 57.8907 60.737 58.49 61.2819 58.4628C61.8267 58.4355 62.2081 57.8089 62.1809 57.0461C62.1536 56.3106 61.6905 55.7113 61.1456 55.7385C60.6008 55.793 60.1921 56.4196 60.2466 57.1551Z" fill="#382B28"/>
<path d="M63.5157 51.7611C63.5157 51.7611 60.6008 50.6714 58.7483 51.7883C58.7483 51.7883 60.8187 50.072 63.5157 51.7611Z" stroke="#4C0702" stroke-width="0.7493" stroke-miterlimit="10" stroke-linecap="round" stroke-linejoin="round"/>
<path d="M72.2335 57.9179C72.1518 58.6535 71.6342 59.2256 71.1166 59.1438C70.599 59.0893 70.2448 58.4355 70.3265 57.6727C70.4083 56.9372 70.9259 56.3651 71.4435 56.4468C71.9611 56.5285 72.3152 57.1824 72.2335 57.9179Z" fill="#382B28"/>
<path d="M69.591 52.1152C69.591 52.1152 72.3153 51.5976 73.7319 52.7691C73.7319 52.7691 72.2063 51.0528 69.591 52.1152Z" stroke="#4C0702" stroke-width="0.7493" stroke-miterlimit="10" stroke-linecap="round" stroke-linejoin="round"/>
<path d="M61.6903 61.5412C61.6085 62.2767 60.4099 62.7399 58.966 62.6036C57.5494 62.4674 56.4597 61.7319 56.5414 60.9963C56.6231 60.2608 57.8218 59.7977 59.2657 59.9339C60.6823 60.0973 61.772 60.8056 61.6903 61.5412Z" fill="#EA7754"/>
<path d="M73.4318 61.2687C73.2139 62.1405 72.9414 62.985 72.6418 63.8296C71.5521 63.5571 70.7893 62.9578 70.871 62.3585C70.9255 61.6229 72.0697 61.1598 73.4318 61.2687Z" fill="#EA7754"/>
<path d="M55.0706 53.8315C54.6348 54.3764 54.2261 54.9485 53.872 55.5478C53.5995 56.0382 52.973 57.0462 53.0819 57.6727C53.0819 57.6455 52.6733 55.3571 51.6653 54.9212C50.3849 54.3764 48.9955 55.2481 48.4779 56.3651C47.7151 57.9996 47.7969 57.7272 46.8434 55.9292C44.9364 52.2787 44.3098 48.5192 45.7264 44.5962C47.0885 40.8368 49.9763 37.6766 53.5995 35.9876C57.7949 34.0261 62.6169 34.1623 66.9757 35.4155C69.2913 36.0693 72.8601 37.4314 75.0123 35.6607C75.884 34.9523 75.9658 33.7809 75.7751 32.7457C75.7751 32.8002 75.9385 32.9091 75.9658 32.9636C78.8535 36.0421 79.698 40.4009 79.2894 44.4873C78.9352 48.1106 77.9545 51.979 75.5299 54.8123C75.3664 55.003 74.4947 55.684 74.4947 55.9292C74.6854 52.3604 74.5764 49.8541 73.7864 48.2195C72.8329 48.7916 71.1983 48.2195 70.3265 47.7564C69.6727 47.4022 68.8554 46.2036 68.2289 46.8301C67.9292 47.1298 67.793 47.6474 67.4933 47.9471C67.1936 48.2468 66.8667 48.5192 66.4853 48.7099C65.5863 49.2003 64.5783 49.4182 63.5704 49.6089C62.5896 49.7996 61.6089 50.0175 60.6282 50.2082C59.5384 50.4262 58.4215 50.6714 57.4952 51.2707C56.8142 51.7338 56.2693 52.3604 55.7517 52.987C55.5338 53.2594 55.2886 53.5318 55.0706 53.8315Z" fill="#4C0702"/>
<path d="M61.7993 82.3546C61.7993 82.3546 67.1661 74.6721 67.602 74.209C68.7462 74.1545 71.1436 76.2795 71.6884 77.7506C72.206 79.2217 71.7429 85.542 70.1083 87.0131C68.4738 88.4842 66.9482 86.3865 66.0492 85.1061C65.1502 83.8802 64.3057 82.1639 61.7993 82.3546Z" fill="white"/>
<path d="M82.9395 99.2178C84.2472 108.317 84.7103 117.607 85.3369 126.787C85.909 134.878 86.3993 142.97 86.7807 151.088C86.8625 152.831 86.9442 154.602 86.9987 156.346C87.0804 159.043 87.6525 159.315 85.2824 161.168C84.2199 162.012 82.8578 162.312 81.5229 162.366C76.8644 162.584 72.4511 160.323 67.8471 159.56C60.3281 158.334 51.7467 158.225 45.0177 160.841C40.0323 162.775 34.2024 162.394 29.2987 160.051C27.4735 159.152 26.411 158.389 26.0296 156.264C25.621 153.921 26.4927 151.279 26.5472 148.936C26.6289 145.721 26.7107 142.506 26.7924 139.292L38.0164 106.41C38.0164 106.41 43.4377 93.1699 43.6556 92.4071C43.8735 91.6716 46.1347 87.3672 46.4343 86.55C46.7613 85.7327 51.6377 82.3818 51.6377 82.3818L56.1055 81.1014L60.9547 81.3739L70.0265 78.0775C70.081 78.1047 81.6864 90.4729 82.9395 99.2178Z" fill="white"/>
<path d="M53.5178 73.0921C53.5178 73.0921 49.3224 73.1738 47.252 76.0888C45.1815 79.0037 50.0035 85.7872 53.2181 87.5034C56.46 89.247 57.25 85.3785 58.4215 83.4171C59.5929 81.4556 61.6361 82.3818 61.6361 82.3818L53.5178 73.0921Z" fill="white"/>
<path d="M23.9594 113.438C23.9594 113.438 22.7062 123.409 23.0059 129.403C23.3328 135.396 35.701 158.089 36.3276 159.996C36.9541 161.903 37.6625 166.18 37.6625 166.18C37.6625 166.18 44.119 165.39 46.7343 160.568C46.4891 158.443 44.4459 157.163 43.8193 154.248C43.1927 151.333 37.8259 134.388 36.709 130.165C35.592 125.916 38.6159 110.796 38.6159 110.796L23.9594 113.438Z" fill="#F9A58C"/>
<path d="M48.287 74.9991C48.287 74.9991 33.8484 79.712 29.2717 85.542C24.6949 91.3719 20.3361 113.602 20.3361 113.602C20.3361 113.602 33.2763 120.549 40.2232 116.299C41.9667 109.352 42.4299 101.152 42.4299 101.152L51.9103 84.7247L48.287 74.9991Z" fill="white"/>
<path d="M48.0692 75.0808C47.7151 75.4894 47.4426 76.007 47.3064 76.5247C47.1702 77.0423 47.143 77.6144 47.1702 78.1592C47.2519 79.2489 47.5789 80.3114 48.042 81.3194C48.5051 82.3273 49.0772 83.2536 49.731 84.1526C50.3849 85.0244 51.1204 85.8689 51.9377 86.5772C52.3463 86.9314 52.7822 87.2583 53.2726 87.5307C53.7629 87.7759 54.2805 87.9666 54.8254 87.9666C55.3703 87.9666 55.8606 87.6942 56.242 87.3128C56.6234 86.9314 56.9231 86.4682 57.1955 85.9779C57.4679 85.4875 57.6859 84.9971 57.9038 84.5068C58.0128 84.2616 58.1218 84.0164 58.258 83.7712C58.3125 83.6622 58.367 83.526 58.4487 83.4171C58.5304 83.3081 58.5849 83.1719 58.6939 83.0901C58.8846 82.8722 59.1025 82.7087 59.3477 82.5998C59.5929 82.4908 59.8653 82.4091 60.1377 82.3546C60.6826 82.2729 61.2547 82.3273 61.7723 82.4636C61.2274 82.3273 60.6826 82.3001 60.1377 82.4091C59.8653 82.4636 59.6201 82.5453 59.3749 82.6543C59.1297 82.7905 58.9118 82.9539 58.7483 83.1446C58.6394 83.2536 58.5849 83.3626 58.5032 83.4715C58.4214 83.5805 58.367 83.7167 58.3125 83.8257C58.2035 84.0709 58.0673 84.3161 57.9583 84.5612C57.7404 85.0516 57.5224 85.5692 57.25 86.0596C57.0048 86.55 56.7051 87.0131 56.2965 87.4217C55.9151 87.8304 55.3703 88.1028 54.7982 88.13C54.2261 88.1573 53.6812 87.9393 53.1908 87.6941C52.7005 87.4217 52.2646 87.0948 51.8287 86.7407C50.9842 86.0051 50.2759 85.1878 49.6221 84.2888C48.9682 83.3898 48.3961 82.4363 47.9603 81.4283C47.4971 80.4204 47.1702 79.3579 47.1157 78.2409C47.0885 77.6961 47.1157 77.124 47.2792 76.6064C47.4426 75.9798 47.7151 75.4894 48.0692 75.0808Z" fill="#AFAFAF"/>
<path d="M61.7993 82.3546C62.1535 85.1333 62.4804 87.9121 62.7801 90.7181C62.8618 91.4264 62.9163 92.1075 62.9708 92.8158C62.998 93.1699 62.998 93.5241 62.998 93.8782V94.9407C62.998 96.3301 63.0253 97.7467 63.0525 99.1361C63.107 101.942 63.2159 104.748 63.4066 107.527C63.5973 110.333 63.8153 113.112 64.2784 115.89C64.4964 117.28 64.8505 118.642 64.9867 120.031L65.1229 121.066L65.2319 122.102L65.3409 123.137L65.4226 124.199C65.6133 127.005 65.7495 129.811 65.8312 132.59C65.913 135.396 65.9675 138.202 65.9947 141.008C66.0219 143.814 66.0219 146.62 65.9947 149.426C65.9947 146.62 65.9675 143.814 65.913 141.008C65.8585 138.202 65.804 135.396 65.7223 132.59C65.6405 129.784 65.5043 126.978 65.2864 124.199L65.2047 123.164L65.0957 122.129L64.9867 121.094L64.8505 120.058C64.6871 118.669 64.3601 117.307 64.115 115.918C63.6791 113.139 63.4611 110.333 63.2704 107.554C63.107 104.748 62.998 101.942 62.9435 99.1361C62.9163 97.7467 62.889 96.3301 62.889 94.9407V93.8782C62.889 93.5241 62.889 93.1699 62.8618 92.843C62.8073 92.1347 62.7528 91.4536 62.6711 90.7453C62.4259 87.9121 62.1262 85.1333 61.7993 82.3546Z" fill="#AFAFAF"/>
<path d="M41.6397 97.5015C41.5308 100.662 41.4218 103.795 41.2856 106.927C41.1494 110.06 40.9859 113.221 40.8224 116.353V116.381H40.7952C40.2776 116.653 39.7327 116.844 39.1879 117.007C38.643 117.171 38.0709 117.28 37.4988 117.334C38.0709 117.252 38.6158 117.116 39.1606 116.953C39.4331 116.871 39.7055 116.762 39.9779 116.653C40.2503 116.544 40.4955 116.435 40.7407 116.272L40.7135 116.299C40.8224 113.166 40.9587 110.006 41.1221 106.873C41.2856 103.795 41.449 100.634 41.6397 97.5015Z" fill="#AFAFAF"/>
<path d="M60.5734 83.9891C61.0248 83.9891 61.3907 83.6842 61.3907 83.3081C61.3907 82.9319 61.0248 82.627 60.5734 82.627C60.122 82.627 59.7561 82.9319 59.7561 83.3081C59.7561 83.6842 60.122 83.9891 60.5734 83.9891Z" fill="#AFAFAF"/>
<path d="M62.0718 94.9679C62.0718 95.3493 61.7176 95.649 61.2545 95.649C60.7914 95.649 60.4372 95.3493 60.4372 94.9679C60.4372 94.5865 60.7914 94.2869 61.2545 94.2869C61.7176 94.2869 62.0718 94.5865 62.0718 94.9679Z" fill="#AFAFAF"/>
<path d="M62.6167 106.927C62.6167 107.309 62.2626 107.609 61.7994 107.609C61.3635 107.609 60.9821 107.309 60.9821 106.927C60.9821 106.546 61.3363 106.246 61.7994 106.246C62.2626 106.246 62.6167 106.546 62.6167 106.927Z" fill="#AFAFAF"/>
<path d="M63.8973 118.86C63.8973 119.241 63.5431 119.541 63.08 119.541C62.6441 119.541 62.2627 119.241 62.2627 118.86C62.2627 118.478 62.6169 118.179 63.08 118.179C63.5431 118.179 63.8973 118.506 63.8973 118.86Z" fill="#AFAFAF"/>
<path d="M64.687 130.819C64.687 131.201 64.3329 131.5 63.8697 131.5C63.4338 131.5 63.0525 131.201 63.0525 130.819C63.0525 130.438 63.4066 130.138 63.8697 130.138C64.3329 130.138 64.687 130.438 64.687 130.819Z" fill="#AFAFAF"/>
<path d="M65.1775 142.561C65.1775 142.942 64.8234 143.242 64.3602 143.242C63.8971 143.242 63.543 142.942 63.543 142.561C63.543 142.179 63.8971 141.88 64.3602 141.88C64.8234 141.88 65.1775 142.179 65.1775 142.561Z" fill="#AFAFAF"/>
<path d="M82.6945 99.7082C82.9669 101.207 83.2121 102.678 83.43 104.176C83.648 105.674 83.8659 107.173 84.0566 108.671C84.2473 110.169 84.4108 111.668 84.5742 113.166C84.7377 114.664 84.8467 116.163 84.9556 117.688C84.7922 116.19 84.6287 114.692 84.4653 113.193C84.2746 111.695 84.1111 110.197 83.9204 108.698C83.7297 107.2 83.539 105.702 83.3211 104.203L82.6945 99.7082Z" fill="#AFAFAF"/>
<path d="M86.6448 105.238C86.5358 106.219 86.4269 107.2 86.3179 108.153C86.2089 109.134 86.0727 110.088 85.9365 111.068C85.8003 112.049 85.6368 113.003 85.4734 113.983C85.3099 114.937 85.1192 115.918 84.9013 116.871C84.983 116.381 85.0647 115.918 85.1465 115.427L85.3644 113.983L85.8003 111.068L86.1817 108.153C86.3451 107.173 86.4814 106.192 86.6448 105.238Z" fill="#AFAFAF"/>
<path d="M43.901 100.907C43.683 101.888 43.4651 102.841 43.2472 103.822L42.5661 106.71L41.8306 109.597C41.5854 110.551 41.3402 111.531 41.0678 112.485C41.2857 111.504 41.5036 110.551 41.7216 109.57L42.4026 106.682L43.1382 103.795C43.3834 102.841 43.6286 101.888 43.901 100.907Z" fill="#AFAFAF"/>
<path d="M30.7426 83.9891C31.342 83.9074 31.9413 83.9619 32.5406 84.0436C32.8403 84.0981 33.14 84.1526 33.4124 84.2343C33.5486 84.2616 33.7121 84.3161 33.8483 84.3433L34.2569 84.5068C35.3739 84.9426 36.4091 85.5965 37.2809 86.4137L37.9074 87.0403C38.0981 87.2583 38.2888 87.5035 38.4795 87.7214L38.752 88.0755C38.8337 88.1845 38.9154 88.3207 38.9971 88.4569L39.4875 89.2197C39.5692 89.3287 39.651 89.4649 39.7054 89.6011L39.9234 90.0098L40.332 90.7998L41.0131 92.4616L40.2775 90.8271C39.9779 90.3094 39.7054 89.7646 39.4058 89.2742L38.9154 88.5387C38.8337 88.4297 38.752 88.2935 38.6702 88.1845L38.3978 87.8304C38.2071 87.6124 38.0164 87.3672 37.8257 87.1493L37.1991 86.5227C36.3274 85.7327 35.3194 85.0516 34.2297 84.6157C33.14 84.1798 31.9413 83.9074 30.7426 83.9891Z" fill="#AFAFAF"/>
<path d="M97.8415 121.366C97.3238 121.802 96.8062 122.211 96.2886 122.619L94.7085 123.818L93.1012 124.989C92.5564 125.371 92.0388 125.752 91.4939 126.134C92.0115 125.698 92.5291 125.289 93.0468 124.88L94.6268 123.682L96.2341 122.51C96.7518 122.129 97.2966 121.747 97.8415 121.366Z" fill="#BC6048"/>
<path d="M111.572 110.796C112.607 109.625 112.607 108.208 113.261 106.464C113.915 104.721 117.674 100.389 118.246 98.9181C118.791 97.447 120.998 98.5912 119.908 101.315C118.791 104.04 118.219 104.666 118.056 105.211C120.507 101.86 123.531 97.3653 124.648 97.0112C125.765 96.657 126.419 98.0736 123.068 102.351C121.107 105.347 121.107 105.347 121.107 105.347C121.107 105.347 126.719 99.8989 127.89 99.463C129.062 99.0271 129.579 100.498 127.209 102.896C124.839 105.293 122.387 108.426 122.387 108.426C122.387 108.426 127.291 101.642 129.089 102.732C129.77 103.195 124.349 109.679 124.349 109.679C126.392 107.309 127.536 105.729 128.598 106.71C129.661 107.69 123.858 113.466 122.278 114.692C120.698 115.918 119.336 116.217 118.056 116.844C116.775 117.47 116.911 117.661 116.911 117.661L112.798 116.844L111.572 110.796Z" fill="#F9A58C"/>
<path d="M118.055 111.041C118.192 110.578 118.328 110.088 118.382 109.597C118.437 109.107 118.491 108.617 118.464 108.126C118.437 107.145 118.301 106.165 118.001 105.238V105.211V105.184C118.219 104.748 118.437 104.312 118.655 103.876C118.873 103.44 119.091 103.005 119.281 102.569C119.499 102.133 119.69 101.697 119.853 101.234C120.017 100.771 120.18 100.308 120.208 99.8444C120.208 100.335 120.071 100.798 119.908 101.261C119.744 101.724 119.554 102.16 119.363 102.623C119.172 103.059 118.954 103.495 118.737 103.931C118.519 104.367 118.301 104.803 118.083 105.238V105.184C118.246 105.674 118.328 106.137 118.41 106.628C118.491 107.118 118.519 107.609 118.519 108.099C118.519 108.589 118.491 109.08 118.41 109.57C118.355 110.115 118.219 110.578 118.055 111.041Z" fill="#BC6048"/>
<path d="M71.6884 77.7506C71.8246 78.1592 71.8518 78.5679 71.9063 78.9765C71.9336 79.3851 71.9608 79.821 71.9336 80.2297C71.9336 81.0742 71.8518 81.8915 71.7429 82.736C71.6339 83.5533 71.4704 84.3978 71.198 85.1878C71.0618 85.5965 70.8983 85.9779 70.7076 86.3593C70.5987 86.55 70.4897 86.7134 70.3262 86.8769C70.2445 86.9586 70.19 87.0403 70.1083 87.0948L69.8631 87.2855C69.509 87.5307 69.0458 87.6397 68.6099 87.5307C68.1741 87.4217 67.8199 87.1765 67.493 86.9041C66.8664 86.332 66.3761 85.6509 65.8857 84.9699C65.4226 84.2616 65.0956 83.4715 64.4963 82.8994C64.1966 82.5998 63.8425 82.3818 63.4338 82.2729C63.0252 82.1639 62.6166 82.1366 62.2079 82.1366C62.6166 82.1094 63.0524 82.1094 63.4611 82.2184C63.8697 82.3273 64.2511 82.5453 64.5508 82.845C65.1774 83.4443 65.5043 84.2343 65.9674 84.9154C66.4578 85.5965 66.9481 86.2775 67.5475 86.8224C67.8472 87.0948 68.2013 87.3127 68.6099 87.3945C68.9913 87.4762 69.4272 87.3672 69.7541 87.1493C70.0811 86.9314 70.3807 86.6317 70.5714 86.2775C70.7894 85.9234 70.9256 85.542 71.0618 85.1333C71.3342 84.3433 71.4704 83.526 71.6066 82.7087C71.7156 81.8915 71.7973 81.0469 71.8246 80.2297C71.8518 79.821 71.8518 79.3851 71.8246 78.9765C71.8518 78.5951 71.8246 78.1592 71.6884 77.7506Z" fill="#AFAFAF"/>
</g>
</svg>
