<svg width="22" height="22" viewBox="0 0 22 22" fill="none" xmlns="http://www.w3.org/2000/svg">
<path d="M2.58124 8.1267H6.39373C6.73603 8.1267 7.0643 8.2715 7.30634 8.52945C7.54837 8.78726 7.68435 9.13706 7.68435 9.50171C7.68435 9.86636 7.54837 10.2162 7.30634 10.474C7.0643 10.7318 6.73603 10.8767 6.39373 10.8767H1.41839C1.0421 10.8763 0.681318 10.7168 0.41536 10.4333C0.149402 10.1496 0 9.76516 0 9.36421V4.00171C0 3.63703 0.13598 3.2873 0.37801 3.02943C0.620053 2.77158 0.948322 2.62671 1.29062 2.62671C1.63292 2.62671 1.96119 2.77158 2.20323 3.02943C2.44526 3.2873 2.58124 3.63703 2.58124 4.00171V8.1267Z" fill="white"/>
<path d="M4.37513 8.25039H1.67773C2.27585 5.78209 3.66006 3.61176 5.59379 2.11034C7.52751 0.608912 9.89073 -0.130355 12.2794 0.0188734C14.668 0.168102 16.9339 1.19657 18.6897 2.92848C20.4454 4.6604 21.5821 6.98823 21.9052 9.51402C22.2285 12.0399 21.7182 14.607 20.4617 16.7763C19.2053 18.9458 17.2804 20.583 15.0164 21.408C12.7524 22.233 10.2898 22.1947 8.0494 21.2995C5.80896 20.4044 3.92993 18.7079 2.73346 16.5004H4.95591V15.0979C5.83373 16.7315 7.20954 17.9962 8.855 18.6821C10.5004 19.3679 12.3166 19.4337 14.0019 18.8684C15.6873 18.303 17.1404 17.1407 18.1202 15.5743C19.1001 14.0078 19.5477 12.1315 19.3887 10.2568C19.2297 8.38198 18.4736 6.6215 17.2461 5.26757C16.0186 3.91362 14.3933 3.04765 12.6401 2.81335C10.887 2.57906 9.11132 2.99057 7.60797 3.97955C6.10457 4.96854 4.96385 6.47553 4.37513 8.25039Z" fill="white"/>
<path d="M3.87192 17.2153C4.5847 17.2153 5.16254 16.5997 5.16254 15.8403C5.16254 15.0809 4.5847 14.4653 3.87192 14.4653C3.15914 14.4653 2.5813 15.0809 2.5813 15.8403C2.5813 16.5997 3.15914 17.2153 3.87192 17.2153Z" fill="white"/>
</svg>
