<svg width="18" height="18" viewBox="0 0 18 18" fill="none" xmlns="http://www.w3.org/2000/svg">
<path d="M2.11193 6.64915H5.23124C5.5113 6.64915 5.77988 6.76763 5.97792 6.97868C6.17594 7.18961 6.2872 7.47581 6.2872 7.77416C6.2872 8.07251 6.17594 8.35871 5.97792 8.56965C5.77988 8.78059 5.5113 8.89916 5.23124 8.89916H1.1605C0.852626 8.89882 0.557442 8.76832 0.33984 8.53635C0.122238 8.30426 0 7.98971 0 7.66166V3.27416C0 2.97578 0.111256 2.68964 0.309281 2.47866C0.507316 2.26769 0.7759 2.14916 1.05596 2.14916C1.33602 2.14916 1.60461 2.26769 1.80264 2.47866C2.00067 2.68964 2.11193 2.97578 2.11193 3.27416V6.64915Z" fill="#9C6AFF"/>
<path d="M3.57977 6.75033H1.37281C1.86218 4.73081 2.99472 2.95507 4.57686 1.72664C6.15899 0.498201 8.09254 -0.106654 10.0469 0.0154419C12.0012 0.137538 13.8551 0.979015 15.2917 2.39603C16.7282 3.81306 17.6582 5.71764 17.9226 7.7842C18.1871 9.85082 17.7696 11.9512 16.7415 13.7261C15.7135 15.5011 14.1387 16.8407 12.2863 17.5157C10.4339 18.1907 8.41904 18.1593 6.58599 17.4269C4.75291 16.6945 3.21552 15.3065 2.23659 13.5003H4.05496V12.3528C4.77317 13.6894 5.89884 14.7242 7.24513 15.2854C8.59137 15.8465 10.0773 15.9003 11.4562 15.4378C12.8352 14.9752 14.0241 14.0242 14.8258 12.7426C15.6275 11.4609 15.9937 9.92575 15.8636 8.39192C15.7335 6.85799 15.1149 5.4176 14.1106 4.30983C13.1062 3.20206 11.7765 2.49353 10.3421 2.30183C8.90763 2.11014 7.45484 2.44683 6.22482 3.256C4.99477 4.06517 4.06145 5.29817 3.57977 6.75033Z" fill="#9C6AFF"/>
<path d="M3.16781 14.0852C3.751 14.0852 4.22377 13.5815 4.22377 12.9602C4.22377 12.3389 3.751 11.8352 3.16781 11.8352C2.58462 11.8352 2.11185 12.3389 2.11185 12.9602C2.11185 13.5815 2.58462 14.0852 3.16781 14.0852Z" fill="black"/>
</svg>
