<svg width="74" height="67" viewBox="0 0 74 67" fill="none" xmlns="http://www.w3.org/2000/svg">
<path fill-rule="evenodd" clip-rule="evenodd" d="M5.78078 30.7513C6.02849 13.7092 20.0448 4.4011e-05 37.2573 4.4011e-05C42.6462 -0.00895612 47.9474 1.36256 52.6541 3.98351C57.3608 6.60445 61.3157 10.3872 64.1408 14.9702C64.4788 15.5513 64.576 16.2413 64.4118 16.893C64.2477 17.5447 63.8351 18.1066 63.262 18.4589C62.689 18.8111 62.0008 18.9259 61.3442 18.7787C60.6877 18.6314 60.1147 18.2339 59.7474 17.6708C57.384 13.8373 54.0752 10.6735 50.1376 8.48194C46.1999 6.29043 41.7651 5.14454 37.2573 5.15388C22.8591 5.15388 11.196 16.5885 10.9449 30.7444L12.321 29.3803C12.8069 28.8987 13.4645 28.6296 14.149 28.6322C14.8336 28.6348 15.4891 28.9088 15.9713 29.3941C16.4536 29.8793 16.723 30.536 16.7205 31.2197C16.7179 31.9033 16.4435 32.558 15.9576 33.0396L10.1777 38.7638C9.69442 39.2421 9.04153 39.5105 8.36111 39.5105C7.68068 39.5105 7.0278 39.2421 6.54456 38.7638L0.764631 33.0396C0.52382 32.8013 0.332353 32.5181 0.201162 32.2059C0.0699713 31.8938 0.00162603 31.5589 2.86635e-05 31.2204C-0.00156871 30.8819 0.0636129 30.5464 0.191852 30.233C0.320091 29.9196 0.508877 29.6346 0.747429 29.3941C0.985982 29.1536 1.26963 28.9624 1.58218 28.8314C1.89473 28.7003 2.23005 28.6321 2.56902 28.6305C2.90798 28.6289 3.24393 28.694 3.55771 28.8221C3.87148 28.9501 4.15692 29.1387 4.39773 29.3769L5.78078 30.7513ZM63.7727 28.2328C64.2558 27.7554 64.9079 27.4877 65.5875 27.4877C66.2671 27.4877 66.9193 27.7554 67.4024 28.2328L73.2029 33.9569C73.4504 34.1933 73.6483 34.4764 73.7851 34.7898C73.9219 35.1033 73.9949 35.4408 73.9997 35.7827C74.0046 36.1246 73.9413 36.464 73.8135 36.7813C73.6857 37.0985 73.496 37.3871 73.2554 37.6304C73.0148 37.8737 72.7281 38.0667 72.412 38.1982C72.096 38.3297 71.7569 38.397 71.4145 38.3964C71.0721 38.3957 70.7333 38.3269 70.4178 38.1942C70.1023 38.0614 69.8164 37.8673 69.5767 37.623L68.1661 36.2315C67.9253 53.2907 53.8505 66.9999 36.583 66.9999C31.1805 67.0129 25.8647 65.6443 21.142 63.0244C16.4192 60.4045 12.4468 56.6206 9.6031 52.0332C9.42509 51.7451 9.30564 51.4248 9.25158 51.0906C9.19751 50.7564 9.20989 50.4148 9.288 50.0854C9.36611 49.756 9.50843 49.4452 9.70682 49.1707C9.90522 48.8962 10.1558 48.6634 10.4443 48.4856C10.7328 48.3078 11.0535 48.1885 11.3881 48.1345C11.7228 48.0806 12.0648 48.0929 12.3946 48.1709C12.7245 48.2489 13.0357 48.3911 13.3106 48.5892C13.5854 48.7873 13.8185 49.0376 13.9965 49.3257C16.3777 53.1649 19.7036 56.3312 23.6573 58.5229C27.6111 60.7146 32.061 61.8587 36.583 61.8461C51.0534 61.8461 62.7647 50.3942 63.0055 36.2384L61.6018 37.623C61.115 38.1037 60.4569 38.3716 59.7724 38.3677C59.0878 38.3639 58.4328 38.0886 57.9515 37.6024C57.4702 37.1163 57.2019 36.4591 57.2058 35.7754C57.2097 35.0918 57.4853 34.4376 57.9721 33.9569L63.7727 28.2328Z" fill="white"/>
</svg>
