<svg width="26" height="24" viewBox="0 0 26 24" fill="none" xmlns="http://www.w3.org/2000/svg">
<path d="M3.05056 8.86547H7.55623C7.96076 8.86547 8.34872 9.02343 8.63477 9.30483C8.9208 9.58608 9.08151 9.96768 9.08151 10.3655C9.08151 10.7633 8.9208 11.1449 8.63477 11.4261C8.34872 11.7074 7.96076 11.8655 7.55623 11.8655H1.67628C1.23157 11.865 0.805194 11.691 0.49088 11.3817C0.176566 11.0723 0 10.6529 0 10.2155V4.36548C0 3.96765 0.160703 3.58612 0.446739 3.30481C0.73279 3.02352 1.12074 2.86548 1.52528 2.86548C1.92981 2.86548 2.31777 3.02352 2.60382 3.30481C2.88985 3.58612 3.05056 3.96765 3.05056 4.36548V8.86547Z" fill="#9C6AFF"/>
<path d="M5.17068 9.00043H1.98285C2.68971 6.30774 4.3256 3.9401 6.61091 2.30219C8.89622 0.664268 11.6891 -0.142206 14.5121 0.0205892C17.3349 0.183384 20.0129 1.30535 22.0879 3.1947C24.1628 5.08407 25.5062 7.62352 25.8881 10.3789C26.2702 13.1344 25.6671 15.9349 24.1821 18.3015C22.6972 20.6682 20.4224 22.4542 17.7468 23.3542C15.0711 24.2542 12.1607 24.2124 9.513 23.2359C6.86521 22.2594 4.64454 20.4087 3.23053 18.0004H5.85706V16.4704C6.89447 18.2526 8.52044 19.6323 10.4651 20.3805C12.4097 21.1287 14.556 21.2004 16.5477 20.5837C18.5396 19.9669 20.2569 18.699 21.4149 16.9902C22.5729 15.2812 23.1019 13.2343 22.9139 11.1892C22.726 9.14398 21.8325 7.22346 20.3818 5.74644C18.9311 4.26941 17.0104 3.32471 14.9384 3.06911C12.8665 2.81353 10.768 3.26244 8.99131 4.34133C7.21457 5.42022 5.86644 7.06422 5.17068 9.00043Z" fill="#9C6AFF"/>
<path d="M4.57582 18.7805C5.4182 18.7805 6.10109 18.109 6.10109 17.2805C6.10109 16.4521 5.4182 15.7805 4.57582 15.7805C3.73343 15.7805 3.05054 16.4521 3.05054 17.2805C3.05054 18.109 3.73343 18.7805 4.57582 18.7805Z" fill="#9C6AFF"/>
</svg>
