<svg width="23" height="31" viewBox="0 0 23 31" fill="none" xmlns="http://www.w3.org/2000/svg">
<path d="M20.125 3.875H15.3333C15.3333 1.7377 13.6143 0 11.5 0C9.38568 0 7.66667 1.7377 7.66667 3.875H2.875C1.28776 3.875 0 5.17676 0 6.78125V28.0938C0 29.6982 1.28776 31 2.875 31H20.125C21.7122 31 23 29.6982 23 28.0938V6.78125C23 5.17676 21.7122 3.875 20.125 3.875ZM5.75 25.6719C4.95339 25.6719 4.3125 25.024 4.3125 24.2188C4.3125 23.4135 4.95339 22.7656 5.75 22.7656C6.54661 22.7656 7.1875 23.4135 7.1875 24.2188C7.1875 25.024 6.54661 25.6719 5.75 25.6719ZM5.75 19.8594C4.95339 19.8594 4.3125 19.2115 4.3125 18.4062C4.3125 17.601 4.95339 16.9531 5.75 16.9531C6.54661 16.9531 7.1875 17.601 7.1875 18.4062C7.1875 19.2115 6.54661 19.8594 5.75 19.8594ZM5.75 14.0469C4.95339 14.0469 4.3125 13.399 4.3125 12.5938C4.3125 11.7885 4.95339 11.1406 5.75 11.1406C6.54661 11.1406 7.1875 11.7885 7.1875 12.5938C7.1875 13.399 6.54661 14.0469 5.75 14.0469ZM11.5 2.42188C12.2966 2.42188 12.9375 3.06973 12.9375 3.875C12.9375 4.68027 12.2966 5.32812 11.5 5.32812C10.7034 5.32812 10.0625 4.68027 10.0625 3.875C10.0625 3.06973 10.7034 2.42188 11.5 2.42188ZM19.1667 24.7031C19.1667 24.9695 18.951 25.1875 18.6875 25.1875H10.0625C9.79896 25.1875 9.58333 24.9695 9.58333 24.7031V23.7344C9.58333 23.468 9.79896 23.25 10.0625 23.25H18.6875C18.951 23.25 19.1667 23.468 19.1667 23.7344V24.7031ZM19.1667 18.8906C19.1667 19.157 18.951 19.375 18.6875 19.375H10.0625C9.79896 19.375 9.58333 19.157 9.58333 18.8906V17.9219C9.58333 17.6555 9.79896 17.4375 10.0625 17.4375H18.6875C18.951 17.4375 19.1667 17.6555 19.1667 17.9219V18.8906ZM19.1667 13.0781C19.1667 13.3445 18.951 13.5625 18.6875 13.5625H10.0625C9.79896 13.5625 9.58333 13.3445 9.58333 13.0781V12.1094C9.58333 11.843 9.79896 11.625 10.0625 11.625H18.6875C18.951 11.625 19.1667 11.843 19.1667 12.1094V13.0781Z" fill="#B7B7B7"/>
</svg>
