<svg width="19" height="15" viewBox="0 0 19 15" fill="none" xmlns="http://www.w3.org/2000/svg">
<path fill-rule="evenodd" clip-rule="evenodd" d="M17.4166 0C16.9732 0 16.5774 0.178631 16.2924 0.470937L6.3333 10.7016L2.70748 6.96663C2.42249 6.67432 2.02666 6.49569 1.58332 6.49569C0.712496 6.49569 0 7.22646 0 8.11961C0 8.57431 0.174166 8.98029 0.459164 9.2726L5.20914 14.1444C5.49414 14.4367 5.88997 14.6153 6.3333 14.6153C6.77663 14.6153 7.17246 14.4367 7.45746 14.1444L18.5407 2.77691C18.8257 2.4846 18.9999 2.07862 18.9999 1.62392C18.9999 0.730765 18.2874 0 17.4166 0Z" fill="#9C6AFF"/>
</svg>
