<svg width="164" height="237" viewBox="0 0 164 237" fill="none" xmlns="http://www.w3.org/2000/svg">
<path d="M0.864746 183.704C0.864746 183.704 1.71918 188.324 7.32644 191.074C10.2636 192.516 11.4918 184.559 11.4918 184.559L0.864746 183.704Z" fill="#DD4A97"/>
<path d="M9.00854 229.657L13.0671 234.357L16.4048 230.031L9.00854 229.657Z" fill="#DD4A97"/>
<path d="M131.62 80.7445C138.723 100.156 136.507 122.318 125.399 141.276C119.097 152.037 110.179 160.928 99.7657 166.776C90.2601 172.143 80.1671 174.786 70.3143 174.786C64.7605 174.786 59.2867 173.958 53.9999 172.276L45.9361 189.418L62.3573 197.349C66.4159 199.298 67.9913 204.638 65.8285 209.204C64.2264 212.622 60.9689 214.678 57.738 214.678C56.6433 214.678 55.5485 214.437 54.5339 213.957L38.1126 206.027L25.9636 231.9C24.4683 235.078 21.4778 237 18.4605 237C17.4459 237 16.4046 236.786 15.4433 236.306C11.6517 234.463 10.1832 229.524 12.1858 225.225L24.3348 199.351L7.91357 191.421C3.85498 189.472 2.27961 184.105 4.44241 179.539C6.04448 176.121 9.30203 174.065 12.5329 174.065C13.6276 174.065 14.7224 174.306 15.737 174.786L32.1583 182.716L40.1953 165.574C27.9929 157.35 19.3684 144.32 16.0307 128.406C13.2805 115.376 14.5088 101.278 19.5019 88.3276C26.6578 69.8237 40.3021 55.4851 57.3108 48.3292C64.7872 45.1785 72.4771 43.6298 80.0336 43.6298C89.7528 43.6298 99.2584 46.2198 107.83 51.3731C118.67 57.8882 127.054 68.2216 131.62 80.7445ZM117.148 122.932C120.112 114.415 120.913 105.283 119.418 96.7118C116.507 80.077 106.067 67.4206 91.2748 62.5076C87.2696 61.1725 83.0508 60.505 78.8053 60.505C74.9336 60.505 71.0085 61.0657 67.1636 62.1604C51.5434 66.6729 38.9671 79.0089 33.2263 95.5103C30.2625 104.028 29.4614 113.16 30.9834 121.731C33.8938 138.339 44.334 151.022 59.1265 155.935C63.1317 157.27 67.3238 157.911 71.5693 157.911C75.4409 157.911 79.366 157.35 83.211 156.229C98.8312 151.77 111.407 139.407 117.148 122.932Z" fill="#7B1FF4"/>
<path d="M128.069 76.6592C135.172 96.071 132.955 118.233 121.848 137.191C115.546 147.951 106.628 156.843 96.2146 162.691C86.7089 168.057 76.6426 170.701 66.7631 170.701C61.2093 170.701 55.7355 169.873 50.4487 168.191L42.3849 185.333L58.8062 193.263C62.8648 195.213 64.4401 200.553 62.2773 205.119C60.6753 208.536 57.4177 210.592 54.1869 210.592C53.0921 210.592 51.9974 210.352 50.9827 209.872L34.6149 201.915L22.4658 227.788C20.9706 230.966 17.98 232.888 14.9628 232.888C13.9481 232.888 12.9068 232.674 11.9455 232.194C8.15397 230.351 6.6854 225.412 8.68799 221.113L20.837 195.239L4.4425 187.336C0.383911 185.387 -1.19146 180.02 0.971337 175.454C2.57341 172.036 5.83096 169.98 9.06181 169.98C10.1566 169.98 11.2513 170.22 12.266 170.701L28.6872 178.631L36.7243 161.489C24.5218 153.265 15.8973 140.235 12.5597 124.321C9.80944 111.291 11.0377 97.1924 16.0308 84.2423C23.1867 65.7384 36.8311 51.3998 53.8397 44.2439C61.3161 41.0932 69.006 39.5445 76.5625 39.5445C86.2817 39.5445 95.7874 42.1345 104.358 47.2878C115.119 53.8029 123.477 64.163 128.069 76.6592ZM113.597 118.847C116.561 110.329 117.362 101.198 115.867 92.6265C112.956 75.9917 102.516 63.3353 87.7236 58.4223C83.7184 57.0872 79.4996 56.4197 75.2541 56.4197C71.3824 56.4197 67.4574 56.9804 63.6124 58.0751C47.9922 62.5876 35.4159 74.9503 29.6484 91.425C26.6846 99.9426 25.8836 109.074 27.4055 117.646C30.316 134.254 40.7561 146.937 55.5486 151.85C59.5538 153.185 63.7459 153.826 67.9914 153.826C71.8631 153.826 75.7881 153.265 79.6331 152.144C95.2533 147.684 107.83 135.322 113.597 118.847Z" fill="#9C6AFF"/>
<mask id="mask0_80_249" style="mask-type:luminance" maskUnits="userSpaceOnUse" x="22" y="0" width="175" height="154">
<path d="M196.745 66.8598L105.186 0L22.3591 9.21192L34.0009 81.9193C32.292 84.9099 30.8234 88.0873 29.6486 91.425C26.6847 99.9427 25.8837 109.074 27.4057 117.646C30.3161 134.254 40.7563 146.937 55.5487 151.85C59.5539 153.185 63.746 153.826 67.9915 153.826C71.8632 153.826 75.7883 153.265 79.6332 152.144C95.2535 147.631 107.83 135.295 113.57 118.794C113.811 118.126 114.024 117.485 114.211 116.818L181.739 102.693L196.745 66.8598Z" fill="white"/>
</mask>
<g mask="url(#mask0_80_249)">
<path d="M61.1289 280.283C61.1289 280.283 60.4347 279.188 60.8352 277.132C61.129 275.53 70.8482 224.477 67.8577 205.92C67.6707 201.087 82.57 155.695 84.5726 148.672C86.5752 141.623 74.3727 137.244 74.3727 137.244L53.5191 141.303C53.5191 141.303 51.7835 193.237 52.3709 204.451C52.9584 215.692 56.9369 273.848 56.7232 277.105C56.6164 279.402 57.0704 280.229 52.3442 283.38C49.6474 285.196 50.4485 285.917 53.9463 285.703C57.4442 285.489 60.5682 282.392 60.5682 282.392L61.1289 280.283Z" fill="#F9A58C"/>
<path d="M103.878 278.44C103.878 278.44 102.943 277.559 102.836 275.45C102.836 275.316 102.836 275.129 102.81 274.862C102.436 254.89 99.4986 235.051 93.7846 215.933C92.1558 210.459 90.4736 205.412 88.9516 202.128C87.6166 197.482 94.3987 152.411 94.639 145.068C94.8793 137.752 81.9559 136.47 81.9559 136.47L62.7043 145.468C62.7043 145.468 69.6467 194.465 72.9309 205.226C76.2152 215.986 88.9249 248.668 88.9249 248.668C93.8914 261.565 98.217 273.207 98.8044 276.438C99.2583 278.681 99.5787 280.122 95.3599 283.06C92.7432 285.009 94.8526 286.504 98.1903 285.436C101.528 284.368 103.824 280.603 103.824 280.603L103.878 278.44Z" fill="#F9A58C"/>
<path d="M78.7786 61.4662L78.1378 61.573V62.1337L79.1525 62.4808L78.7786 61.4662Z" fill="#AFAFAF"/>
<path d="M66.122 62.4007C66.3623 62.4007 66.7895 62.4809 66.7895 62.4809C66.7895 62.4809 67.0565 62.9882 67.0565 63.0416C67.0565 63.095 66.923 63.3353 66.923 63.3353L66.4157 63.3887L65.8282 63.095L66.122 62.4007Z" fill="#AFAFAF"/>
<path d="M91.6218 48.0889C92.7966 49.7711 94.1851 51.3464 95.7338 53.2689C98.3238 56.4998 99.4452 60.9322 98.3505 64.9107C97.2557 68.8891 93.8647 72.2268 89.8061 72.921C87.403 73.3215 84.8931 72.8409 82.6235 71.9598C80.701 71.2122 78.8319 70.1441 77.5236 68.542C76.3754 67.1536 75.7079 65.4447 74.8267 63.8426C73.3582 61.1725 71.1687 58.4223 68.5519 56.7935C67.1902 55.939 66.3624 56.2862 64.974 55.8589C63.3452 55.3516 61.9567 53.6961 60.9421 52.4412C58.4856 49.3973 57.0437 45.6057 56.6699 41.7073C56.483 39.7314 56.5898 37.7288 56.9903 35.7796C57.7112 32.2551 59.607 28.9441 62.5175 26.7546C67.4839 23.0164 75.2005 22.7494 80.4874 26.0337C85.614 29.2111 87.67 35.5393 88.7114 41.1199C89.2454 44.057 90.2867 46.1397 91.6218 48.0889Z" fill="#4C0702"/>
<path d="M71.5425 33.8037C71.5425 33.8037 71.7828 31.4006 68.1781 31.2938C64.5735 31.1603 61.0489 35.4592 60.6751 41.9209C60.328 48.3826 70.1807 38.4765 70.1807 38.4765L71.5425 33.8037Z" fill="#68393B"/>
<path d="M60.7285 41.0398C60.7285 41.0398 59.1531 57.2474 69.62 58.6092C72.4503 59.0364 78.8853 54.8977 80.1937 52.0941C82.5167 52.0674 83.6114 50.0381 83.3711 47.7952C83.0507 44.8848 80.4874 45.7659 79.6864 46.4601C76.9895 44.858 75.4943 42.6685 74.6932 38.2361C73.8655 33.8037 73.2781 33.51 71.5425 33.777C70.2341 32.7624 61.5295 31.5074 60.7285 41.0398Z" fill="#F9A58C"/>
<path d="M71.5425 33.8037C71.7294 33.4833 71.9964 33.2163 72.3435 33.0561C72.6906 32.8959 73.0912 32.8425 73.465 32.9226C74.2126 33.1095 74.8 33.6702 75.2273 34.2844C75.6545 34.9252 75.8948 35.6461 76.1084 36.3404C76.322 37.0613 76.4822 37.7822 76.6157 38.5032C76.856 39.9717 76.9895 41.4403 77.3634 42.8555C77.5503 43.5764 77.8173 44.2439 78.1911 44.8848C78.378 45.2052 78.6183 45.4989 78.8586 45.7659C79.1256 46.0329 79.3926 46.2732 79.6864 46.4868C79.3659 46.2999 79.0722 46.0596 78.8052 45.8193C78.5382 45.5523 78.2979 45.2853 78.0843 44.9649C77.6571 44.3507 77.3633 43.6298 77.1764 42.9356C76.7492 41.4937 76.6157 40.0251 76.3487 38.5566C76.2152 37.8356 76.0817 37.1147 75.8681 36.3938C75.6545 35.6995 75.4142 34.9786 75.0403 34.3645C74.6665 33.7503 74.1325 33.1896 73.4383 33.0027C73.0912 32.8959 72.7173 32.9226 72.3969 33.0828C72.0231 33.243 71.7561 33.4833 71.5425 33.8037Z" fill="#68393B"/>
<path d="M64.787 65.2311C64.787 65.2311 58.1651 69.6101 53.706 72.3603C49.2468 75.1105 50.4751 81.5989 51.3295 93.6145C60.942 87.4465 66.7628 77.0063 66.7628 77.0063L64.787 65.2311Z" fill="#F9A58C"/>
<path d="M38.0056 89.7428L60.6482 86.1114L65.2943 125.469L41.5569 129.1L38.0056 89.7428Z" fill="#D55A3B"/>
<path d="M32.6121 95.3767L54.3736 88.1407L65.2943 126.243L42.4648 133.64L32.6121 95.3767Z" fill="#68393B"/>
<path d="M58.3786 107.579C58.3786 107.579 59.8205 116.497 56.9902 121.143C56.6698 121.651 56.0556 123.84 55.6284 124.241C61.1022 129.501 76.1617 127.792 76.1617 127.792L87.5364 123.333C87.5364 123.333 85.0532 120.049 86.3348 109.475C86.6552 106.591 58.3786 107.579 58.3786 107.579Z" fill="#F9A58C"/>
<path d="M78.832 50.9459C77.577 58.3689 77.7639 60.9055 79.1524 62.7746C72.9043 64.43 66.2023 63.3086 66.2023 63.3086C66.2023 63.3086 67.7509 61.2793 66.9499 57.1673C68.8724 57.2207 73.9189 54.8176 73.9189 54.8176C73.9189 54.8176 79.099 49.3973 78.832 50.9459Z" fill="#F9A58C"/>
<path d="M56.376 122.372C72.3967 131.13 87.0557 121.597 87.0557 121.597C87.0557 121.597 96.4011 129.421 98.11 138.179C100.273 149.26 97.6027 169.179 95.8137 183.544C95.7603 183.891 59.9273 194.652 47.2976 181.088C46.9772 171.128 48.5792 155.428 49.1133 146.216C49.7007 136.363 51.5965 130.142 56.376 122.372Z" fill="#331A26"/>
<path d="M66.9498 57.8615C67.4037 58.1286 67.9111 58.3155 68.4184 58.4223C68.9257 58.5558 69.4597 58.5558 69.9938 58.5825C70.5278 58.6092 71.0351 58.6092 71.5691 58.5825C72.1032 58.5558 72.6105 58.449 73.1178 58.3155C74.1325 58.0218 75.067 57.5144 75.8947 56.8736C76.7225 56.2328 77.4701 55.4851 78.1643 54.6574C77.8439 55.0846 77.4968 55.4851 77.1497 55.8857C76.7759 56.2595 76.4021 56.6333 75.9748 56.9804C75.1471 57.6479 74.2126 58.182 73.1712 58.4757C72.1299 58.7694 71.0618 58.7961 69.9938 58.716C69.4597 58.6893 68.9257 58.6626 68.4184 58.5291C67.8844 58.3689 67.377 58.1553 66.9498 57.8615Z" fill="#BC6048"/>
<path d="M87.5631 84.456C87.5631 84.456 93.8645 103.868 94.3185 109.128C92.0489 118.607 86.7086 129.795 85.6406 132.118C84.8395 133.933 89.4856 138.125 90.7939 136.657C98.5907 127.926 103.664 119.328 105.213 111.558C103.691 98.5275 98.8577 79.3026 95.4933 73.909C94.185 71.8263 79.8197 63.9761 79.8197 63.9761L75.0669 65.7651L85.694 81.4921L87.5631 84.456Z" fill="#F9A58C"/>
<path d="M52.2911 83.4146C52.2644 84.1088 52.211 84.7764 52.1309 85.4706C52.0775 86.1648 51.9706 86.8324 51.8905 87.5266C51.7837 88.1941 51.6769 88.8884 51.5434 89.5559C51.4099 90.2234 51.2497 90.8909 51.0094 91.5318C51.0895 91.2114 51.1696 90.8643 51.2497 90.5438C51.3031 90.1967 51.3832 89.8763 51.4366 89.5292C51.5434 88.8617 51.6502 88.1674 51.7303 87.4999L51.9973 85.4706C52.1042 84.7764 52.1843 84.1088 52.2911 83.4146Z" fill="#BC6048"/>
<path d="M66.1221 62.4008C66.1221 62.4008 65.4012 63.6824 72.8241 63.1751C79.5528 62.7212 78.7518 61.7065 78.7785 61.4662C79.7664 61.2793 79.8999 62.2672 80.1402 63.095C80.3805 63.9227 81.1282 64.163 80.6209 64.6971C77.7104 67.7944 68.6854 66.0321 64.787 65.2044C64.3865 64.8039 65.0006 64.3766 65.1341 63.7892C65.2677 63.1217 65.054 62.2672 66.1221 62.4008Z" fill="white"/>
<path d="M91.0076 103.654C91.6217 102.025 92.4227 100.423 92.6364 98.6877C92.8767 96.5516 92.2091 94.4422 91.4081 92.4663C89.539 87.8203 86.949 83.4947 84.7595 79.0089C82.57 74.4964 80.9412 69.4766 80.781 64.4834C76.2685 64.0295 71.489 64.3232 66.9765 64.9374C66.2823 65.0442 66.2022 64.4033 65.588 64.7772C65.5346 64.8039 64.8137 65.2311 64.7603 65.2578C64.0127 65.7918 63.6388 67.0201 63.265 67.8478C61.2357 72.3069 60.8085 73.5352 58.1651 77.6471C55.6552 81.5455 51.0893 86.2983 50.9825 90.9444C50.9024 93.748 52.6112 97.6197 53.3055 100.316C53.7327 101.972 53.7861 103.975 53.706 105.977C53.5458 108.487 52.7981 111.878 51.9704 114.228C51.9704 114.228 51.9704 114.228 51.9971 114.201C51.9971 114.174 52.0238 114.174 52.0238 114.174L52.0505 114.148C52.3709 113.988 53.4924 114.014 53.706 114.014C56.2159 114.041 58.5656 115.349 60.9153 116.07C61.93 116.391 63.0247 116.604 64.0928 116.551C65.7215 116.444 67.1634 115.509 68.8723 115.429C71.4089 115.323 73.8654 116.177 76.402 115.857C78.8051 115.563 81.1281 115.296 83.5579 115.616C86.2014 115.963 86.7354 116.578 89.2987 115.563C88.738 114.308 88.3375 112.012 88.3375 112.012C87.9904 110.276 89.806 107.873 90.4469 105.363C90.6071 104.776 90.794 104.215 91.0076 103.654Z" fill="white"/>
<path d="M85.8543 126.644C85.8543 126.644 86.8956 132.705 94.2118 136.123C92.3694 141.837 85.2935 140.128 85.2935 140.128C85.2935 140.128 82.4365 138.179 82.5433 136.47C82.6501 134.761 85.8543 126.644 85.8543 126.644Z" fill="#331A26"/>
<path d="M70.8481 97.2191C71.489 98.1003 72.3167 98.8479 73.1978 99.5154C74.079 100.156 75.0402 100.69 76.0816 101.091C76.3219 101.198 76.5889 101.278 76.8559 101.358L77.2564 101.491L77.657 101.598C77.924 101.652 78.191 101.732 78.458 101.785L79.259 101.919L79.6595 101.972L80.0601 101.999L80.8878 102.052C81.4485 102.079 81.9825 102.052 82.5433 102.052C81.9825 102.079 81.4485 102.132 80.8878 102.132L80.0601 102.105L79.6595 102.079L79.259 102.025L78.4313 101.919C78.1643 101.865 77.8973 101.785 77.6303 101.732L77.2297 101.625L76.8292 101.491C76.5622 101.411 76.2952 101.331 76.0549 101.224C75.0135 100.824 74.0523 100.29 73.1711 99.6222C72.7172 99.3018 72.3167 98.928 71.9162 98.5275C71.489 98.1003 71.1419 97.6998 70.8481 97.2191Z" fill="#AFAFAF"/>
<path d="M65.3212 65.3379C65.9086 65.5248 66.496 65.6583 67.1102 65.7651C67.7243 65.8719 68.3117 65.952 68.9258 65.9787C69.54 66.0054 70.1541 66.0054 70.7682 65.9787C71.3823 65.9253 71.9965 65.8452 72.6106 65.8185C73.2247 65.7918 73.8389 65.7651 74.453 65.7918C75.0671 65.7918 75.6812 65.8185 76.2954 65.7117C76.9095 65.6049 77.4969 65.4447 78.0843 65.2578C78.6718 65.0976 79.2592 64.9107 79.8466 64.7238C78.6985 65.151 77.5236 65.5515 76.3221 65.7918C75.7079 65.9253 75.0938 65.8986 74.4797 65.8986C73.8656 65.8986 73.2514 65.8986 72.6373 65.952C72.0232 65.9787 71.409 66.0588 70.7949 66.1122C70.1808 66.1656 69.5667 66.1656 68.9525 66.1122C67.6976 66.0054 66.4693 65.7651 65.3212 65.3379Z" fill="#AFAFAF"/>
<path d="M66.6561 62.9882C66.5226 63.1751 66.4692 63.3887 66.4158 63.6023C66.3624 63.8159 66.3357 64.0295 66.309 64.2698C66.2556 64.4834 66.2022 64.6971 66.1221 64.9107C66.042 65.1243 65.9619 65.3379 65.8551 65.5248C65.9619 65.0976 66.0954 64.6704 66.1755 64.2164C66.2289 64.0028 66.2289 63.7625 66.309 63.5489C66.3891 63.3353 66.4959 63.1217 66.6561 62.9882Z" fill="#AFAFAF"/>
<path d="M68.4985 63.2552L68.4451 63.9494C68.4184 64.1897 68.4184 64.4033 68.4184 64.6169C68.3917 64.8573 68.365 65.0709 68.3383 65.3112C68.3116 65.5248 68.2582 65.7651 68.1781 65.9787C68.2048 65.5248 68.2582 65.0709 68.2849 64.6169C68.3116 64.4033 68.3116 64.163 68.3383 63.9227C68.3917 63.7091 68.4451 63.4955 68.4985 63.2552Z" fill="#AFAFAF"/>
<path d="M71.1152 63.2819C71.0351 63.4955 71.0084 63.7358 70.9817 63.9494C70.955 64.163 70.9817 64.4033 71.0084 64.617C71.0351 64.8573 71.0618 65.0709 71.0885 65.3112C71.1152 65.5515 71.1152 65.7651 71.0885 66.0054L70.8749 64.6437C70.8482 64.4033 70.8482 64.163 70.8749 63.9494C70.9283 63.7091 70.9817 63.4688 71.1152 63.2819Z" fill="#AFAFAF"/>
<path d="M73.3047 63.1484C73.4115 63.362 73.4649 63.5756 73.5183 63.8159C73.5717 64.0295 73.5717 64.2698 73.5717 64.5102C73.545 64.7505 73.5183 64.9641 73.5183 65.1777C73.5183 65.3913 73.5183 65.6316 73.5183 65.8452C73.4649 65.6316 73.4382 65.3913 73.4115 65.1777C73.4115 64.9374 73.4382 64.7238 73.4382 64.4834C73.4649 64.2698 73.4382 64.0295 73.4115 63.8159C73.3848 63.6023 73.3314 63.362 73.3047 63.1484Z" fill="#AFAFAF"/>
<path d="M75.4677 62.9882C75.5478 63.2018 75.6279 63.4421 75.6813 63.6824C75.7347 63.9227 75.7881 64.163 75.8148 64.4033C75.8415 64.5368 75.8148 64.6437 75.8415 64.7772C75.8415 64.884 75.8682 65.0175 75.8949 65.1243C75.9483 65.3646 76.0284 65.5782 76.1352 65.7918C75.975 65.6049 75.8682 65.3646 75.7881 65.151C75.708 64.9107 75.708 64.6436 75.6813 64.43C75.6546 63.9227 75.5478 63.4688 75.4677 62.9882Z" fill="#AFAFAF"/>
<path d="M77.684 62.4809C77.8442 62.6411 77.9777 62.8547 78.0578 63.0683C78.1112 63.1751 78.1379 63.3086 78.1379 63.4154C78.1646 63.5489 78.1646 63.6557 78.1913 63.7625C78.2447 63.9761 78.2981 64.2164 78.3782 64.43L78.5918 65.0976C78.485 64.884 78.3782 64.6704 78.2981 64.4567C78.218 64.2431 78.1379 64.0028 78.0845 63.7625C78.0578 63.6557 78.0578 63.5222 78.0311 63.4154C78.0311 63.3086 77.9777 63.2018 77.951 63.0683C77.9243 62.9081 77.8175 62.6945 77.684 62.4809Z" fill="#AFAFAF"/>
<path d="M87.1094 91.2648C87.5366 91.6653 87.9638 92.0391 88.4177 92.4129C88.8717 92.7867 89.2989 93.1339 89.7795 93.481C90.2334 93.8281 90.714 94.1485 91.1947 94.4689C91.435 94.6291 91.6753 94.7626 91.9423 94.9228C92.1826 95.083 92.4496 95.1898 92.7166 95.3234C92.1826 95.1097 91.6486 94.8427 91.168 94.549C90.6606 94.2553 90.18 93.9349 89.7261 93.5878C89.2722 93.2407 88.8182 92.8668 88.391 92.493C87.9104 92.0925 87.4832 91.692 87.1094 91.2648Z" fill="#AFAFAF"/>
<path d="M86.6019 86.1114C86.949 86.8057 87.3229 87.4999 87.67 88.1674C88.0438 88.835 88.4176 89.5292 88.8181 90.17C89.2186 90.8375 89.6459 91.4784 90.0731 92.1192C90.527 92.76 90.9809 93.3742 91.5149 93.9349C90.9542 93.4009 90.4736 92.7867 89.993 92.1726C89.5391 91.5585 89.1118 90.891 88.7113 90.2234C88.3108 89.5559 87.937 88.8884 87.5899 88.1941C87.2428 87.5266 86.8956 86.8324 86.6019 86.1114Z" fill="#AFAFAF"/>
<path d="M86.6019 81.3853L93.5709 103.174H97.5227L96.2411 88.6747L86.6019 81.3853Z" fill="#F9A58C"/>
<path d="M54.4536 125.576C55.6285 126.323 56.8567 126.964 58.1384 127.472C59.42 128.006 60.7284 128.433 62.0635 128.78C64.7336 129.474 67.5105 129.795 70.2607 129.848C73.011 129.928 75.7879 129.741 78.5381 129.367C79.8999 129.18 81.2616 128.94 82.6234 128.646C83.9852 128.353 85.3202 128.006 86.6286 127.605C84.0119 128.513 81.2883 129.154 78.5648 129.554C75.8146 129.982 73.0377 130.168 70.2607 130.088C67.4838 130.008 64.7069 129.688 62.0101 128.94C60.675 128.566 59.3399 128.112 58.085 127.552C56.83 127.018 55.6018 126.35 54.4536 125.576Z" fill="#443B44"/>
<path d="M86.0947 127.792C86.335 128.273 86.6021 128.753 86.8691 129.234C87.1361 129.715 87.4565 130.142 87.7769 130.596C88.4177 131.477 89.112 132.305 89.913 133.052C90.0999 133.239 90.2868 133.426 90.5004 133.613L91.1413 134.12C91.3549 134.28 91.5952 134.441 91.8088 134.601L92.1559 134.841C92.2627 134.921 92.3962 134.975 92.503 135.055L93.1973 135.455L93.9449 135.802C94.0784 135.856 94.1852 135.909 94.3187 135.963L94.6925 136.096L95.4669 136.363C94.3988 136.096 93.3575 135.749 92.3962 135.188C91.435 134.654 90.5271 133.987 89.7528 133.239C88.9518 132.465 88.2308 131.637 87.6434 130.729C87.0026 129.795 86.4685 128.807 86.0947 127.792Z" fill="#443B44"/>
<path d="M95.4403 136.336C95.7607 140.315 95.9476 144.293 96.0811 148.299C96.1879 152.277 96.2146 156.282 96.1612 160.261C96.0811 164.239 95.9209 168.244 95.6272 172.223C95.4403 174.199 95.3068 176.201 95.0397 178.177C94.8261 180.153 94.479 182.129 94.1853 184.105C94.4523 182.129 94.746 180.153 94.9062 178.177C95.1465 176.201 95.2534 174.199 95.4136 172.223C95.6539 168.244 95.8408 164.266 95.8942 160.261C95.9743 156.282 95.9476 152.277 95.8675 148.299C95.8408 146.296 95.7874 144.32 95.7073 142.317C95.6539 140.315 95.5738 138.339 95.4403 136.336Z" fill="#443B44"/>
<path d="M36.0565 114.762C36.6707 115.937 36.0832 116.23 36.2167 117.165C36.377 118.099 37.3115 118.019 37.3649 118.714C37.4183 119.408 36.8843 120.049 37.5785 120.636C38.2727 121.224 38.3261 121.304 38.4596 122.105C38.6466 123.066 38.8068 123.68 40.035 123.814C41.2633 123.974 44.3072 122.105 45.8292 118.954C46.7103 117.218 44.1203 118.313 44.1203 118.313C44.1203 118.313 44.8946 117.779 45.2952 117.031C45.6957 116.284 44.0669 115.91 42.9188 116.284C43.7732 115.75 45.1617 114.174 44.2271 114.068C43.2926 113.961 41.29 114.735 41.29 114.735C42.4114 114.308 43.7732 113.507 44.2538 113.16C44.7077 112.839 44.3873 112.145 43.0256 112.305C41.7439 112.466 35.0419 112.813 36.0565 114.762Z" fill="#F9A58C"/>
<path d="M68.8723 53.2689C68.8723 53.2689 71.0885 53.4024 72.5304 51.8805C72.9576 52.7082 73.2513 54.5239 71.7293 55.1914C69.9404 56.0191 68.8723 53.2689 68.8723 53.2689Z" fill="white"/>
<path d="M62.1167 144.32C63.7455 145.228 65.2941 146.323 66.736 147.524C68.2046 148.699 69.5396 150.007 70.7946 151.423C72.0229 152.838 73.1176 154.386 73.9987 156.042C74.4527 156.87 74.8265 157.724 75.1469 158.605C75.4673 159.486 75.6809 160.394 75.8678 161.329C75.4406 159.513 74.7464 157.751 73.8385 156.122C72.9307 154.493 71.8359 152.971 70.6077 151.583C69.3794 150.168 68.0444 148.859 66.6292 147.658C65.9083 147.044 65.1873 146.456 64.4397 145.922C63.6921 145.335 62.9177 144.801 62.1167 144.32Z" fill="#443B44"/>
<path d="M61.1555 40.666C61.2089 39.678 61.5561 38.4765 61.5561 38.4765C61.5561 38.4765 61.5561 39.1173 61.5561 40.5592C63.1581 40.1586 64.7068 39.945 66.1754 39.8382C66.2021 39.3042 66.2822 38.3429 66.5225 37.8623C66.3623 38.5299 66.5225 39.3309 66.6293 39.8115C68.8188 39.7047 70.7947 39.8649 72.4502 40.0785C72.3166 38.7969 72.6371 37.4351 72.7706 36.9812C72.6371 38.6367 72.8774 39.7047 73.0376 40.1586C74.4527 40.3455 75.5475 40.5324 76.2684 40.5592C78.4312 40.7461 81.9825 39.3042 81.9825 39.3042C81.9825 39.3042 82.7034 36.2603 83.1573 31.9881C79.9265 27.2619 72.6638 27.6358 71.7292 27.7426C69.8067 27.5023 66.7628 28.5703 64.867 29.5583C58.5121 32.7891 60.4613 40.7461 61.1555 40.666Z" fill="#4C0702"/>
<path d="M66.8698 44.7779C66.8698 44.7779 66.8164 48.0889 65.428 49.6109C65.428 49.6109 65.9887 50.0648 66.9232 50.6255" stroke="#E26B48" stroke-width="0.4531" stroke-miterlimit="10" stroke-linecap="round" stroke-linejoin="round"/>
<path d="M73.2249 45.9261C73.1715 46.5936 72.7176 47.101 72.2369 47.0743C71.7563 47.0209 71.4092 46.4601 71.4893 45.7659C71.5427 45.0984 71.9966 44.591 72.4772 44.6177C72.9312 44.6711 73.2783 45.2586 73.2249 45.9261Z" fill="#382B28"/>
<path d="M70.4479 40.9597C70.4479 40.9597 73.118 40.0785 74.7468 41.1466C74.7468 41.1199 72.9311 39.5178 70.4479 40.9597Z" stroke="#4C0702" stroke-width="0.6596" stroke-miterlimit="10" stroke-linecap="round" stroke-linejoin="round"/>
<path d="M62.3841 46.1931C62.4375 46.8607 62.8647 47.368 63.3453 47.3413C63.826 47.3146 64.1731 46.7271 64.1197 46.0596C64.0663 45.3921 63.639 44.8848 63.1584 44.9115C62.6778 44.9382 62.3307 45.5256 62.3841 46.1931Z" fill="#382B28"/>
<path d="M64.9742 41.0398C64.9742 41.0398 62.5444 40.479 61.2094 41.4937C61.2094 41.4937 62.6512 40.0251 64.9742 41.0398Z" stroke="#4C0702" stroke-width="0.6596" stroke-miterlimit="10" stroke-linecap="round" stroke-linejoin="round"/>
<path d="M71.756 49.8245C71.8094 50.492 72.8775 50.9726 74.1592 50.8658C75.4408 50.7857 76.4555 50.1716 76.4021 49.5041C76.3487 48.8365 75.2806 48.3559 73.9989 48.4627C72.7173 48.5428 71.7026 49.1569 71.756 49.8245Z" fill="#F4917A"/>
<path d="M61.1824 49.1569C61.3693 49.9313 61.5562 50.7323 61.8232 51.48C62.8111 51.2663 63.5321 50.759 63.4787 50.1983C63.4253 49.5842 62.4373 49.1302 61.1824 49.1569Z" fill="#F4917A"/>
</g>
</svg>
