<svg width="40" height="40" viewBox="0 0 40 40" fill="none" xmlns="http://www.w3.org/2000/svg">
<path d="M20 24.1666C22.7667 24.1666 24.9834 21.9333 24.9834 19.1666L25 9.16663C25 6.39996 22.7667 4.16663 20 4.16663C17.2334 4.16663 15 6.39996 15 9.16663V19.1666C15 21.9333 17.2334 24.1666 20 24.1666ZM30.1334 19.1666C29.4334 19.1666 28.85 19.6666 28.75 20.35C28.1334 24.7 24.2167 27.6666 20 27.6666C15.7834 27.6666 11.8667 24.7166 11.2501 20.35C11.1501 19.6666 10.5501 19.1666 9.86672 19.1666C9.00005 19.1666 8.33338 19.9333 8.45005 20.7833C9.21672 25.7333 13.3834 29.6166 18.3334 30.3666V34.1666C18.3334 35.0833 19.0834 35.8333 20 35.8333C20.9167 35.8333 21.6667 35.0833 21.6667 34.1666V30.3666C26.6 29.65 30.7834 25.7333 31.55 20.7833C31.6667 19.9333 31 19.1666 30.1334 19.1666Z" fill="#B7B7B7"/>
</svg>
